VelekaWorld-Regular.ufo
<glyph name="exclam" format="2">
  <advance width="337"/>
  <unicode hex="0021"/>
  <outline>
    <contour>
      <point x="108" y="50" type="curve" smooth="yes"/>
      <point x="108" y="86"/>
      <point x="133" y="111"/>
      <point x="169" y="111" type="curve" smooth="yes"/>
      <point x="204" y="111"/>
      <point x="231" y="85"/>
      <point x="231" y="50" type="curve" smooth="yes"/>
      <point x="231" y="15"/>
      <point x="204" y="-12"/>
      <point x="169" y="-12" type="curve" smooth="yes"/>
      <point x="134" y="-12"/>
      <point x="108" y="15"/>
    </contour>
    <contour>
      <point x="108" y="622" type="line"/>
      <point x="108" y="662.369"/>
      <point x="126.689" y="686"/>
      <point x="168" y="686" type="curve" smooth="yes"/>
      <point x="210" y="686"/>
      <point x="229" y="662"/>
      <point x="229" y="621" type="curve"/>
      <point x="194" y="180" type="line"/>
      <point x="145" y="180" type="line"/>
    </contour>
  </outline>
</glyph>
<glyph name="quotedbl" format="2">
  <advance width="333"/>
  <unicode hex="0022"/>
  <outline>
    <contour>
      <point x="43" y="665" type="line"/>
      <point x="43" y="694"/>
      <point x="57" y="714"/>
      <point x="86" y="714" type="curve" smooth="yes"/>
      <point x="115" y="714"/>
      <point x="128" y="694"/>
      <point x="128" y="665" type="curve"/>
      <point x="94" y="421" type="line"/>
      <point x="78" y="421" type="line"/>
    </contour>
    <contour>
      <point x="205" y="665" type="line"/>
      <point x="205" y="694"/>
      <point x="219" y="714"/>
      <point x="247" y="714" type="curve" smooth="yes"/>
      <point x="276" y="714"/>
      <point x="290" y="694"/>
      <point x="290" y="665" type="curve"/>
      <point x="255" y="421" type="line"/>
      <point x="239" y="421" type="line"/>
    </contour>
  </outline>
</glyph>
<glyph name="ampersand" format="2">
  <advance width="699"/>
  <unicode hex="0026"/>
  <outline>
    <contour>
      <point x="38" y="184" type="curve" smooth="yes"/>
      <point x="38" y="281"/>
      <point x="102" y="331"/>
      <point x="172" y="360" type="curve"/>
      <point x="116.101" y="410.611"/>
      <point x="89" y="461.221"/>
      <point x="89" y="515" type="curve" smooth="yes"/>
      <point x="89" y="622"/>
      <point x="172" y="684"/>
      <point x="279" y="684" type="curve" smooth="yes"/>
      <point x="375" y="684"/>
      <point x="455" y="628"/>
      <point x="455" y="534" type="curve" smooth="yes"/>
      <point x="455" y="432"/>
      <point x="379" y="390"/>
      <point x="308" y="359" type="curve"/>
      <point x="476" y="178" type="line"/>
      <point x="495" y="201"/>
      <point x="511" y="233"/>
      <point x="525" y="263" type="curve" smooth="yes"/>
      <point x="530" y="274"/>
      <point x="533" y="284"/>
      <point x="533" y="294" type="curve" smooth="yes"/>
      <point x="533" y="301"/>
      <point x="522" y="312"/>
      <point x="516" y="313" type="curve" smooth="yes"/>
      <point x="462" y="321" type="line"/>
      <point x="462" y="363" type="line"/>
      <point x="667" y="363" type="line"/>
      <point x="667" y="321" type="line"/>
      <point x="595" y="310" type="line"/>
      <point x="577" y="245"/>
      <point x="545" y="189"/>
      <point x="510" y="141" type="curve"/>
      <point x="591" y="48" type="line"/>
      <point x="680" y="43" type="line"/>
      <point x="680" y="0" type="line"/>
      <point x="496" y="0" type="line"/>
      <point x="496" y="24" type="line"/>
      <point x="451" y="74" type="line"/>
      <point x="405" y="28"/>
      <point x="337" y="-15"/>
      <point x="245" y="-15" type="curve" smooth="yes"/>
      <point x="126" y="-15"/>
      <point x="38" y="65"/>
    </contour>
    <contour>
      <point x="140" y="209" type="curve" smooth="yes"/>
      <point x="140" y="120"/>
      <point x="198" y="53"/>
      <point x="285" y="53" type="curve" smooth="yes"/>
      <point x="348" y="53"/>
      <point x="384" y="80"/>
      <point x="418" y="109" type="curve"/>
      <point x="211" y="328" type="line"/>
      <point x="174" y="304"/>
      <point x="140" y="269"/>
    </contour>
    <contour>
      <point x="179" y="541" type="curve" smooth="yes"/>
      <point x="179" y="472"/>
      <point x="235" y="423"/>
      <point x="272" y="392" type="curve"/>
      <point x="324" y="417"/>
      <point x="364" y="452"/>
      <point x="364" y="527" type="curve" smooth="yes"/>
      <point x="364" y="589"/>
      <point x="331" y="635"/>
      <point x="269" y="635" type="curve" smooth="yes"/>
      <point x="214" y="635"/>
      <point x="179" y="596"/>
    </contour>
  </outline>
</glyph>
<glyph name="comma" format="2">
  <advance width="279"/>
  <unicode hex="002C"/>
  <outline>
    <contour>
      <point x="33" y="-134" type="line"/>
      <point x="103" y="-118"/>
      <point x="143" y="-65"/>
      <point x="143" y="7" type="curve"/>
      <point x="80" y="7" type="line"/>
      <point x="70" y="17"/>
      <point x="62" y="33"/>
      <point x="62" y="53" type="curve" smooth="yes"/>
      <point x="62" y="89"/>
      <point x="89.8689" y="122"/>
      <point x="130" y="122" type="curve" smooth="yes"/>
      <point x="186.894" y="122"/>
      <point x="208" y="82.027"/>
      <point x="208" y="35" type="curve" smooth="yes"/>
      <point x="208" y="-81.2849"/>
      <point x="128" y="-160.644"/>
      <point x="33" y="-170" type="curve"/>
    </contour>
  </outline>
</glyph>
<glyph name="hyphen" format="2">
  <advance width="319"/>
  <unicode hex="002D"/>
  <outline>
    <contour>
      <point x="44" y="203" type="line"/>
      <point x="44" y="278" type="line"/>
      <point x="276" y="278" type="line"/>
      <point x="276" y="203" type="line"/>
    </contour>
  </outline>
</glyph>
<glyph name="slash" format="2">
  <advance width="490"/>
  <unicode hex="002F"/>
  <outline>
    <contour>
      <point x="0" y="-93" type="line"/>
      <point x="426" y="671" type="line"/>
      <point x="490" y="671" type="line"/>
      <point x="64" y="-93" type="line"/>
    </contour>
  </outline>
</glyph>
<glyph name="zero" format="2">
  <advance width="562"/>
  <unicode hex="0030"/>
  <outline>
    <contour>
      <point x="40" y="335" type="curve" smooth="yes"/>
      <point x="40" y="480"/>
      <point x="95" y="687"/>
      <point x="281" y="687" type="curve" smooth="yes"/>
      <point x="466" y="687"/>
      <point x="519" y="491"/>
      <point x="522" y="335" type="curve"/>
      <point x="521" y="187"/>
      <point x="466" y="-17"/>
      <point x="281" y="-17" type="curve" smooth="yes"/>
      <point x="100" y="-17"/>
      <point x="40" y="177"/>
    </contour>
    <contour>
      <point x="145" y="335" type="curve" smooth="yes"/>
      <point x="145" y="252"/>
      <point x="153" y="34"/>
      <point x="281" y="34" type="curve" smooth="yes"/>
      <point x="407" y="34"/>
      <point x="416" y="245"/>
      <point x="417" y="335" type="curve"/>
      <point x="417" y="417"/>
      <point x="407" y="637"/>
      <point x="280" y="637" type="curve" smooth="yes"/>
      <point x="154" y="637"/>
      <point x="145" y="425"/>
    </contour>
  </outline>
</glyph>
<glyph name="nine" format="2">
  <advance width="562"/>
  <unicode hex="0039"/>
  <outline>
    <contour>
      <point x="39" y="442" type="curve" smooth="yes"/>
      <point x="39" y="587"/>
      <point x="136" y="687"/>
      <point x="280" y="687" type="curve" smooth="yes"/>
      <point x="453" y="687"/>
      <point x="521" y="561"/>
      <point x="521" y="383" type="curve" smooth="yes"/>
      <point x="521" y="144"/>
      <point x="376" y="-17"/>
      <point x="139" y="-17" type="curve" smooth="yes"/>
      <point x="121" y="-17" type="line"/>
      <point x="121" y="45" type="line"/>
      <point x="155" y="45" type="line" smooth="yes"/>
      <point x="298.635" y="45"/>
      <point x="415" y="170.08"/>
      <point x="415" y="298" type="curve"/>
      <point x="373" y="262"/>
      <point x="324" y="235"/>
      <point x="248" y="235" type="curve" smooth="yes"/>
      <point x="122" y="235"/>
      <point x="39" y="317"/>
    </contour>
    <contour>
      <point x="141" y="455" type="curve" smooth="yes"/>
      <point x="141" y="360"/>
      <point x="188" y="299"/>
      <point x="282" y="299" type="curve" smooth="yes"/>
      <point x="339" y="299"/>
      <point x="383" y="324"/>
      <point x="417" y="349" type="curve"/>
      <point x="417" y="404" type="line" smooth="yes"/>
      <point x="417" y="554.08"/>
      <point x="369.709" y="635"/>
      <point x="282" y="635" type="curve" smooth="yes"/>
      <point x="182" y="635"/>
      <point x="141" y="555"/>
    </contour>
  </outline>
</glyph>
<glyph name="semicolon" format="2">
  <advance width="279"/>
  <unicode hex="003B"/>
  <outline>
    <contour>
      <point x="33" y="-134" type="line"/>
      <point x="110.725" y="-116.234"/>
      <point x="143" y="-74.8636"/>
      <point x="143" y="7" type="curve"/>
      <point x="80" y="7" type="line"/>
      <point x="68.5714" y="18.4286"/>
      <point x="62" y="35.2222"/>
      <point x="62" y="53" type="curve" smooth="yes"/>
      <point x="62" y="91.4642"/>
      <point x="90.3822" y="123"/>
      <point x="125" y="123" type="curve" smooth="yes"/>
      <point x="178.103" y="123"/>
      <point x="208" y="82.6566"/>
      <point x="208" y="11" type="curve" smooth="yes"/>
      <point x="208" y="-85.4427"/>
      <point x="134.805" y="-161.147"/>
      <point x="33" y="-170" type="curve"/>
    </contour>
    <contour>
      <point x="63" y="428" type="curve" smooth="yes"/>
      <point x="63" y="465.721"/>
      <point x="92.7164" y="495"/>
      <point x="131" y="495" type="curve" smooth="yes"/>
      <point x="168.716" y="495"/>
      <point x="197" y="466.288"/>
      <point x="197" y="428" type="curve" smooth="yes"/>
      <point x="197" y="396.796"/>
      <point x="170.768" y="361"/>
      <point x="130" y="361" type="curve" smooth="yes"/>
      <point x="92" y="361"/>
      <point x="63" y="390"/>
    </contour>
  </outline>
</glyph>
<glyph name="Q" format="2">
  <advance width="738"/>
  <unicode hex="0051"/>
  <outline>
    <contour>
      <point x="39" y="332" type="curve" smooth="yes"/>
      <point x="39" y="544.485"/>
      <point x="169.961" y="685"/>
      <point x="368" y="685" type="curve" smooth="yes"/>
      <point x="567.278" y="685"/>
      <point x="700" y="544.283"/>
      <point x="700" y="333" type="curve" smooth="yes"/>
      <point x="700" y="145.183"/>
      <point x="596.178" y="15.029"/>
      <point x="424" y="-13" type="curve"/>
      <point x="424.977" y="-91.1207"/>
      <point x="473.88" y="-134"/>
      <point x="562" y="-134" type="curve" smooth="yes"/>
      <point x="602.514" y="-134"/>
      <point x="640.727" y="-129.667"/>
      <point x="659" y="-123" type="curve"/>
      <point x="659" y="-166" type="line"/>
      <point x="604.66" y="-178.712"/>
      <point x="555.676" y="-185"/>
      <point x="511" y="-185" type="curve" smooth="yes"/>
      <point x="380.497" y="-185"/>
      <point x="318" y="-130.598"/>
      <point x="318" y="-17" type="curve"/>
      <point x="144.452" y="9.29516"/>
      <point x="39" y="141.205"/>
    </contour>
    <contour>
      <point x="157" y="335" type="curve" smooth="yes"/>
      <point x="157" y="152.141"/>
      <point x="238.859" y="38"/>
      <point x="370" y="38" type="curve" smooth="yes"/>
      <point x="501.953" y="38"/>
      <point x="583" y="150.249"/>
      <point x="583" y="333" type="curve" smooth="yes"/>
      <point x="583" y="517.818"/>
      <point x="502.619" y="629"/>
      <point x="369" y="629" type="curve" smooth="yes"/>
      <point x="236.251" y="629"/>
      <point x="157" y="519.095"/>
    </contour>
  </outline>
</glyph>
<glyph name="backslash" format="2">
  <advance width="488"/>
  <unicode hex="005C"/>
  <outline>
    <contour>
      <point x="0" y="671" type="line"/>
      <point x="64" y="671" type="line"/>
      <point x="489" y="-93" type="line"/>
      <point x="425" y="-93" type="line"/>
    </contour>
  </outline>
</glyph>
<glyph name="t" format="2">
  <advance width="339"/>
  <unicode hex="0074"/>
  <outline>
    <contour>
      <point x="27" y="432" type="line"/>
      <point x="27" y="465" type="line"/>
      <point x="95" y="497" type="line"/>
      <point x="140" y="603" type="line"/>
      <point x="184" y="603" type="line"/>
      <point x="184" y="482" type="line"/>
      <point x="325" y="482" type="line"/>
      <point x="325" y="432" type="line"/>
      <point x="184" y="432" type="line"/>
      <point x="184" y="153" type="line" smooth="yes"/>
      <point x="184" y="88"/>
      <point x="201" y="44"/>
      <point x="264" y="44" type="curve" smooth="yes"/>
      <point x="291.924" y="44"/>
      <point x="314.157" y="50.6369"/>
      <point x="332" y="61" type="curve"/>
      <point x="332" y="21" type="line"/>
      <point x="296" y="4"/>
      <point x="252" y="-12"/>
      <point x="198" y="-12" type="curve" smooth="yes"/>
      <point x="121" y="-12"/>
      <point x="91" y="22"/>
      <point x="91" y="100" type="curve" smooth="yes"/>
      <point x="91" y="432" type="line"/>
    </contour>
  </outline>
</glyph>
<glyph name="bar" format="2">
  <advance width="353"/>
  <unicode hex="007C"/>
  <outline>
    <contour>
      <point x="146" y="-258" type="line"/>
      <point x="146" y="796" type="line"/>
      <point x="207" y="796" type="line"/>
      <point x="207" y="-258" type="line"/>
    </contour>
  </outline>
</glyph>
<glyph name="cent" format="2">
  <advance width="562"/>
  <unicode hex="00A2"/>
  <outline>
    <contour>
      <point x="73" y="251" type="curve" smooth="yes"/>
      <point x="73" y="385.831"/>
      <point x="156.094" y="480.257"/>
      <point x="293" y="501" type="curve"/>
      <point x="293" y="603" type="line"/>
      <point x="341" y="603" type="line"/>
      <point x="341" y="503" type="line"/>
      <point x="384.823" y="503"/>
      <point x="420.558" y="496.709"/>
      <point x="483" y="478" type="curve"/>
      <point x="483" y="331" type="line"/>
      <point x="435" y="331" type="line"/>
      <point x="416" y="433" type="line"/>
      <point x="399.755" y="446.542"/>
      <point x="372.408" y="454"/>
      <point x="339" y="454" type="curve"/>
      <point x="339" y="45" type="line"/>
      <point x="379.375" y="45"/>
      <point x="396.243" y="47.699"/>
      <point x="414" y="57" type="curve"/>
      <point x="435" y="172" type="line"/>
      <point x="484" y="172" type="line"/>
      <point x="484" y="21" type="line"/>
      <point x="454.883" y="8.15413"/>
      <point x="395.381" y="-1"/>
      <point x="341" y="-1" type="curve"/>
      <point x="341" y="-100" type="line"/>
      <point x="293" y="-100" type="line"/>
      <point x="293" y="1" type="line"/>
      <point x="154.778" y="16.9487"/>
      <point x="73" y="109.878"/>
    </contour>
    <contour>
      <point x="171" y="255" type="curve" smooth="yes"/>
      <point x="171" y="145.07"/>
      <point x="217.028" y="69.3463"/>
      <point x="295" y="51" type="curve"/>
      <point x="295" y="454" type="line"/>
      <point x="223.165" y="454"/>
      <point x="171" y="370.283"/>
    </contour>
  </outline>
</glyph>
<glyph name="sterling" format="2">
  <advance width="562"/>
  <unicode hex="00A3"/>
  <outline>
    <contour>
      <point x="43" y="1" type="line"/>
      <point x="43" y="62" type="line"/>
      <point x="129.124" y="83.7904"/>
      <point x="152" y="155.76"/>
      <point x="152" y="264" type="curve" smooth="yes"/>
      <point x="152" y="329" type="line"/>
      <point x="82" y="329" type="line"/>
      <point x="82" y="378" type="line"/>
      <point x="152" y="378" type="line"/>
      <point x="150.223" y="415.815"/>
      <point x="149" y="451.769"/>
      <point x="149" y="488" type="curve" smooth="yes"/>
      <point x="149" y="632.743"/>
      <point x="219.212" y="737"/>
      <point x="364" y="737" type="curve" smooth="yes"/>
      <point x="436.771" y="737"/>
      <point x="522" y="704.661"/>
      <point x="522" y="632" type="curve" smooth="yes"/>
      <point x="522" y="598"/>
      <point x="494" y="575"/>
      <point x="460" y="575" type="curve" smooth="yes"/>
      <point x="448" y="575"/>
      <point x="436" y="577"/>
      <point x="424" y="580" type="curve"/>
      <point x="424" y="680" type="line"/>
      <point x="411" y="684"/>
      <point x="394" y="688"/>
      <point x="378" y="688" type="curve" smooth="yes"/>
      <point x="268.388" y="688"/>
      <point x="242" y="598"/>
      <point x="242" y="490" type="curve" smooth="yes"/>
      <point x="242" y="453.032"/>
      <point x="243.615" y="413.881"/>
      <point x="246" y="379" type="curve"/>
      <point x="432" y="379" type="line"/>
      <point x="432" y="330" type="line"/>
      <point x="246" y="330" type="line"/>
      <point x="246" y="237"/>
      <point x="236" y="171.143"/>
      <point x="193" y="122" type="curve" smooth="yes"/>
      <point x="179" y="106"/>
      <point x="161" y="91"/>
      <point x="139" y="77" type="curve"/>
      <point x="165.735" y="80.2279"/>
      <point x="194.55" y="83"/>
      <point x="222" y="83" type="curve" smooth="yes"/>
      <point x="518" y="83" type="line"/>
      <point x="518" y="1" type="line"/>
    </contour>
  </outline>
</glyph>
<glyph name="yen" format="2">
  <advance width="596"/>
  <unicode hex="00A5"/>
  <outline>
    <contour>
      <point x="9" y="628" type="line"/>
      <point x="9" y="670" type="line"/>
      <point x="233" y="670" type="line"/>
      <point x="233" y="628" type="line"/>
      <point x="190" y="621" type="line"/>
      <point x="183.752" y="620.219"/>
      <point x="176.171" y="613.948"/>
      <point x="176.171" y="606" type="curve" smooth="yes"/>
      <point x="176.171" y="603.771"/>
      <point x="176.686" y="601.409"/>
      <point x="178" y="599" type="curve"/>
      <point x="310" y="341" type="line"/>
      <point x="455" y="598" type="line"/>
      <point x="456.623" y="601.246"/>
      <point x="457.193" y="604.272"/>
      <point x="457.193" y="607" type="curve" smooth="yes"/>
      <point x="457.193" y="614.356"/>
      <point x="451.024" y="619.541"/>
      <point x="443" y="621" type="curve" smooth="yes"/>
      <point x="395" y="629" type="line"/>
      <point x="395" y="671" type="line"/>
      <point x="586" y="671" type="line"/>
      <point x="586" y="629" type="line"/>
      <point x="530" y="616" type="line"/>
      <point x="422" y="426" type="line"/>
      <point x="563" y="426" type="line"/>
      <point x="563" y="382" type="line"/>
      <point x="397" y="382" type="line"/>
      <point x="339" y="280" type="line"/>
      <point x="563" y="280" type="line"/>
      <point x="563" y="236" type="line"/>
      <point x="340" y="236" type="line"/>
      <point x="340" y="68" type="line" smooth="yes"/>
      <point x="340" y="57"/>
      <point x="354" y="47"/>
      <point x="366" y="46" type="curve" smooth="yes"/>
      <point x="424" y="41" type="line"/>
      <point x="424" y="-1" type="line"/>
      <point x="163" y="-1" type="line"/>
      <point x="163" y="41" type="line"/>
      <point x="222" y="46" type="line" smooth="yes"/>
      <point x="236" y="47"/>
      <point x="247" y="56"/>
      <point x="247" y="68" type="curve" smooth="yes"/>
      <point x="247" y="236" type="line"/>
      <point x="31" y="236" type="line"/>
      <point x="31" y="280" type="line"/>
      <point x="245" y="280" type="line"/>
      <point x="191" y="382" type="line"/>
      <point x="31" y="382" type="line"/>
      <point x="31" y="426" type="line"/>
      <point x="167" y="426" type="line"/>
      <point x="68" y="616" type="line"/>
    </contour>
  </outline>
</glyph>
<glyph name="dieresis" format="2">
  <advance width="315"/>
  <unicode hex="00A8"/>
  <outline>
    <contour>
      <point x="0" y="640" type="curve" smooth="yes"/>
      <point x="0" y="671"/>
      <point x="24" y="696"/>
      <point x="55" y="696" type="curve" smooth="yes"/>
      <point x="86" y="696"/>
      <point x="109" y="671"/>
      <point x="109" y="641" type="curve" smooth="yes"/>
      <point x="109" y="610"/>
      <point x="86" y="585"/>
      <point x="55" y="585" type="curve" smooth="yes"/>
      <point x="24" y="585"/>
      <point x="0" y="609"/>
    </contour>
    <contour>
      <point x="207" y="641" type="curve" smooth="yes"/>
      <point x="207" y="671"/>
      <point x="233" y="696"/>
      <point x="263" y="696" type="curve" smooth="yes"/>
      <point x="293" y="696"/>
      <point x="316" y="672"/>
      <point x="316" y="641" type="curve" smooth="yes"/>
      <point x="316" y="610"/>
      <point x="294" y="585"/>
      <point x="263" y="585" type="curve" smooth="yes"/>
      <point x="231" y="585"/>
      <point x="207" y="609"/>
    </contour>
  </outline>
</glyph>
<glyph name="copyright" format="2">
  <advance width="836"/>
  <unicode hex="00A9"/>
  <outline>
    <contour>
      <point x="35" y="349" type="curve" smooth="yes"/>
      <point x="35" y="572"/>
      <point x="197" y="736"/>
      <point x="420" y="736" type="curve" smooth="yes"/>
      <point x="642" y="736"/>
      <point x="804" y="570"/>
      <point x="804" y="350" type="curve" smooth="yes"/>
      <point x="804" y="128"/>
      <point x="641" y="-37"/>
      <point x="419" y="-37" type="curve" smooth="yes"/>
      <point x="198" y="-37"/>
      <point x="35" y="128"/>
    </contour>
    <contour>
      <point x="78" y="350" type="curve" smooth="yes"/>
      <point x="78" y="153"/>
      <point x="223" y="5"/>
      <point x="419" y="5" type="curve" smooth="yes"/>
      <point x="615" y="5"/>
      <point x="761" y="154"/>
      <point x="761" y="350" type="curve" smooth="yes"/>
      <point x="761" y="546"/>
      <point x="616" y="694"/>
      <point x="420" y="694" type="curve" smooth="yes"/>
      <point x="224" y="694"/>
      <point x="78" y="547"/>
    </contour>
    <contour>
      <point x="189" y="350" type="curve" smooth="yes"/>
      <point x="189" y="497"/>
      <point x="290" y="585"/>
      <point x="436" y="585" type="curve" smooth="yes"/>
      <point x="490" y="585"/>
      <point x="534" y="573"/>
      <point x="577" y="560" type="curve"/>
      <point x="577" y="441" type="line"/>
      <point x="532" y="441" type="line"/>
      <point x="517" y="517" type="line"/>
      <point x="502" y="527"/>
      <point x="472" y="538"/>
      <point x="446" y="538" type="curve" smooth="yes"/>
      <point x="343" y="538"/>
      <point x="282" y="457"/>
      <point x="282" y="353" type="curve" smooth="yes"/>
      <point x="282" y="250"/>
      <point x="336" y="160"/>
      <point x="436" y="160" type="curve" smooth="yes"/>
      <point x="468" y="160"/>
      <point x="498" y="168"/>
      <point x="519" y="179" type="curve"/>
      <point x="533" y="264" type="line"/>
      <point x="577" y="264" type="line"/>
      <point x="577" y="138" type="line"/>
      <point x="537.15" y="125.738"/>
      <point x="488.798" y="114"/>
      <point x="434" y="114" type="curve" smooth="yes"/>
      <point x="287" y="114"/>
      <point x="189" y="206"/>
    </contour>
  </outline>
</glyph>
<glyph name="ordfeminine" format="2">
  <advance width="340"/>
  <unicode hex="00AA"/>
  <outline>
    <contour>
      <point x="28" y="455" type="curve" smooth="yes"/>
      <point x="28" y="508.755"/>
      <point x="72.8157" y="524.221"/>
      <point x="119" y="539" type="curve" smooth="yes"/>
      <point x="144" y="547"/>
      <point x="178" y="556"/>
      <point x="221" y="565" type="curve"/>
      <point x="221" y="591" type="line" smooth="yes"/>
      <point x="221" y="632"/>
      <point x="202" y="650"/>
      <point x="161" y="650" type="curve" smooth="yes"/>
      <point x="143" y="650"/>
      <point x="124" y="646"/>
      <point x="113" y="642" type="curve"/>
      <point x="113" y="590" type="line"/>
      <point x="66" y="590" type="line" smooth="yes"/>
      <point x="53" y="590"/>
      <point x="42" y="593"/>
      <point x="42" y="607" type="curve" smooth="yes"/>
      <point x="42" y="664"/>
      <point x="119" y="678"/>
      <point x="177" y="678" type="curve" smooth="yes"/>
      <point x="245.301" y="678"/>
      <point x="282" y="653.467"/>
      <point x="282" y="586" type="curve" smooth="yes"/>
      <point x="282" y="418" type="line" smooth="yes"/>
      <point x="282" y="411"/>
      <point x="288.961" y="405.377"/>
      <point x="295" y="405" type="curve" smooth="yes"/>
      <point x="327" y="403" type="line"/>
      <point x="327" y="380" type="line"/>
      <point x="231" y="380" type="line"/>
      <point x="222" y="415" type="line"/>
      <point x="193.599" y="395.636"/>
      <point x="157.944" y="374"/>
      <point x="112" y="374" type="curve" smooth="yes"/>
      <point x="62" y="374"/>
      <point x="28" y="405"/>
    </contour>
    <contour>
      <point x="31" y="304" type="line"/>
      <point x="31" y="334" type="line"/>
      <point x="322" y="334" type="line"/>
      <point x="322" y="304" type="line"/>
    </contour>
    <contour>
      <point x="91" y="460" type="curve" smooth="yes"/>
      <point x="91" y="431.884"/>
      <point x="110.404" y="410"/>
      <point x="140" y="410" type="curve" smooth="yes"/>
      <point x="172.524" y="410"/>
      <point x="198.224" y="424.902"/>
      <point x="220" y="438" type="curve"/>
      <point x="220" y="542" type="line"/>
      <point x="174" y="532"/>
      <point x="138.87" y="523.174"/>
      <point x="112" y="503" type="curve" smooth="yes"/>
      <point x="97" y="491.738"/>
      <point x="91" y="481.5"/>
    </contour>
  </outline>
</glyph>
<glyph name="registered" format="2">
  <advance width="836"/>
  <unicode hex="00AE"/>
  <outline>
    <contour>
      <point x="33" y="351" type="curve" smooth="yes"/>
      <point x="33" y="573.725"/>
      <point x="195.406" y="738"/>
      <point x="418" y="738" type="curve" smooth="yes"/>
      <point x="639.072" y="738"/>
      <point x="802" y="572.792"/>
      <point x="802" y="351" type="curve" smooth="yes"/>
      <point x="802" y="128.867"/>
      <point x="638.075" y="-34"/>
      <point x="416" y="-34" type="curve" smooth="yes"/>
      <point x="195.471" y="-34"/>
      <point x="33" y="130.949"/>
    </contour>
    <contour>
      <point x="77" y="350" type="curve" smooth="yes"/>
      <point x="77" y="154.246"/>
      <point x="222.079" y="8"/>
      <point x="418" y="8" type="curve" smooth="yes"/>
      <point x="614.43" y="8"/>
      <point x="759" y="154.176"/>
      <point x="759" y="351" type="curve" smooth="yes"/>
      <point x="759" y="548.619"/>
      <point x="614.946" y="697"/>
      <point x="418" y="697" type="curve" smooth="yes"/>
      <point x="217.107" y="697"/>
      <point x="77" y="551.219"/>
    </contour>
    <contour>
      <point x="216" y="142" type="line"/>
      <point x="216" y="170" type="line"/>
      <point x="254" y="173" type="line" smooth="yes"/>
      <point x="262.029" y="173.634"/>
      <point x="269" y="179"/>
      <point x="269" y="187" type="curve" smooth="yes"/>
      <point x="269" y="535" type="line" smooth="yes"/>
      <point x="269" y="543"/>
      <point x="262.029" y="548.366"/>
      <point x="254" y="549" type="curve" smooth="yes"/>
      <point x="216" y="552" type="line"/>
      <point x="216" y="580" type="line"/>
      <point x="402" y="580" type="line" smooth="yes"/>
      <point x="497.451" y="580"/>
      <point x="576" y="559.181"/>
      <point x="576" y="465" type="curve" smooth="yes"/>
      <point x="576" y="394"/>
      <point x="518" y="369"/>
      <point x="459" y="356" type="curve"/>
      <point x="516.578" y="342.231"/>
      <point x="542.197" y="315.923"/>
      <point x="554.656" y="260" type="curve" smooth="yes"/>
      <point x="568.218" y="199.132"/>
      <point x="589.558" y="170"/>
      <point x="666" y="170" type="curve"/>
      <point x="666" y="143" type="line"/>
      <point x="649" y="140"/>
      <point x="627" y="138"/>
      <point x="608" y="138" type="curve" smooth="yes"/>
      <point x="531.431" y="138"/>
      <point x="510.751" y="174.671"/>
      <point x="492.705" y="232" type="curve" smooth="yes"/>
      <point x="473.346" y="293.499"/>
      <point x="454.977" y="337"/>
      <point x="373" y="337" type="curve" smooth="yes"/>
      <point x="340" y="337" type="line"/>
      <point x="340" y="187" type="line" smooth="yes"/>
      <point x="340" y="180"/>
      <point x="347.965" y="173.555"/>
      <point x="355" y="173" type="curve" smooth="yes"/>
      <point x="393" y="170" type="line"/>
      <point x="393" y="142" type="line"/>
    </contour>
    <contour>
      <point x="340" y="368" type="line"/>
      <point x="349.274" y="368"/>
      <point x="373.642" y="368"/>
      <point x="377" y="368" type="curve" smooth="yes"/>
      <point x="451" y="368"/>
      <point x="499" y="388"/>
      <point x="499" y="461" type="curve" smooth="yes"/>
      <point x="499" y="529"/>
      <point x="445" y="549"/>
      <point x="374" y="549" type="curve" smooth="yes"/>
      <point x="340" y="549" type="line"/>
    </contour>
  </outline>
</glyph>
<glyph name="degree" format="2">
  <advance width="319"/>
  <unicode hex="00B0"/>
  <outline>
    <contour>
      <point x="50" y="608" type="curve" smooth="yes"/>
      <point x="50" y="670.508"/>
      <point x="96.2999" y="719"/>
      <point x="159" y="719" type="curve" smooth="yes"/>
      <point x="221.508" y="719"/>
      <point x="270" y="672.7"/>
      <point x="270" y="610" type="curve" smooth="yes"/>
      <point x="270" y="547.492"/>
      <point x="223.7" y="499"/>
      <point x="161" y="499" type="curve" smooth="yes"/>
      <point x="98.4921" y="499"/>
      <point x="50" y="545.3"/>
    </contour>
    <contour>
      <point x="90" y="610" type="curve" smooth="yes"/>
      <point x="90" y="570"/>
      <point x="120" y="540"/>
      <point x="160" y="540" type="curve" smooth="yes"/>
      <point x="200" y="540"/>
      <point x="230" y="570"/>
      <point x="230" y="610" type="curve" smooth="yes"/>
      <point x="230" y="650"/>
      <point x="200" y="680"/>
      <point x="160" y="680" type="curve" smooth="yes"/>
      <point x="120" y="680"/>
      <point x="90" y="650"/>
    </contour>
  </outline>
</glyph>
<glyph name="plusminus" format="2">
  <advance width="1000"/>
  <unicode hex="00B1"/>
  <outline>
    <contour>
      <point x="200" y="0" type="line"/>
      <point x="200" y="62" type="line"/>
      <point x="800" y="62" type="line"/>
      <point x="800" y="0" type="line"/>
    </contour>
    <contour>
      <point x="200" y="358" type="line"/>
      <point x="200" y="420" type="line"/>
      <point x="469" y="420" type="line"/>
      <point x="469" y="600" type="line"/>
      <point x="531" y="600" type="line"/>
      <point x="531" y="420" type="line"/>
      <point x="800" y="420" type="line"/>
      <point x="800" y="358" type="line"/>
      <point x="531" y="358" type="line"/>
      <point x="531" y="178" type="line"/>
      <point x="469" y="178" type="line"/>
      <point x="469" y="358" type="line"/>
    </contour>
  </outline>
</glyph>
<glyph name="paragraph" format="2">
  <advance width="485"/>
  <unicode hex="00B6"/>
  <outline>
    <contour>
      <point x="27" y="475" type="curve" smooth="yes"/>
      <point x="27" y="622"/>
      <point x="114" y="671"/>
      <point x="261" y="671" type="curve" smooth="yes"/>
      <point x="459" y="671" type="line"/>
      <point x="459" y="635" type="line"/>
      <point x="397" y="625" type="line"/>
      <point x="397" y="-79" type="line"/>
      <point x="348" y="-79" type="line"/>
      <point x="348" y="630" type="line"/>
      <point x="272" y="630" type="line"/>
      <point x="272" y="281" type="line"/>
      <point x="123" y="281"/>
      <point x="27" y="325"/>
    </contour>
  </outline>
</glyph>
<glyph name="Aacute" format="2">
  <advance width="673"/>
  <unicode hex="00C1"/>
  <outline>
    <contour>
      <point x="5" y="0" type="line"/>
      <point x="5" y="43" type="line"/>
      <point x="63" y="56" type="line"/>
      <point x="296" y="688" type="line"/>
      <point x="371" y="688" type="line"/>
      <point x="603" y="71" type="line" smooth="yes"/>
      <point x="608.231" y="57.0869"/>
      <point x="611.054" y="53.3018"/>
      <point x="624" y="51" type="curve" smooth="yes"/>
      <point x="669" y="43" type="line"/>
      <point x="669" y="0" type="line"/>
      <point x="431" y="0" type="line"/>
      <point x="431" y="43" type="line"/>
      <point x="489" y="49" type="line" smooth="yes"/>
      <point x="496.712" y="49.7979"/>
      <point x="500" y="54.1426"/>
      <point x="500" y="61" type="curve"/>
      <point x="500" y="62.667"/>
      <point x="499.396" y="64.9492"/>
      <point x="499" y="66" type="curve"/>
      <point x="430" y="249" type="line"/>
      <point x="199" y="249" type="line"/>
      <point x="133" y="69" type="line"/>
      <point x="132.631" y="67.9922"/>
      <point x="132" y="65"/>
      <point x="132" y="63" type="curve"/>
      <point x="132" y="53.9414"/>
      <point x="138.009" y="49.9141"/>
      <point x="147" y="49" type="curve" smooth="yes"/>
      <point x="206" y="43" type="line"/>
      <point x="206" y="0" type="line"/>
    </contour>
    <contour>
      <point x="217" y="296" type="line"/>
      <point x="412" y="296" type="line"/>
      <point x="314" y="558" type="line"/>
    </contour>
    <contour>
      <point x="305" y="748" type="line"/>
      <point x="437" y="903" type="line"/>
      <point x="449" y="918"/>
      <point x="462" y="930"/>
      <point x="490" y="930" type="curve" smooth="yes"/>
      <point x="519.658" y="930"/>
      <point x="537" y="913.588"/>
      <point x="537" y="885" type="curve" smooth="yes"/>
      <point x="537" y="866"/>
      <point x="525.012" y="851.981"/>
      <point x="514" y="845" type="curve" smooth="yes"/>
      <point x="361" y="748" type="line"/>
    </contour>
  </outline>
</glyph>
<glyph name="Ccedilla" format="2">
  <advance width="626"/>
  <unicode hex="00C7"/>
  <outline>
    <contour>
      <point x="39" y="336" type="curve" smooth="yes"/>
      <point x="39" y="548.303"/>
      <point x="177.302" y="687"/>
      <point x="389" y="687" type="curve" smooth="yes"/>
      <point x="450.325" y="687"/>
      <point x="509.633" y="675.314"/>
      <point x="592" y="647" type="curve"/>
      <point x="592" y="490" type="line"/>
      <point x="532" y="490" type="line"/>
      <point x="517" y="581" type="line" smooth="yes"/>
      <point x="512.599" y="610.709"/>
      <point x="463.9" y="631"/>
      <point x="397" y="631" type="curve" smooth="yes"/>
      <point x="246.963" y="631"/>
      <point x="156" y="520.033"/>
      <point x="156" y="337" type="curve" smooth="yes"/>
      <point x="156" y="149.054"/>
      <point x="249.597" y="38"/>
      <point x="408" y="38" type="curve" smooth="yes"/>
      <point x="463.297" y="38"/>
      <point x="502.366" y="52.6016"/>
      <point x="507" y="75" type="curve" smooth="yes"/>
      <point x="530" y="184" type="line"/>
      <point x="588" y="184" type="line"/>
      <point x="588" y="22" type="line"/>
      <point x="544.243" y="-1.27539"/>
      <point x="463.603" y="-17"/>
      <point x="388" y="-17" type="curve" smooth="yes"/>
      <point x="171.269" y="-17"/>
      <point x="39" y="116.785"/>
    </contour>
    <contour>
      <point x="313" y="-219.667" type="curve"/>
      <point x="313" y="-180.667" type="line"/>
      <point x="331" y="-184.667"/>
      <point x="353" y="-188.667"/>
      <point x="374" y="-188.667" type="curve" smooth="yes"/>
      <point x="406" y="-188.667"/>
      <point x="438" y="-179.667"/>
      <point x="438" y="-147.667" type="curve" smooth="yes"/>
      <point x="438" y="-121.667"/>
      <point x="422" y="-110.667"/>
      <point x="401" y="-110.667" type="curve" smooth="yes"/>
      <point x="391" y="-110.667"/>
      <point x="378" y="-112.667"/>
      <point x="368" y="-116.667" type="curve"/>
      <point x="368" y="-9.66701" type="line"/>
      <point x="408" y="-9.66701" type="line"/>
      <point x="408" y="-67.667" type="line"/>
      <point x="416" y="-64.667"/>
      <point x="422" y="-63.667"/>
      <point x="431" y="-63.667" type="curve" smooth="yes"/>
      <point x="477" y="-63.667"/>
      <point x="503" y="-88.667"/>
      <point x="503" y="-134.667" type="curve" smooth="yes"/>
      <point x="503" y="-199.667"/>
      <point x="453" y="-229.667"/>
      <point x="387" y="-229.667" type="curve" smooth="yes"/>
      <point x="360" y="-229.667"/>
      <point x="334" y="-225.667"/>
    </contour>
  </outline>
</glyph>
<glyph name="Ecircumflex" format="2">
  <advance width="583"/>
  <unicode hex="00CA"/>
  <outline>
    <contour>
      <point x="32" y="0" type="line"/>
      <point x="32" y="43" type="line"/>
      <point x="84" y="47" type="line" smooth="yes"/>
      <point x="96" y="48"/>
      <point x="106" y="57"/>
      <point x="106" y="69" type="curve" smooth="yes"/>
      <point x="106" y="602" type="line" smooth="yes"/>
      <point x="106" y="614"/>
      <point x="96" y="623"/>
      <point x="84" y="624" type="curve" smooth="yes"/>
      <point x="32" y="628" type="line"/>
      <point x="32" y="671" type="line"/>
      <point x="518" y="671" type="line"/>
      <point x="518" y="522" type="line"/>
      <point x="458" y="522" type="line"/>
      <point x="443" y="604" type="line"/>
      <point x="441" y="613"/>
      <point x="435" y="623"/>
      <point x="425" y="623" type="curve" smooth="yes"/>
      <point x="208" y="623" type="line"/>
      <point x="208" y="374" type="line"/>
      <point x="358" y="374" type="line" smooth="yes"/>
      <point x="368" y="374"/>
      <point x="374" y="380"/>
      <point x="376" y="391" type="curve"/>
      <point x="386" y="460" type="line"/>
      <point x="437" y="460" type="line"/>
      <point x="437" y="237" type="line"/>
      <point x="386" y="237" type="line"/>
      <point x="377" y="306" type="line"/>
      <point x="376" y="316"/>
      <point x="370" y="324"/>
      <point x="359" y="324" type="curve" smooth="yes"/>
      <point x="209" y="324" type="line"/>
      <point x="209" y="49" type="line"/>
      <point x="462" y="49" type="line" smooth="yes"/>
      <point x="470" y="49"/>
      <point x="478" y="61"/>
      <point x="479" y="68" type="curve"/>
      <point x="497" y="167" type="line"/>
      <point x="551" y="167" type="line"/>
      <point x="551" y="0" type="line"/>
    </contour>
    <contour>
      <point x="111" y="746" type="line"/>
      <point x="237" y="915" type="line"/>
      <point x="313" y="915" type="line"/>
      <point x="439" y="746" type="line"/>
      <point x="379" y="746" type="line"/>
      <point x="276" y="845" type="line"/>
      <point x="172" y="746" type="line"/>
    </contour>
  </outline>
</glyph>
<glyph name="Iacute" format="2">
  <advance width="330"/>
  <unicode hex="00CD"/>
  <outline>
    <contour>
      <point x="33" y="0" type="line"/>
      <point x="33" y="43" type="line"/>
      <point x="93" y="47" type="line" smooth="yes"/>
      <point x="105" y="48"/>
      <point x="114" y="57"/>
      <point x="114" y="69" type="curve" smooth="yes"/>
      <point x="114" y="602" type="line" smooth="yes"/>
      <point x="114" y="614"/>
      <point x="105" y="622"/>
      <point x="93" y="623" type="curve" smooth="yes"/>
      <point x="33" y="627" type="line"/>
      <point x="33" y="671" type="line"/>
      <point x="297" y="671" type="line"/>
      <point x="297" y="627" type="line"/>
      <point x="236" y="623" type="line" smooth="yes"/>
      <point x="225" y="622"/>
      <point x="215" y="613"/>
      <point x="215" y="602" type="curve" smooth="yes"/>
      <point x="215" y="69" type="line" smooth="yes"/>
      <point x="215" y="58"/>
      <point x="225" y="48"/>
      <point x="236" y="47" type="curve" smooth="yes"/>
      <point x="297" y="43" type="line"/>
      <point x="297" y="0" type="line"/>
    </contour>
    <contour>
      <point x="137" y="746" type="line"/>
      <point x="269" y="901" type="line"/>
      <point x="281" y="916"/>
      <point x="294" y="928"/>
      <point x="322" y="928" type="curve" smooth="yes"/>
      <point x="351.658" y="928"/>
      <point x="369" y="911.588"/>
      <point x="369" y="883" type="curve" smooth="yes"/>
      <point x="369" y="864"/>
      <point x="357.012" y="849.981"/>
      <point x="346" y="843" type="curve" smooth="yes"/>
      <point x="193" y="746" type="line"/>
    </contour>
  </outline>
</glyph>
<glyph name="Eth" format="2">
  <advance width="695"/>
  <unicode hex="00D0"/>
  <outline>
    <contour>
      <point x="14" y="377" type="line"/>
      <point x="367" y="377" type="line"/>
      <point x="367" y="326" type="line"/>
      <point x="14" y="326" type="line"/>
    </contour>
    <contour>
      <point x="32" y="0" type="line"/>
      <point x="32" y="43" type="line"/>
      <point x="85" y="47" type="line" smooth="yes"/>
      <point x="97.0068" y="47.9063"/>
      <point x="108" y="57"/>
      <point x="108" y="69" type="curve" smooth="yes"/>
      <point x="108" y="602" type="line" smooth="yes"/>
      <point x="108" y="614"/>
      <point x="98.0068" y="623.094"/>
      <point x="86" y="624" type="curve" smooth="yes"/>
      <point x="33" y="628" type="line"/>
      <point x="33" y="671" type="line"/>
      <point x="291" y="671" type="line" smooth="yes"/>
      <point x="513.469" y="671"/>
      <point x="657" y="560.316"/>
      <point x="657" y="337" type="curve" smooth="yes"/>
      <point x="657" y="119.342"/>
      <point x="528.6" y="0"/>
      <point x="310" y="0" type="curve" smooth="yes"/>
    </contour>
    <contour>
      <point x="209" y="48" type="line"/>
      <point x="290" y="48" type="line" smooth="yes"/>
      <point x="467" y="48"/>
      <point x="545" y="154.371"/>
      <point x="545" y="335" type="curve" smooth="yes"/>
      <point x="545" y="519"/>
      <point x="466" y="623"/>
      <point x="285" y="623" type="curve" smooth="yes"/>
      <point x="209" y="623" type="line"/>
    </contour>
  </outline>
</glyph>
<glyph name="Ntilde" format="2">
  <advance width="721"/>
  <unicode hex="00D1"/>
  <outline>
    <contour>
      <point x="25" y="628" type="line"/>
      <point x="25" y="671" type="line"/>
      <point x="223" y="671" type="line"/>
      <point x="223" y="646" type="line"/>
      <point x="556" y="143" type="line"/>
      <point x="556" y="602" type="line" smooth="yes"/>
      <point x="556" y="613"/>
      <point x="546" y="623"/>
      <point x="535" y="624" type="curve" smooth="yes"/>
      <point x="478" y="628" type="line"/>
      <point x="478" y="671" type="line"/>
      <point x="692" y="671" type="line"/>
      <point x="692" y="628" type="line"/>
      <point x="636" y="624" type="line" smooth="yes"/>
      <point x="624" y="623"/>
      <point x="615" y="614"/>
      <point x="615" y="602" type="curve" smooth="yes"/>
      <point x="615" y="0" type="line"/>
      <point x="537" y="0" type="line"/>
      <point x="165" y="560" type="line"/>
      <point x="165" y="69" type="line" smooth="yes"/>
      <point x="165" y="57"/>
      <point x="174" y="48"/>
      <point x="186" y="47" type="curve" smooth="yes"/>
      <point x="243" y="43" type="line"/>
      <point x="243" y="0" type="line"/>
      <point x="27" y="0" type="line"/>
      <point x="27" y="43" type="line"/>
      <point x="84" y="47" type="line" smooth="yes"/>
      <point x="96" y="48"/>
      <point x="106" y="57"/>
      <point x="106" y="69" type="curve" smooth="yes"/>
      <point x="106" y="602" type="line" smooth="yes"/>
      <point x="106" y="614"/>
      <point x="96" y="623"/>
      <point x="84" y="624" type="curve" smooth="yes"/>
    </contour>
    <contour>
      <point x="185.5" y="746" type="line"/>
      <point x="200.5" y="801"/>
      <point x="230.5" y="856"/>
      <point x="300.5" y="856" type="curve" smooth="yes"/>
      <point x="327.5" y="856"/>
      <point x="345.5" y="845"/>
      <point x="363.5" y="834" type="curve" smooth="yes"/>
      <point x="384.5" y="821"/>
      <point x="405.5" y="808"/>
      <point x="438.5" y="808" type="curve" smooth="yes"/>
      <point x="466.5" y="808"/>
      <point x="488.5" y="830"/>
      <point x="491.5" y="856" type="curve"/>
      <point x="531.5" y="856" type="line"/>
      <point x="516.5" y="801"/>
      <point x="486.5" y="746"/>
      <point x="416.5" y="746" type="curve" smooth="yes"/>
      <point x="389.5" y="746"/>
      <point x="370.5" y="757"/>
      <point x="351.5" y="769" type="curve" smooth="yes"/>
      <point x="331.5" y="781"/>
      <point x="308.5" y="794"/>
      <point x="277.5" y="794" type="curve" smooth="yes"/>
      <point x="249.5" y="794"/>
      <point x="228.5" y="771"/>
      <point x="225.5" y="746" type="curve"/>
    </contour>
  </outline>
</glyph>
<glyph name="Ograve" format="2">
  <advance width="730"/>
  <unicode hex="00D2"/>
  <outline>
    <contour>
      <point x="161" y="883" type="curve" smooth="yes"/>
      <point x="161" y="911"/>
      <point x="179" y="928"/>
      <point x="207" y="928" type="curve" smooth="yes"/>
      <point x="237" y="928"/>
      <point x="247" y="917"/>
      <point x="261" y="901" type="curve" smooth="yes"/>
      <point x="394" y="746" type="line"/>
      <point x="337" y="746" type="line"/>
      <point x="185" y="843" type="line"/>
      <point x="172" y="852"/>
      <point x="161" y="862"/>
    </contour>
    <contour>
      <point x="39" y="337" type="curve" smooth="yes"/>
      <point x="39" y="526"/>
      <point x="176" y="686"/>
      <point x="366" y="686" type="curve" smooth="yes"/>
      <point x="556" y="686"/>
      <point x="693" y="526"/>
      <point x="693" y="337" type="curve" smooth="yes"/>
      <point x="693" y="147"/>
      <point x="556" y="-15"/>
      <point x="366" y="-15" type="curve" smooth="yes"/>
      <point x="176" y="-15"/>
      <point x="39" y="147"/>
    </contour>
    <contour>
      <point x="155" y="337" type="curve" smooth="yes"/>
      <point x="155" y="207"/>
      <point x="214" y="39"/>
      <point x="364" y="39" type="curve" smooth="yes"/>
      <point x="514" y="39"/>
      <point x="576" y="207"/>
      <point x="576" y="337" type="curve" smooth="yes"/>
      <point x="576" y="467"/>
      <point x="518" y="628"/>
      <point x="368" y="628" type="curve" smooth="yes"/>
      <point x="218" y="628"/>
      <point x="155" y="467"/>
    </contour>
  </outline>
</glyph>
<glyph name="Ocircumflex" format="2">
  <advance width="730"/>
  <unicode hex="00D4"/>
  <outline>
    <contour>
      <point x="39" y="337" type="curve" smooth="yes"/>
      <point x="39" y="526"/>
      <point x="176" y="686"/>
      <point x="366" y="686" type="curve" smooth="yes"/>
      <point x="556" y="686"/>
      <point x="693" y="526"/>
      <point x="693" y="337" type="curve" smooth="yes"/>
      <point x="693" y="147"/>
      <point x="556" y="-15"/>
      <point x="366" y="-15" type="curve" smooth="yes"/>
      <point x="176" y="-15"/>
      <point x="39" y="147"/>
    </contour>
    <contour>
      <point x="155" y="337" type="curve" smooth="yes"/>
      <point x="155" y="207"/>
      <point x="214" y="39"/>
      <point x="364" y="39" type="curve" smooth="yes"/>
      <point x="514" y="39"/>
      <point x="576" y="207"/>
      <point x="576" y="337" type="curve" smooth="yes"/>
      <point x="576" y="467"/>
      <point x="518" y="628"/>
      <point x="368" y="628" type="curve" smooth="yes"/>
      <point x="218" y="628"/>
      <point x="155" y="467"/>
    </contour>
    <contour>
      <point x="202" y="746" type="line"/>
      <point x="328" y="915" type="line"/>
      <point x="404" y="915" type="line"/>
      <point x="530" y="746" type="line"/>
      <point x="470" y="746" type="line"/>
      <point x="367" y="845" type="line"/>
      <point x="263" y="746" type="line"/>
    </contour>
  </outline>
</glyph>
<glyph name="Uacute" format="2">
  <advance width="711"/>
  <unicode hex="00DA"/>
  <outline>
    <contour>
      <point x="31" y="628" type="line"/>
      <point x="31" y="671" type="line"/>
      <point x="285" y="671" type="line"/>
      <point x="285" y="628" type="line"/>
      <point x="228" y="624" type="line" smooth="yes"/>
      <point x="216" y="623"/>
      <point x="207" y="614"/>
      <point x="207" y="602" type="curve" smooth="yes"/>
      <point x="207" y="249" type="line" smooth="yes"/>
      <point x="207" y="122"/>
      <point x="248" y="52"/>
      <point x="376" y="52" type="curve" smooth="yes"/>
      <point x="502" y="52"/>
      <point x="547" y="124"/>
      <point x="547" y="249" type="curve" smooth="yes"/>
      <point x="547" y="602" type="line" smooth="yes"/>
      <point x="547" y="614"/>
      <point x="537" y="623"/>
      <point x="525" y="624" type="curve" smooth="yes"/>
      <point x="468" y="628" type="line"/>
      <point x="468" y="671" type="line"/>
      <point x="685" y="671" type="line"/>
      <point x="685" y="628" type="line"/>
      <point x="627" y="624" type="line" smooth="yes"/>
      <point x="615" y="623"/>
      <point x="606" y="614"/>
      <point x="606" y="602" type="curve" smooth="yes"/>
      <point x="606" y="223" type="line" smooth="yes"/>
      <point x="606" y="57"/>
      <point x="515" y="-15"/>
      <point x="349" y="-15" type="curve" smooth="yes"/>
      <point x="187" y="-15"/>
      <point x="105" y="63"/>
      <point x="105" y="223" type="curve" smooth="yes"/>
      <point x="105" y="602" type="line" smooth="yes"/>
      <point x="105" y="614"/>
      <point x="96" y="623"/>
      <point x="84" y="624" type="curve" smooth="yes"/>
    </contour>
    <contour>
      <point x="280" y="746" type="line"/>
      <point x="412" y="901" type="line"/>
      <point x="424" y="916"/>
      <point x="437" y="928"/>
      <point x="465" y="928" type="curve" smooth="yes"/>
      <point x="494.658" y="928"/>
      <point x="512" y="911.588"/>
      <point x="512" y="883" type="curve" smooth="yes"/>
      <point x="512" y="864"/>
      <point x="500.012" y="849.981"/>
      <point x="489" y="843" type="curve" smooth="yes"/>
      <point x="336" y="746" type="line"/>
    </contour>
  </outline>
</glyph>
<glyph name="Thorn" format="2">
  <advance width="578"/>
  <unicode hex="00DE"/>
  <outline>
    <contour>
      <point x="32" y="0" type="line"/>
      <point x="32" y="43" type="line"/>
      <point x="83" y="47" type="line" smooth="yes"/>
      <point x="94" y="48"/>
      <point x="105" y="56"/>
      <point x="105" y="69" type="curve" smooth="yes"/>
      <point x="105" y="600" type="line" smooth="yes"/>
      <point x="105" y="612"/>
      <point x="94" y="620"/>
      <point x="83" y="621" type="curve" smooth="yes"/>
      <point x="32" y="625" type="line"/>
      <point x="32" y="668" type="line"/>
      <point x="287" y="668" type="line"/>
      <point x="287" y="625" type="line"/>
      <point x="229" y="621" type="line" smooth="yes"/>
      <point x="218" y="620"/>
      <point x="207" y="612"/>
      <point x="207" y="600" type="curve" smooth="yes"/>
      <point x="207" y="544" type="line"/>
      <point x="275" y="543" type="line" smooth="yes"/>
      <point x="432" y="541"/>
      <point x="539" y="502"/>
      <point x="539" y="345" type="curve" smooth="yes"/>
      <point x="539" y="200"/>
      <point x="425" y="130"/>
      <point x="278" y="130" type="curve" smooth="yes"/>
      <point x="257" y="130"/>
      <point x="228" y="132"/>
      <point x="207" y="135" type="curve"/>
      <point x="207" y="69" type="line" smooth="yes"/>
      <point x="207" y="56"/>
      <point x="218" y="48"/>
      <point x="229" y="47" type="curve" smooth="yes"/>
      <point x="287" y="43" type="line"/>
      <point x="287" y="0" type="line"/>
    </contour>
    <contour>
      <point x="207" y="187" type="line"/>
      <point x="226" y="184"/>
      <point x="245" y="183"/>
      <point x="265" y="183" type="curve" smooth="yes"/>
      <point x="374" y="183"/>
      <point x="425" y="236"/>
      <point x="425" y="347" type="curve" smooth="yes"/>
      <point x="425" y="458"/>
      <point x="356" y="499"/>
      <point x="254" y="499" type="curve" smooth="yes"/>
      <point x="244" y="499"/>
      <point x="217" y="497"/>
      <point x="207" y="495" type="curve"/>
    </contour>
  </outline>
</glyph>
<glyph name="eacute" format="2">
  <advance width="490"/>
  <unicode hex="00E9"/>
  <outline>
    <contour>
      <point x="34" y="235" type="curve" smooth="yes"/>
      <point x="34" y="386"/>
      <point x="120" y="495"/>
      <point x="269" y="495" type="curve" smooth="yes"/>
      <point x="393" y="495"/>
      <point x="456" y="413"/>
      <point x="456" y="289" type="curve" smooth="yes"/>
      <point x="456" y="261" type="line"/>
      <point x="131" y="261" type="line"/>
      <point x="131" y="139"/>
      <point x="178" y="48"/>
      <point x="297" y="48" type="curve" smooth="yes"/>
      <point x="359" y="48"/>
      <point x="406" y="78"/>
      <point x="455" y="110" type="curve"/>
      <point x="455" y="49" type="line"/>
      <point x="404" y="18"/>
      <point x="344" y="-13"/>
      <point x="265" y="-13" type="curve" smooth="yes"/>
      <point x="119" y="-13"/>
      <point x="34" y="88"/>
    </contour>
    <contour>
      <point x="135" y="305" type="curve"/>
      <point x="355" y="305" type="line"/>
      <point x="355" y="327" type="line" smooth="yes"/>
      <point x="355" y="395"/>
      <point x="325" y="445"/>
      <point x="258" y="445" type="curve" smooth="yes"/>
      <point x="179" y="445"/>
      <point x="140" y="381"/>
    </contour>
    <contour>
      <point x="161" y="555" type="line"/>
      <point x="293" y="710" type="line"/>
      <point x="305" y="725"/>
      <point x="318" y="737"/>
      <point x="346" y="737" type="curve" smooth="yes"/>
      <point x="375.658" y="737"/>
      <point x="393" y="720.588"/>
      <point x="393" y="692" type="curve" smooth="yes"/>
      <point x="393" y="673"/>
      <point x="381.012" y="658.981"/>
      <point x="370" y="652" type="curve" smooth="yes"/>
      <point x="217" y="555" type="line"/>
    </contour>
  </outline>
</glyph>
<glyph name="idieresis" format="2">
  <advance width="303"/>
  <unicode hex="00EF"/>
  <outline>
    <contour>
      <point x="-8" y="610" type="curve" smooth="yes"/>
      <point x="-8" y="641"/>
      <point x="16" y="666"/>
      <point x="47" y="666" type="curve" smooth="yes"/>
      <point x="78" y="666"/>
      <point x="101" y="641"/>
      <point x="101" y="611" type="curve" smooth="yes"/>
      <point x="101" y="580"/>
      <point x="78" y="555"/>
      <point x="47" y="555" type="curve" smooth="yes"/>
      <point x="16" y="555"/>
      <point x="-8" y="579"/>
    </contour>
    <contour>
      <point x="199" y="611" type="curve" smooth="yes"/>
      <point x="199" y="641"/>
      <point x="225" y="666"/>
      <point x="255" y="666" type="curve" smooth="yes"/>
      <point x="285" y="666"/>
      <point x="308" y="642"/>
      <point x="308" y="611" type="curve" smooth="yes"/>
      <point x="308" y="580"/>
      <point x="286" y="555"/>
      <point x="255" y="555" type="curve" smooth="yes"/>
      <point x="223" y="555"/>
      <point x="199" y="579"/>
    </contour>
    <contour>
      <point x="34" y="0" type="line"/>
      <point x="34" y="39" type="line"/>
      <point x="83" y="42" type="line" smooth="yes"/>
      <point x="94.0199" y="42.6747"/>
      <point x="104" y="51"/>
      <point x="104" y="63" type="curve" smooth="yes"/>
      <point x="104" y="411" type="line"/>
      <point x="35" y="411" type="line"/>
      <point x="35" y="444" type="line"/>
      <point x="157" y="482" type="line"/>
      <point x="197" y="482" type="line"/>
      <point x="197" y="63" type="line" smooth="yes"/>
      <point x="197" y="51"/>
      <point x="206.979" y="42.6483"/>
      <point x="218" y="42" type="curve" smooth="yes"/>
      <point x="269" y="39" type="line"/>
      <point x="269" y="0" type="line"/>
    </contour>
  </outline>
</glyph>
<glyph name="eth" format="2">
  <advance width="539"/>
  <unicode hex="00F0"/>
  <outline>
    <contour>
      <point x="34" y="244" type="curve" smooth="yes"/>
      <point x="34" y="391.345"/>
      <point x="128.841" y="494"/>
      <point x="276" y="494" type="curve" smooth="yes"/>
      <point x="301.384" y="494"/>
      <point x="323.81" y="488"/>
      <point x="343" y="480" type="curve"/>
      <point x="319.207" y="516.879"/>
      <point x="291.916" y="554.518"/>
      <point x="266" y="588" type="curve"/>
      <point x="139" y="512" type="line"/>
      <point x="117" y="552" type="line"/>
      <point x="232" y="621" type="line"/>
      <point x="197" y="661" type="line"/>
      <point x="113" y="672" type="line"/>
      <point x="113" y="700" type="line"/>
      <point x="236" y="737" type="line"/>
      <point x="308" y="663" type="line"/>
      <point x="417" y="728" type="line"/>
      <point x="440" y="688" type="line"/>
      <point x="338" y="626" type="line"/>
      <point x="410.308" y="544.793"/>
      <point x="505" y="421.965"/>
      <point x="505" y="271" type="curve" smooth="yes"/>
      <point x="505" y="113.313"/>
      <point x="424.748" y="-11"/>
      <point x="270" y="-11" type="curve" smooth="yes"/>
      <point x="121.482" y="-11"/>
      <point x="34" y="95.641"/>
    </contour>
    <contour>
      <point x="137" y="243" type="curve" smooth="yes"/>
      <point x="137" y="138.798"/>
      <point x="170.213" y="33"/>
      <point x="273" y="33" type="curve" smooth="yes"/>
      <point x="378.116" y="33"/>
      <point x="407" y="144.324"/>
      <point x="407" y="251" type="curve" smooth="yes"/>
      <point x="407" y="327"/>
      <point x="396" y="385"/>
      <point x="368" y="430" type="curve"/>
      <point x="345.882" y="440.507"/>
      <point x="321.995" y="450"/>
      <point x="292" y="450" type="curve" smooth="yes"/>
      <point x="180" y="450"/>
      <point x="137" y="355"/>
    </contour>
  </outline>
</glyph>
<glyph name="divide" format="2">
  <advance width="1000"/>
  <unicode hex="00F7"/>
  <outline>
    <contour>
      <point x="200" y="269" type="line"/>
      <point x="200" y="331" type="line"/>
      <point x="800" y="331" type="line"/>
      <point x="800" y="269" type="line"/>
    </contour>
    <contour>
      <point x="440" y="139" type="curve" smooth="yes"/>
      <point x="440" y="174"/>
      <point x="465" y="199"/>
      <point x="500" y="199" type="curve" smooth="yes"/>
      <point x="535" y="199"/>
      <point x="560" y="174"/>
      <point x="560" y="139" type="curve" smooth="yes"/>
      <point x="560" y="104"/>
      <point x="534" y="80"/>
      <point x="500" y="80" type="curve" smooth="yes"/>
      <point x="465" y="80"/>
      <point x="440" y="104"/>
    </contour>
    <contour>
      <point x="440" y="461" type="curve" smooth="yes"/>
      <point x="440" y="495"/>
      <point x="465" y="521"/>
      <point x="500" y="521" type="curve" smooth="yes"/>
      <point x="534" y="521"/>
      <point x="560" y="495"/>
      <point x="560" y="461" type="curve" smooth="yes"/>
      <point x="560" y="426"/>
      <point x="535" y="401"/>
      <point x="500" y="401" type="curve" smooth="yes"/>
      <point x="465" y="401"/>
      <point x="440" y="426"/>
    </contour>
  </outline>
</glyph>
<glyph name="udieresis" format="2">
  <advance width="568"/>
  <unicode hex="00FC"/>
  <outline>
    <contour>
      <point x="20" y="409" type="line"/>
      <point x="20" y="443" type="line"/>
      <point x="143" y="482" type="line"/>
      <point x="183" y="482" type="line"/>
      <point x="183" y="169" type="line" smooth="yes"/>
      <point x="183" y="98"/>
      <point x="209" y="56"/>
      <point x="280" y="56" type="curve" smooth="yes"/>
      <point x="324" y="56"/>
      <point x="358" y="69"/>
      <point x="389" y="84" type="curve"/>
      <point x="389" y="409" type="line"/>
      <point x="319" y="409" type="line"/>
      <point x="319" y="443" type="line"/>
      <point x="441" y="482" type="line"/>
      <point x="482" y="482" type="line"/>
      <point x="482" y="64" type="line" smooth="yes"/>
      <point x="482" y="52"/>
      <point x="493" y="44"/>
      <point x="504" y="43" type="curve" smooth="yes"/>
      <point x="548" y="39" type="line"/>
      <point x="548" y="0" type="line"/>
      <point x="389" y="0" type="line"/>
      <point x="389" y="56" type="line"/>
      <point x="351" y="27"/>
      <point x="294" y="-12"/>
      <point x="228" y="-12" type="curve" smooth="yes"/>
      <point x="130" y="-12"/>
      <point x="90" y="50"/>
      <point x="90" y="150" type="curve" smooth="yes"/>
      <point x="90" y="409" type="line"/>
    </contour>
    <contour>
      <point x="125.5" y="610" type="curve" smooth="yes"/>
      <point x="125.5" y="641"/>
      <point x="149.5" y="666"/>
      <point x="180.5" y="666" type="curve" smooth="yes"/>
      <point x="211.5" y="666"/>
      <point x="234.5" y="641"/>
      <point x="234.5" y="611" type="curve" smooth="yes"/>
      <point x="234.5" y="580"/>
      <point x="211.5" y="555"/>
      <point x="180.5" y="555" type="curve" smooth="yes"/>
      <point x="149.5" y="555"/>
      <point x="125.5" y="579"/>
    </contour>
    <contour>
      <point x="332.5" y="611" type="curve" smooth="yes"/>
      <point x="332.5" y="641"/>
      <point x="358.5" y="666"/>
      <point x="388.5" y="666" type="curve" smooth="yes"/>
      <point x="418.5" y="666"/>
      <point x="441.5" y="642"/>
      <point x="441.5" y="611" type="curve" smooth="yes"/>
      <point x="441.5" y="580"/>
      <point x="419.5" y="555"/>
      <point x="388.5" y="555" type="curve" smooth="yes"/>
      <point x="356.5" y="555"/>
      <point x="332.5" y="579"/>
    </contour>
  </outline>
</glyph>
<glyph name="ccircumflex" format="2">
  <advance width="465"/>
  <unicode hex="0109"/>
  <outline>
    <contour>
      <point x="34" y="237" type="curve" smooth="yes"/>
      <point x="34" y="390"/>
      <point x="126" y="495"/>
      <point x="275" y="495" type="curve" smooth="yes"/>
      <point x="353" y="495"/>
      <point x="430" y="469"/>
      <point x="430" y="394" type="curve" smooth="yes"/>
      <point x="430" y="358"/>
      <point x="406" y="335"/>
      <point x="371" y="335" type="curve" smooth="yes"/>
      <point x="349" y="335"/>
      <point x="334" y="344"/>
      <point x="321" y="352" type="curve"/>
      <point x="321" y="439" type="line"/>
      <point x="310" y="447"/>
      <point x="295" y="453"/>
      <point x="279" y="453" type="curve" smooth="yes"/>
      <point x="177" y="453"/>
      <point x="136" y="354"/>
      <point x="136" y="250" type="curve" smooth="yes"/>
      <point x="136" y="139"/>
      <point x="190" y="50"/>
      <point x="301" y="50" type="curve" smooth="yes"/>
      <point x="356" y="50"/>
      <point x="394" y="69"/>
      <point x="431" y="93" type="curve"/>
      <point x="431" y="36" type="line"/>
      <point x="385" y="11"/>
      <point x="333" y="-13"/>
      <point x="263" y="-13" type="curve" smooth="yes"/>
      <point x="117" y="-13"/>
      <point x="34" y="91"/>
    </contour>
    <contour>
      <point x="81" y="555" type="line"/>
      <point x="207" y="724" type="line"/>
      <point x="283" y="724" type="line"/>
      <point x="409" y="555" type="line"/>
      <point x="349" y="555" type="line"/>
      <point x="246" y="654" type="line"/>
      <point x="142" y="555" type="line"/>
    </contour>
  </outline>
</glyph>
<glyph name="Dcaron" format="2">
  <advance width="695"/>
  <unicode hex="010E"/>
  <outline>
    <contour>
      <point x="33" y="0" type="line"/>
      <point x="33" y="43" type="line"/>
      <point x="86" y="47" type="line" smooth="yes"/>
      <point x="98" y="48"/>
      <point x="108" y="57"/>
      <point x="108" y="69" type="curve" smooth="yes"/>
      <point x="108" y="602" type="line" smooth="yes"/>
      <point x="108" y="614"/>
      <point x="98" y="623"/>
      <point x="86" y="624" type="curve" smooth="yes"/>
      <point x="33" y="628" type="line"/>
      <point x="33" y="671" type="line"/>
      <point x="291" y="671" type="line" smooth="yes"/>
      <point x="514" y="671"/>
      <point x="657" y="561"/>
      <point x="657" y="337" type="curve" smooth="yes"/>
      <point x="657" y="119"/>
      <point x="529" y="0"/>
      <point x="311" y="0" type="curve" smooth="yes"/>
    </contour>
    <contour>
      <point x="151" y="915" type="line"/>
      <point x="212" y="915" type="line"/>
      <point x="316" y="816" type="line"/>
      <point x="419" y="915" type="line"/>
      <point x="479" y="915" type="line"/>
      <point x="353" y="746" type="line"/>
      <point x="277" y="746" type="line"/>
    </contour>
    <contour>
      <point x="208" y="48" type="line"/>
      <point x="289" y="48" type="line" smooth="yes"/>
      <point x="466" y="48"/>
      <point x="544" y="154"/>
      <point x="544" y="335" type="curve" smooth="yes"/>
      <point x="544" y="519"/>
      <point x="465" y="623"/>
      <point x="284" y="623" type="curve" smooth="yes"/>
      <point x="208" y="623" type="line"/>
    </contour>
  </outline>
</glyph>
<glyph name="dcaron" format="2">
  <advance width="729"/>
  <unicode hex="010F"/>
  <outline>
    <contour>
      <point x="34" y="229" type="curve" smooth="yes"/>
      <point x="34" y="386"/>
      <point x="131" y="495"/>
      <point x="289" y="495" type="curve" smooth="yes"/>
      <point x="322" y="495"/>
      <point x="355" y="489"/>
      <point x="382" y="483" type="curve"/>
      <point x="382" y="666" type="line"/>
      <point x="306" y="666" type="line"/>
      <point x="306" y="699" type="line"/>
      <point x="435" y="738" type="line"/>
      <point x="475" y="738" type="line"/>
      <point x="475" y="63" type="line" smooth="yes"/>
      <point x="475" y="52"/>
      <point x="484" y="44"/>
      <point x="496" y="43" type="curve" smooth="yes"/>
      <point x="539" y="39" type="line"/>
      <point x="539" y="0" type="line"/>
      <point x="382" y="0" type="line"/>
      <point x="382" y="55" type="line"/>
      <point x="342" y="25"/>
      <point x="293" y="-11"/>
      <point x="226" y="-11" type="curve" smooth="yes"/>
      <point x="98" y="-11"/>
      <point x="34" y="101"/>
    </contour>
    <contour>
      <point x="133" y="245" type="curve" smooth="yes"/>
      <point x="133" y="141"/>
      <point x="176" y="56"/>
      <point x="278" y="56" type="curve" smooth="yes"/>
      <point x="321" y="56"/>
      <point x="354" y="75"/>
      <point x="382" y="92" type="curve"/>
      <point x="382" y="432" type="line"/>
      <point x="358" y="440"/>
      <point x="327" y="447"/>
      <point x="296" y="447" type="curve" smooth="yes"/>
      <point x="185" y="447"/>
      <point x="133" y="356"/>
    </contour>
    <contour>
      <point x="549" y="467" type="line"/>
      <point x="592.326" y="507.228"/>
      <point x="628.692" y="549.8"/>
      <point x="631" y="629" type="curve"/>
      <point x="631" y="637" type="line"/>
      <point x="568" y="637" type="line"/>
      <point x="560" y="647"/>
      <point x="553" y="660"/>
      <point x="553" y="677" type="curve" smooth="yes"/>
      <point x="553" y="713"/>
      <point x="575.617" y="738"/>
      <point x="612" y="738" type="curve" smooth="yes"/>
      <point x="665.097" y="738"/>
      <point x="695" y="699.641"/>
      <point x="695" y="645" type="curve" smooth="yes"/>
      <point x="695" y="555.514"/>
      <point x="627.721" y="493.049"/>
      <point x="586" y="459" type="curve"/>
    </contour>
  </outline>
</glyph>
<glyph name="Gbreve" format="2">
  <advance width="694"/>
  <unicode hex="011E"/>
  <outline>
    <contour>
      <point x="39" y="336" type="curve" smooth="yes"/>
      <point x="39" y="557"/>
      <point x="180" y="686"/>
      <point x="401" y="686" type="curve" smooth="yes"/>
      <point x="460.119" y="686"/>
      <point x="511.697" y="677.053"/>
      <point x="597" y="652" type="curve"/>
      <point x="597" y="490" type="line"/>
      <point x="537" y="490" type="line"/>
      <point x="521" y="580" type="line"/>
      <point x="519" y="594"/>
      <point x="511" y="604"/>
      <point x="499" y="609" type="curve"/>
      <point x="488" y="614" type="line" smooth="yes"/>
      <point x="468" y="623"/>
      <point x="429" y="630"/>
      <point x="398" y="630" type="curve" smooth="yes"/>
      <point x="233" y="630"/>
      <point x="153" y="508"/>
      <point x="153" y="341" type="curve" smooth="yes"/>
      <point x="153" y="166"/>
      <point x="237" y="41"/>
      <point x="410" y="41" type="curve" smooth="yes"/>
      <point x="435" y="41"/>
      <point x="484" y="50"/>
      <point x="497" y="57" type="curve"/>
      <point x="497" y="255" type="line" smooth="yes"/>
      <point x="497" y="268"/>
      <point x="489" y="275"/>
      <point x="476" y="276" type="curve" smooth="yes"/>
      <point x="409" y="281" type="line"/>
      <point x="409" y="324" type="line"/>
      <point x="670" y="324" type="line"/>
      <point x="670" y="281" type="line"/>
      <point x="619" y="276" type="line" smooth="yes"/>
      <point x="606" y="275"/>
      <point x="598" y="268"/>
      <point x="598" y="255" type="curve" smooth="yes"/>
      <point x="598" y="25" type="line"/>
      <point x="539" y="3"/>
      <point x="470" y="-15"/>
      <point x="388" y="-15" type="curve" smooth="yes"/>
      <point x="176" y="-15"/>
      <point x="39" y="127"/>
    </contour>
    <contour>
      <point x="213.5" y="895" type="curve"/>
      <point x="252.5" y="895" type="line"/>
      <point x="262.687" y="844.526"/>
      <point x="304.518" y="814"/>
      <point x="363.5" y="814" type="curve" smooth="yes"/>
      <point x="422.043" y="814"/>
      <point x="462.389" y="843.982"/>
      <point x="472.5" y="895" type="curve"/>
      <point x="512.5" y="895" type="line"/>
      <point x="512.5" y="806.797"/>
      <point x="451.295" y="746"/>
      <point x="362.5" y="746" type="curve" smooth="yes"/>
      <point x="273.5" y="746"/>
      <point x="213.5" y="806"/>
    </contour>
  </outline>
</glyph>
<glyph name="gdotaccent" format="2">
  <advance width="524"/>
  <unicode hex="0121"/>
  <outline>
    <contour>
      <point x="31" y="-91" type="curve" smooth="yes"/>
      <point x="31" y="-17"/>
      <point x="77" y="25"/>
      <point x="139" y="35" type="curve"/>
      <point x="125" y="50"/>
      <point x="117" y="63"/>
      <point x="117" y="86" type="curve" smooth="yes"/>
      <point x="117" y="120"/>
      <point x="148" y="156"/>
      <point x="177" y="169" type="curve"/>
      <point x="110" y="185"/>
      <point x="54" y="237"/>
      <point x="54" y="321" type="curve" smooth="yes"/>
      <point x="54" y="434"/>
      <point x="136" y="491"/>
      <point x="244" y="491" type="curve" smooth="yes"/>
      <point x="295" y="491"/>
      <point x="341" y="479"/>
      <point x="370" y="461" type="curve"/>
      <point x="505" y="461" type="line"/>
      <point x="505" y="412" type="line"/>
      <point x="405" y="412" type="line"/>
      <point x="420" y="388"/>
      <point x="432" y="361"/>
      <point x="432" y="322" type="curve" smooth="yes"/>
      <point x="432" y="215"/>
      <point x="349" y="158"/>
      <point x="254" y="158" type="curve" smooth="yes"/>
      <point x="246" y="158"/>
      <point x="232" y="159"/>
      <point x="224" y="160" type="curve"/>
      <point x="211" y="153"/>
      <point x="201" y="137"/>
      <point x="201" y="122" type="curve" smooth="yes"/>
      <point x="201" y="113"/>
      <point x="203" y="104"/>
      <point x="208" y="95" type="curve"/>
      <point x="315" y="88"/>
      <point x="479" y="74"/>
      <point x="479" y="-45" type="curve" smooth="yes"/>
      <point x="479" y="-165"/>
      <point x="343" y="-233"/>
      <point x="219" y="-233" type="curve" smooth="yes"/>
      <point x="119" y="-233"/>
      <point x="31" y="-189"/>
    </contour>
    <contour>
      <point x="123" y="-69" type="curve" smooth="yes"/>
      <point x="123" y="-139"/>
      <point x="182" y="-186"/>
      <point x="254" y="-186" type="curve" smooth="yes"/>
      <point x="329" y="-186"/>
      <point x="396" y="-141"/>
      <point x="396" y="-69" type="curve" smooth="yes"/>
      <point x="396" y="18"/>
      <point x="249" y="24"/>
      <point x="199" y="25" type="curve"/>
      <point x="159" y="10"/>
      <point x="123" y="-17"/>
    </contour>
    <contour>
      <point x="150" y="327" type="curve" smooth="yes"/>
      <point x="150" y="262"/>
      <point x="181" y="206"/>
      <point x="245" y="206" type="curve" smooth="yes"/>
      <point x="309" y="206"/>
      <point x="338" y="264"/>
      <point x="338" y="329" type="curve" smooth="yes"/>
      <point x="338" y="392"/>
      <point x="308" y="451"/>
      <point x="246" y="451" type="curve" smooth="yes"/>
      <point x="179" y="451"/>
      <point x="150" y="396"/>
    </contour>
    <contour>
      <point x="188" y="611" type="curve" smooth="yes"/>
      <point x="188" y="644"/>
      <point x="212" y="668"/>
      <point x="244" y="668" type="curve" smooth="yes"/>
      <point x="276" y="668"/>
      <point x="300" y="644"/>
      <point x="300" y="611" type="curve" smooth="yes"/>
      <point x="300" y="579"/>
      <point x="276" y="555"/>
      <point x="244" y="555" type="curve" smooth="yes"/>
      <point x="212" y="555"/>
      <point x="188" y="579"/>
    </contour>
  </outline>
</glyph>
<glyph name="hbar" format="2">
  <advance width="574"/>
  <unicode hex="0127"/>
  <outline>
    <contour>
      <point x="0" y="526" type="line"/>
      <point x="0" y="576" type="line"/>
      <point x="89" y="576" type="line"/>
      <point x="89" y="666" type="line"/>
      <point x="14" y="666" type="line"/>
      <point x="14" y="699" type="line"/>
      <point x="142" y="738" type="line"/>
      <point x="182" y="738" type="line"/>
      <point x="182" y="576" type="line"/>
      <point x="297" y="576" type="line"/>
      <point x="297" y="526" type="line"/>
      <point x="182" y="526" type="line"/>
      <point x="182" y="433" type="line"/>
      <point x="224.409" y="459.56"/>
      <point x="284.346" y="495"/>
      <point x="347" y="495" type="curve" smooth="yes"/>
      <point x="436" y="495"/>
      <point x="483" y="435"/>
      <point x="483" y="344" type="curve" smooth="yes"/>
      <point x="483" y="65" type="line" smooth="yes"/>
      <point x="483" y="53"/>
      <point x="493.982" y="44.7345"/>
      <point x="505" y="44" type="curve" smooth="yes"/>
      <point x="550" y="41" type="line"/>
      <point x="550" y="2" type="line"/>
      <point x="327" y="2" type="line"/>
      <point x="327" y="41" type="line"/>
      <point x="368" y="44" type="line" smooth="yes"/>
      <point x="379.014" y="44.8059"/>
      <point x="390" y="53"/>
      <point x="390" y="65" type="curve" smooth="yes"/>
      <point x="390" y="323" type="line" smooth="yes"/>
      <point x="390" y="389"/>
      <point x="359" y="422"/>
      <point x="291" y="422" type="curve" smooth="yes"/>
      <point x="248" y="422"/>
      <point x="211" y="409"/>
      <point x="182" y="393" type="curve"/>
      <point x="182" y="65" type="line" smooth="yes"/>
      <point x="182" y="53"/>
      <point x="190.984" y="44.7686"/>
      <point x="202" y="44" type="curve" smooth="yes"/>
      <point x="245" y="41" type="line"/>
      <point x="245" y="2" type="line"/>
      <point x="20" y="2" type="line"/>
      <point x="20" y="41" type="line"/>
      <point x="68" y="44" type="line" smooth="yes"/>
      <point x="79.0195" y="44.6887"/>
      <point x="89" y="53"/>
      <point x="89" y="65" type="curve" smooth="yes"/>
      <point x="89" y="526" type="line"/>
    </contour>
  </outline>
</glyph>
<glyph name="itilde" format="2">
  <advance width="303"/>
  <unicode hex="0129"/>
  <outline>
    <contour>
      <point x="-23" y="555" type="line"/>
      <point x="-8" y="610"/>
      <point x="22" y="665"/>
      <point x="92" y="665" type="curve" smooth="yes"/>
      <point x="119" y="665"/>
      <point x="137" y="654"/>
      <point x="155" y="643" type="curve" smooth="yes"/>
      <point x="176" y="630"/>
      <point x="197" y="617"/>
      <point x="230" y="617" type="curve" smooth="yes"/>
      <point x="258" y="617"/>
      <point x="280" y="639"/>
      <point x="283" y="665" type="curve"/>
      <point x="323" y="665" type="line"/>
      <point x="308" y="610"/>
      <point x="278" y="555"/>
      <point x="208" y="555" type="curve" smooth="yes"/>
      <point x="181" y="555"/>
      <point x="162" y="566"/>
      <point x="143" y="578" type="curve" smooth="yes"/>
      <point x="123" y="590"/>
      <point x="100" y="603"/>
      <point x="69" y="603" type="curve" smooth="yes"/>
      <point x="41" y="603"/>
      <point x="20" y="580"/>
      <point x="17" y="555" type="curve"/>
    </contour>
    <contour>
      <point x="34" y="0" type="line"/>
      <point x="34" y="39" type="line"/>
      <point x="83" y="42" type="line"/>
      <point x="94" y="43"/>
      <point x="104" y="51"/>
      <point x="104" y="63" type="curve" smooth="yes"/>
      <point x="104" y="411" type="line"/>
      <point x="35" y="411" type="line"/>
      <point x="35" y="444" type="line"/>
      <point x="157" y="482" type="line"/>
      <point x="197" y="482" type="line"/>
      <point x="197" y="63" type="line" smooth="yes"/>
      <point x="197" y="51"/>
      <point x="207" y="43"/>
      <point x="218" y="42" type="curve"/>
      <point x="269" y="39" type="line"/>
      <point x="269" y="0" type="line"/>
    </contour>
  </outline>
</glyph>
<glyph name="ibreve" format="2">
  <advance width="303"/>
  <unicode hex="012D"/>
  <outline>
    <contour>
      <point x="0.5" y="704" type="curve"/>
      <point x="39.5" y="704" type="line"/>
      <point x="49.6865" y="653.526"/>
      <point x="91.5176" y="623"/>
      <point x="150.5" y="623" type="curve" smooth="yes"/>
      <point x="209.043" y="623"/>
      <point x="249.389" y="652.982"/>
      <point x="259.5" y="704" type="curve"/>
      <point x="299.5" y="704" type="line"/>
      <point x="299.5" y="615.797"/>
      <point x="238.295" y="555"/>
      <point x="149.5" y="555" type="curve" smooth="yes"/>
      <point x="60.5" y="555"/>
      <point x="0.499999" y="615"/>
    </contour>
    <contour>
      <point x="34" y="0" type="line"/>
      <point x="34" y="39" type="line"/>
      <point x="83" y="42" type="line"/>
      <point x="94" y="43"/>
      <point x="104" y="51"/>
      <point x="104" y="63" type="curve" smooth="yes"/>
      <point x="104" y="411" type="line"/>
      <point x="35" y="411" type="line"/>
      <point x="35" y="444" type="line"/>
      <point x="157" y="482" type="line"/>
      <point x="197" y="482" type="line"/>
      <point x="197" y="63" type="line" smooth="yes"/>
      <point x="197" y="51"/>
      <point x="207" y="43"/>
      <point x="218" y="42" type="curve"/>
      <point x="269" y="39" type="line"/>
      <point x="269" y="0" type="line"/>
    </contour>
  </outline>
</glyph>
<glyph name="Idotaccent" format="2">
  <advance width="330"/>
  <unicode hex="0130"/>
  <outline>
    <contour>
      <point x="33" y="0" type="line"/>
      <point x="33" y="43" type="line"/>
      <point x="93" y="47" type="line" smooth="yes"/>
      <point x="105" y="48"/>
      <point x="114" y="57"/>
      <point x="114" y="69" type="curve" smooth="yes"/>
      <point x="114" y="602" type="line" smooth="yes"/>
      <point x="114" y="614"/>
      <point x="105" y="622"/>
      <point x="93" y="623" type="curve" smooth="yes"/>
      <point x="33" y="627" type="line"/>
      <point x="33" y="671" type="line"/>
      <point x="297" y="671" type="line"/>
      <point x="297" y="627" type="line"/>
      <point x="236" y="623" type="line" smooth="yes"/>
      <point x="225" y="622"/>
      <point x="215" y="613"/>
      <point x="215" y="602" type="curve" smooth="yes"/>
      <point x="215" y="69" type="line" smooth="yes"/>
      <point x="215" y="58"/>
      <point x="225" y="48"/>
      <point x="236" y="47" type="curve" smooth="yes"/>
      <point x="297" y="43" type="line"/>
      <point x="297" y="0" type="line"/>
    </contour>
    <contour>
      <point x="109" y="802" type="curve" smooth="yes"/>
      <point x="109" y="835"/>
      <point x="133" y="859"/>
      <point x="165" y="859" type="curve" smooth="yes"/>
      <point x="197" y="859"/>
      <point x="221" y="835"/>
      <point x="221" y="802" type="curve" smooth="yes"/>
      <point x="221" y="770"/>
      <point x="197" y="746"/>
      <point x="165" y="746" type="curve" smooth="yes"/>
      <point x="133" y="746"/>
      <point x="109" y="770"/>
    </contour>
  </outline>
</glyph>
<glyph name="Kcommaaccent" format="2">
  <advance width="638"/>
  <unicode hex="0136"/>
  <outline>
    <contour>
      <point x="32" y="1" type="line"/>
      <point x="32" y="44" type="line"/>
      <point x="85" y="48" type="line" smooth="yes"/>
      <point x="97" y="49"/>
      <point x="106" y="58"/>
      <point x="106" y="70" type="curve" smooth="yes"/>
      <point x="106" y="603" type="line" smooth="yes"/>
      <point x="106" y="615"/>
      <point x="97" y="624"/>
      <point x="85" y="625" type="curve" smooth="yes"/>
      <point x="32" y="629" type="line"/>
      <point x="32" y="672" type="line"/>
      <point x="286" y="672" type="line"/>
      <point x="286" y="629" type="line"/>
      <point x="229" y="625" type="line" smooth="yes"/>
      <point x="217" y="624"/>
      <point x="207" y="615"/>
      <point x="207" y="603" type="curve" smooth="yes"/>
      <point x="207" y="341" type="line"/>
      <point x="243" y="341" type="line"/>
      <point x="461" y="607" type="line"/>
      <point x="462.537" y="609.152"/>
      <point x="463.355" y="611.584"/>
      <point x="463.355" y="614" type="curve" smooth="yes"/>
      <point x="463.355" y="619.397"/>
      <point x="459.221" y="623.39"/>
      <point x="453" y="624" type="curve" smooth="yes"/>
      <point x="402" y="629" type="line"/>
      <point x="402" y="672" type="line"/>
      <point x="614" y="672" type="line"/>
      <point x="614" y="629" type="line"/>
      <point x="546" y="620" type="line"/>
      <point x="342" y="376" type="line"/>
      <point x="566" y="48" type="line"/>
      <point x="638" y="43" type="line"/>
      <point x="638" y="0" type="line"/>
      <point x="463" y="0" type="line"/>
      <point x="463" y="32" type="line"/>
      <point x="277" y="299" type="line"/>
      <point x="207" y="299" type="line"/>
      <point x="207" y="70" type="line" smooth="yes"/>
      <point x="207" y="58"/>
      <point x="217" y="49"/>
      <point x="229" y="48" type="curve" smooth="yes"/>
      <point x="286" y="44" type="line"/>
      <point x="286" y="1" type="line"/>
    </contour>
    <contour>
      <point x="267.5" y="-107" type="curve" smooth="yes"/>
      <point x="267.5" y="-78"/>
      <point x="292.5" y="-60"/>
      <point x="322.5" y="-60" type="curve" smooth="yes"/>
      <point x="368.5" y="-60"/>
      <point x="393.5" y="-93"/>
      <point x="393.5" y="-142" type="curve" smooth="yes"/>
      <point x="393.5" y="-217.665"/>
      <point x="334.581" y="-256.153"/>
      <point x="269.5" y="-267" type="curve"/>
      <point x="269.5" y="-237" type="line"/>
      <point x="315.5" y="-223"/>
      <point x="341.5" y="-204"/>
      <point x="341.5" y="-144" type="curve"/>
      <point x="282.5" y="-144" type="line"/>
      <point x="274.5" y="-136"/>
      <point x="267.5" y="-123"/>
    </contour>
  </outline>
</glyph>
<glyph name="Lcaron" format="2">
  <advance width="530"/>
  <unicode hex="013D"/>
  <outline>
    <contour>
      <point x="27" y="0" type="line"/>
      <point x="27" y="43" type="line"/>
      <point x="85" y="47" type="line" smooth="yes"/>
      <point x="97" y="48"/>
      <point x="106" y="57"/>
      <point x="106" y="69" type="curve" smooth="yes"/>
      <point x="106" y="602" type="line" smooth="yes"/>
      <point x="106" y="614"/>
      <point x="97" y="623"/>
      <point x="85" y="624" type="curve" smooth="yes"/>
      <point x="27" y="628" type="line"/>
      <point x="27" y="671" type="line"/>
      <point x="282" y="671" type="line"/>
      <point x="282" y="628" type="line"/>
      <point x="229" y="624" type="line" smooth="yes"/>
      <point x="217" y="623"/>
      <point x="207" y="614"/>
      <point x="207" y="602" type="curve" smooth="yes"/>
      <point x="207" y="49" type="line"/>
      <point x="417" y="49" type="line" smooth="yes"/>
      <point x="427" y="49"/>
      <point x="438" y="57"/>
      <point x="439" y="66" type="curve" smooth="yes"/>
      <point x="455" y="186" type="line"/>
      <point x="513" y="186" type="line"/>
      <point x="513" y="0" type="line"/>
    </contour>
    <contour>
      <point x="343" y="415" type="line"/>
      <point x="386.326" y="455.228"/>
      <point x="422.692" y="497.8"/>
      <point x="425" y="577" type="curve"/>
      <point x="425" y="585" type="line"/>
      <point x="362" y="585" type="line"/>
      <point x="354" y="595"/>
      <point x="347" y="608"/>
      <point x="347" y="625" type="curve" smooth="yes"/>
      <point x="347" y="661"/>
      <point x="369.617" y="686"/>
      <point x="406" y="686" type="curve" smooth="yes"/>
      <point x="459.097" y="686"/>
      <point x="489" y="647.641"/>
      <point x="489" y="593" type="curve" smooth="yes"/>
      <point x="489" y="503.514"/>
      <point x="421.721" y="441.049"/>
      <point x="380" y="407" type="curve"/>
    </contour>
  </outline>
</glyph>
<glyph name="Lslash" format="2">
  <advance width="530"/>
  <unicode hex="0141"/>
  <outline>
    <contour>
      <point x="26" y="0" type="line"/>
      <point x="26" y="43" type="line"/>
      <point x="85" y="47" type="line" smooth="yes"/>
      <point x="98" y="48"/>
      <point x="106" y="56"/>
      <point x="106" y="69" type="curve" smooth="yes"/>
      <point x="106" y="286" type="line"/>
      <point x="35" y="238" type="line"/>
      <point x="10" y="279" type="line"/>
      <point x="106" y="345" type="line"/>
      <point x="106" y="602" type="line" smooth="yes"/>
      <point x="106" y="614"/>
      <point x="97" y="622"/>
      <point x="85" y="623" type="curve" smooth="yes"/>
      <point x="26" y="628" type="line"/>
      <point x="26" y="671" type="line"/>
      <point x="288" y="671" type="line"/>
      <point x="288" y="628" type="line"/>
      <point x="229" y="623" type="line" smooth="yes"/>
      <point x="217" y="622"/>
      <point x="207" y="614"/>
      <point x="207" y="602" type="curve" smooth="yes"/>
      <point x="207" y="412" type="line"/>
      <point x="302" y="475" type="line"/>
      <point x="329" y="436" type="line"/>
      <point x="207" y="354" type="line"/>
      <point x="207" y="49" type="line"/>
      <point x="413" y="49" type="line" smooth="yes"/>
      <point x="427" y="49"/>
      <point x="438" y="58"/>
      <point x="439" y="70" type="curve"/>
      <point x="456" y="186" type="line"/>
      <point x="513" y="186" type="line"/>
      <point x="513" y="0" type="line"/>
    </contour>
  </outline>
</glyph>
<glyph name="napostrophe" format="2">
  <advance width="700"/>
  <unicode hex="0149"/>
  <outline>
    <contour>
      <point x="29" y="438" type="line"/>
      <point x="72.3262" y="478.228"/>
      <point x="108.692" y="520.8"/>
      <point x="111" y="600" type="curve"/>
      <point x="111" y="608" type="line"/>
      <point x="48" y="608" type="line"/>
      <point x="40" y="618"/>
      <point x="33" y="631"/>
      <point x="33" y="648" type="curve" smooth="yes"/>
      <point x="33" y="684"/>
      <point x="55.6172" y="709"/>
      <point x="92" y="709" type="curve" smooth="yes"/>
      <point x="145.097" y="709"/>
      <point x="175" y="670.641"/>
      <point x="175" y="616" type="curve" smooth="yes"/>
      <point x="175" y="526.514"/>
      <point x="107.721" y="464.049"/>
      <point x="66" y="430" type="curve"/>
    </contour>
    <contour>
      <point x="155" y="411" type="line"/>
      <point x="155" y="444" type="line"/>
      <point x="277" y="482" type="line"/>
      <point x="318" y="482" type="line"/>
      <point x="318" y="432" type="line"/>
      <point x="389.342" y="476.532"/>
      <point x="435.829" y="494"/>
      <point x="483" y="494" type="curve" smooth="yes"/>
      <point x="568.461" y="494"/>
      <point x="617" y="438.216"/>
      <point x="617" y="340" type="curve" smooth="yes"/>
      <point x="617" y="63" type="line" smooth="yes"/>
      <point x="617" y="51"/>
      <point x="627" y="43"/>
      <point x="638" y="42" type="curve" smooth="yes"/>
      <point x="682" y="39" type="line"/>
      <point x="682" y="0" type="line"/>
      <point x="461" y="0" type="line"/>
      <point x="461" y="39" type="line"/>
      <point x="503" y="42" type="line" smooth="yes"/>
      <point x="514" y="43"/>
      <point x="524" y="51"/>
      <point x="524" y="63" type="curve" smooth="yes"/>
      <point x="524" y="324" type="line" smooth="yes"/>
      <point x="524" y="390.349"/>
      <point x="493.665" y="421"/>
      <point x="428" y="421" type="curve" smooth="yes"/>
      <point x="391.155" y="421"/>
      <point x="354.017" y="411.209"/>
      <point x="318" y="392" type="curve"/>
      <point x="318" y="63" type="line" smooth="yes"/>
      <point x="318" y="51"/>
      <point x="328" y="43"/>
      <point x="339" y="42" type="curve" smooth="yes"/>
      <point x="381" y="39" type="line"/>
      <point x="381" y="0" type="line"/>
      <point x="155" y="0" type="line"/>
      <point x="155" y="39" type="line"/>
      <point x="204" y="42" type="line"/>
      <point x="215" y="43"/>
      <point x="225" y="51"/>
      <point x="225" y="63" type="curve" smooth="yes"/>
      <point x="225" y="411" type="line"/>
    </contour>
  </outline>
</glyph>
<glyph name="Obreve" format="2">
  <advance width="730"/>
  <unicode hex="014E"/>
  <outline>
    <contour>
      <point x="216" y="895" type="curve"/>
      <point x="255" y="895" type="line"/>
      <point x="265.187" y="844.526"/>
      <point x="307.018" y="814"/>
      <point x="366" y="814" type="curve" smooth="yes"/>
      <point x="424.543" y="814"/>
      <point x="464.889" y="843.982"/>
      <point x="475" y="895" type="curve"/>
      <point x="515" y="895" type="line"/>
      <point x="515" y="806.797"/>
      <point x="453.795" y="746"/>
      <point x="365" y="746" type="curve" smooth="yes"/>
      <point x="276" y="746"/>
      <point x="216" y="806"/>
    </contour>
    <contour>
      <point x="39" y="337" type="curve" smooth="yes"/>
      <point x="39" y="526"/>
      <point x="176" y="686"/>
      <point x="366" y="686" type="curve" smooth="yes"/>
      <point x="556" y="686"/>
      <point x="693" y="526"/>
      <point x="693" y="337" type="curve" smooth="yes"/>
      <point x="693" y="147"/>
      <point x="556" y="-15"/>
      <point x="366" y="-15" type="curve" smooth="yes"/>
      <point x="176" y="-15"/>
      <point x="39" y="147"/>
    </contour>
    <contour>
      <point x="155" y="337" type="curve" smooth="yes"/>
      <point x="155" y="207"/>
      <point x="214" y="39"/>
      <point x="364" y="39" type="curve" smooth="yes"/>
      <point x="514" y="39"/>
      <point x="576" y="207"/>
      <point x="576" y="337" type="curve" smooth="yes"/>
      <point x="576" y="467"/>
      <point x="518" y="628"/>
      <point x="368" y="628" type="curve" smooth="yes"/>
      <point x="218" y="628"/>
      <point x="155" y="467"/>
    </contour>
  </outline>
</glyph>
<glyph name="Ohungarumlaut" format="2">
  <advance width="730"/>
  <unicode hex="0150"/>
  <outline>
    <contour>
      <point x="200" y="747" type="line"/>
      <point x="333" y="902" type="line" smooth="yes"/>
      <point x="345" y="916"/>
      <point x="357" y="929"/>
      <point x="386" y="929" type="curve" smooth="yes"/>
      <point x="415" y="929"/>
      <point x="432" y="912"/>
      <point x="432" y="883" type="curve" smooth="yes"/>
      <point x="432" y="863"/>
      <point x="421" y="852"/>
      <point x="408" y="844" type="curve" smooth="yes"/>
      <point x="257" y="747" type="line"/>
    </contour>
    <contour>
      <point x="395" y="746" type="line"/>
      <point x="529" y="901" type="line" smooth="yes"/>
      <point x="543" y="917"/>
      <point x="554" y="929"/>
      <point x="581" y="929" type="curve" smooth="yes"/>
      <point x="610" y="929"/>
      <point x="627" y="912"/>
      <point x="627" y="884" type="curve" smooth="yes"/>
      <point x="627" y="864"/>
      <point x="617" y="851"/>
      <point x="604" y="843" type="curve" smooth="yes"/>
      <point x="452" y="746" type="line"/>
    </contour>
    <contour>
      <point x="39" y="337" type="curve" smooth="yes"/>
      <point x="39" y="526"/>
      <point x="176" y="686"/>
      <point x="366" y="686" type="curve" smooth="yes"/>
      <point x="556" y="686"/>
      <point x="693" y="526"/>
      <point x="693" y="337" type="curve" smooth="yes"/>
      <point x="693" y="147"/>
      <point x="556" y="-15"/>
      <point x="366" y="-15" type="curve" smooth="yes"/>
      <point x="176" y="-15"/>
      <point x="39" y="147"/>
    </contour>
    <contour>
      <point x="155" y="337" type="curve" smooth="yes"/>
      <point x="155" y="207"/>
      <point x="214" y="39"/>
      <point x="364" y="39" type="curve" smooth="yes"/>
      <point x="514" y="39"/>
      <point x="576" y="207"/>
      <point x="576" y="337" type="curve" smooth="yes"/>
      <point x="576" y="467"/>
      <point x="518" y="628"/>
      <point x="368" y="628" type="curve" smooth="yes"/>
      <point x="218" y="628"/>
      <point x="155" y="467"/>
    </contour>
  </outline>
</glyph>
<glyph name="oe" format="2">
  <advance width="819"/>
  <unicode hex="0153"/>
  <outline>
    <contour>
      <point x="34" y="239" type="curve" smooth="yes"/>
      <point x="34" y="384.632"/>
      <point x="117.452" y="492"/>
      <point x="262" y="492" type="curve" smooth="yes"/>
      <point x="346.1" y="492"/>
      <point x="412.536" y="452.018"/>
      <point x="442" y="398" type="curve"/>
      <point x="473" y="450"/>
      <point x="529" y="493"/>
      <point x="609" y="493" type="curve" smooth="yes"/>
      <point x="729" y="493"/>
      <point x="785" y="408"/>
      <point x="785" y="288" type="curve" smooth="yes"/>
      <point x="785" y="278.149"/>
      <point x="784.522" y="269.13"/>
      <point x="784" y="260" type="curve"/>
      <point x="483" y="260" type="line"/>
      <point x="483" y="143.919"/>
      <point x="530.977" y="54"/>
      <point x="647" y="54" type="curve" smooth="yes"/>
      <point x="706.144" y="54"/>
      <point x="750.768" y="84.375"/>
      <point x="785" y="111" type="curve"/>
      <point x="785" y="50" type="line"/>
      <point x="740" y="19"/>
      <point x="688" y="-12"/>
      <point x="614" y="-12" type="curve" smooth="yes"/>
      <point x="526" y="-12"/>
      <point x="472" y="34"/>
      <point x="437" y="87" type="curve"/>
      <point x="399" y="35.4848"/>
      <point x="349" y="-13"/>
      <point x="261" y="-13" type="curve" smooth="yes"/>
      <point x="117.281" y="-13"/>
      <point x="34" y="95.9224"/>
    </contour>
    <contour>
      <point x="138" y="244" type="curve" smooth="yes"/>
      <point x="138" y="146.692"/>
      <point x="168.372" y="34"/>
      <point x="263" y="34" type="curve" smooth="yes"/>
      <point x="358.651" y="34"/>
      <point x="389" y="141.199"/>
      <point x="389" y="238" type="curve" smooth="yes"/>
      <point x="389" y="337.027"/>
      <point x="360.747" y="446"/>
      <point x="264" y="446" type="curve" smooth="yes"/>
      <point x="167.16" y="446"/>
      <point x="138" y="341.948"/>
    </contour>
    <contour>
      <point x="488" y="305" type="curve"/>
      <point x="684" y="305" type="line"/>
      <point x="684" y="328" type="line" smooth="yes"/>
      <point x="684" y="389.982"/>
      <point x="660.415" y="445"/>
      <point x="599" y="445" type="curve" smooth="yes"/>
      <point x="525" y="445"/>
      <point x="495" y="373"/>
    </contour>
  </outline>
</glyph>
<glyph name="racute" format="2">
  <advance width="391"/>
  <unicode hex="0155"/>
  <outline>
    <contour>
      <point x="23" y="411" type="line"/>
      <point x="23" y="444" type="line"/>
      <point x="147" y="482" type="line"/>
      <point x="188" y="482" type="line"/>
      <point x="188" y="395" type="line"/>
      <point x="211.521" y="425.985"/>
      <point x="263.505" y="494"/>
      <point x="320" y="494" type="curve" smooth="yes"/>
      <point x="344" y="494"/>
      <point x="364" y="486"/>
      <point x="381" y="479" type="curve"/>
      <point x="381" y="380" type="line"/>
      <point x="342" y="380" type="line"/>
      <point x="329" y="394"/>
      <point x="314" y="407"/>
      <point x="288" y="407" type="curve" smooth="yes"/>
      <point x="244.826" y="407"/>
      <point x="212.382" y="373.685"/>
      <point x="188" y="345" type="curve"/>
      <point x="188" y="63" type="line" smooth="yes"/>
      <point x="188" y="51"/>
      <point x="197.977" y="42.501"/>
      <point x="209" y="42" type="curve" smooth="yes"/>
      <point x="275" y="39" type="line"/>
      <point x="275" y="0" type="line"/>
      <point x="25" y="0" type="line"/>
      <point x="25" y="38" type="line"/>
      <point x="74" y="42" type="line" smooth="yes"/>
      <point x="85.0078" y="42.8984"/>
      <point x="95" y="51"/>
      <point x="95" y="63" type="curve" smooth="yes"/>
      <point x="95" y="411" type="line"/>
    </contour>
    <contour>
      <point x="174" y="555" type="line"/>
      <point x="306" y="710" type="line"/>
      <point x="318" y="725"/>
      <point x="331" y="737"/>
      <point x="359" y="737" type="curve" smooth="yes"/>
      <point x="388.658" y="737"/>
      <point x="406" y="720.588"/>
      <point x="406" y="692" type="curve" smooth="yes"/>
      <point x="406" y="673"/>
      <point x="394.012" y="658.981"/>
      <point x="383" y="652" type="curve" smooth="yes"/>
      <point x="230" y="555" type="line"/>
    </contour>
  </outline>
</glyph>
<glyph name="Scircumflex" format="2">
  <advance width="520"/>
  <unicode hex="015C"/>
  <outline>
    <contour>
      <point x="40" y="21" type="curve"/>
      <point x="40" y="198" type="line"/>
      <point x="103" y="198" type="line"/>
      <point x="116" y="85" type="line" smooth="yes"/>
      <point x="119.316" y="56.8154"/>
      <point x="166.154" y="38"/>
      <point x="233" y="38" type="curve" smooth="yes"/>
      <point x="324.225" y="38"/>
      <point x="380" y="83.5303"/>
      <point x="380" y="158" type="curve" smooth="yes"/>
      <point x="380" y="212.368"/>
      <point x="346.215" y="255.044"/>
      <point x="285" y="278" type="curve" smooth="yes"/>
      <point x="189" y="314" type="line" smooth="yes"/>
      <point x="96.9014" y="348.208"/>
      <point x="50" y="407.932"/>
      <point x="50" y="491" type="curve" smooth="yes"/>
      <point x="50" y="611.818"/>
      <point x="138.638" y="686"/>
      <point x="283" y="686" type="curve" smooth="yes"/>
      <point x="335.5" y="686"/>
      <point x="379.5" y="678"/>
      <point x="459" y="654" type="curve"/>
      <point x="459" y="498" type="line"/>
      <point x="402" y="498" type="line"/>
      <point x="387" y="594" type="line" smooth="yes"/>
      <point x="383.659" y="615.717"/>
      <point x="337.572" y="633"/>
      <point x="283" y="633" type="curve" smooth="yes"/>
      <point x="204.504" y="633"/>
      <point x="154" y="586.802"/>
      <point x="154" y="515" type="curve" smooth="yes"/>
      <point x="154" y="464.4"/>
      <point x="185" y="428.75"/>
      <point x="254" y="400" type="curve" smooth="yes"/>
      <point x="341" y="363" type="line" smooth="yes"/>
      <point x="444.191" y="318.775"/>
      <point x="483" y="270.947"/>
      <point x="483" y="188" type="curve" smooth="yes"/>
      <point x="483" y="62.4619"/>
      <point x="381.879" y="-15"/>
      <point x="218" y="-15" type="curve" smooth="yes"/>
      <point x="158.132" y="-15"/>
      <point x="110.089" y="-5.2832"/>
    </contour>
    <contour>
      <point x="99" y="746" type="line"/>
      <point x="225" y="915" type="line"/>
      <point x="301" y="915" type="line"/>
      <point x="427" y="746" type="line"/>
      <point x="367" y="746" type="line"/>
      <point x="264" y="845" type="line"/>
      <point x="160" y="746" type="line"/>
    </contour>
  </outline>
</glyph>
<glyph name="tbar" format="2">
  <advance width="339"/>
  <unicode hex="0167"/>
  <outline>
    <contour>
      <point x="27" y="222" type="line"/>
      <point x="27" y="272" type="line"/>
      <point x="91" y="272" type="line"/>
      <point x="91" y="432" type="line"/>
      <point x="27" y="432" type="line"/>
      <point x="27" y="465" type="line"/>
      <point x="95" y="497" type="line"/>
      <point x="140" y="603" type="line"/>
      <point x="184" y="603" type="line"/>
      <point x="184" y="482" type="line"/>
      <point x="325" y="482" type="line"/>
      <point x="325" y="432" type="line"/>
      <point x="184" y="432" type="line"/>
      <point x="184" y="272" type="line"/>
      <point x="325" y="272" type="line"/>
      <point x="325" y="222" type="line"/>
      <point x="184" y="222" type="line"/>
      <point x="184" y="123" type="line" smooth="yes"/>
      <point x="184" y="75.8899"/>
      <point x="186.325" y="44"/>
      <point x="242" y="44" type="curve" smooth="yes"/>
      <point x="278.716" y="44"/>
      <point x="308.459" y="50.8281"/>
      <point x="332" y="61" type="curve"/>
      <point x="332" y="21" type="line"/>
      <point x="296" y="4"/>
      <point x="252" y="-12"/>
      <point x="198" y="-12" type="curve" smooth="yes"/>
      <point x="121" y="-12"/>
      <point x="91" y="22"/>
      <point x="91" y="100" type="curve" smooth="yes"/>
      <point x="91" y="222" type="line"/>
    </contour>
  </outline>
</glyph>
<glyph name="ubreve" format="2">
  <advance width="568"/>
  <unicode hex="016D"/>
  <outline>
    <contour>
      <point x="20" y="409" type="line"/>
      <point x="20" y="443" type="line"/>
      <point x="143" y="482" type="line"/>
      <point x="183" y="482" type="line"/>
      <point x="183" y="169" type="line" smooth="yes"/>
      <point x="183" y="98"/>
      <point x="209" y="56"/>
      <point x="280" y="56" type="curve" smooth="yes"/>
      <point x="324" y="56"/>
      <point x="358" y="69"/>
      <point x="389" y="84" type="curve"/>
      <point x="389" y="409" type="line"/>
      <point x="319" y="409" type="line"/>
      <point x="319" y="443" type="line"/>
      <point x="441" y="482" type="line"/>
      <point x="482" y="482" type="line"/>
      <point x="482" y="64" type="line" smooth="yes"/>
      <point x="482" y="52"/>
      <point x="493" y="44"/>
      <point x="504" y="43" type="curve" smooth="yes"/>
      <point x="548" y="39" type="line"/>
      <point x="548" y="0" type="line"/>
      <point x="389" y="0" type="line"/>
      <point x="389" y="56" type="line"/>
      <point x="351" y="27"/>
      <point x="294" y="-12"/>
      <point x="228" y="-12" type="curve" smooth="yes"/>
      <point x="130" y="-12"/>
      <point x="90" y="50"/>
      <point x="90" y="150" type="curve" smooth="yes"/>
      <point x="90" y="409" type="line"/>
    </contour>
    <contour>
      <point x="134.5" y="704" type="curve"/>
      <point x="173.5" y="704" type="line"/>
      <point x="183.687" y="653.526"/>
      <point x="225.518" y="623"/>
      <point x="284.5" y="623" type="curve" smooth="yes"/>
      <point x="343.043" y="623"/>
      <point x="383.389" y="652.982"/>
      <point x="393.5" y="704" type="curve"/>
      <point x="433.5" y="704" type="line"/>
      <point x="433.5" y="615.797"/>
      <point x="372.295" y="555"/>
      <point x="283.5" y="555" type="curve" smooth="yes"/>
      <point x="194.5" y="555"/>
      <point x="134.5" y="615"/>
    </contour>
  </outline>
</glyph>
<glyph name="uring" format="2">
  <advance width="568"/>
  <unicode hex="016F"/>
  <outline>
    <contour>
      <point x="20" y="409" type="line"/>
      <point x="20" y="443" type="line"/>
      <point x="143" y="482" type="line"/>
      <point x="183" y="482" type="line"/>
      <point x="183" y="169" type="line" smooth="yes"/>
      <point x="183" y="98"/>
      <point x="209" y="56"/>
      <point x="280" y="56" type="curve" smooth="yes"/>
      <point x="324" y="56"/>
      <point x="358" y="69"/>
      <point x="389" y="84" type="curve"/>
      <point x="389" y="409" type="line"/>
      <point x="319" y="409" type="line"/>
      <point x="319" y="443" type="line"/>
      <point x="441" y="482" type="line"/>
      <point x="482" y="482" type="line"/>
      <point x="482" y="64" type="line" smooth="yes"/>
      <point x="482" y="52"/>
      <point x="493" y="44"/>
      <point x="504" y="43" type="curve" smooth="yes"/>
      <point x="548" y="39" type="line"/>
      <point x="548" y="0" type="line"/>
      <point x="389" y="0" type="line"/>
      <point x="389" y="56" type="line"/>
      <point x="351" y="27"/>
      <point x="294" y="-12"/>
      <point x="228" y="-12" type="curve" smooth="yes"/>
      <point x="130" y="-12"/>
      <point x="90" y="50"/>
      <point x="90" y="150" type="curve" smooth="yes"/>
      <point x="90" y="409" type="line"/>
    </contour>
    <contour>
      <point x="191.5" y="673" type="curve" smooth="yes"/>
      <point x="191.5" y="743"/>
      <point x="243.5" y="792"/>
      <point x="313.5" y="792" type="curve" smooth="yes"/>
      <point x="383.5" y="792"/>
      <point x="433.5" y="743"/>
      <point x="433.5" y="673" type="curve" smooth="yes"/>
      <point x="433.5" y="603"/>
      <point x="382.5" y="555"/>
      <point x="312.5" y="555" type="curve" smooth="yes"/>
      <point x="242.5" y="555"/>
      <point x="191.5" y="603"/>
    </contour>
    <contour>
      <point x="244.5" y="673" type="curve" smooth="yes"/>
      <point x="244.5" y="633"/>
      <point x="272.5" y="604"/>
      <point x="312.5" y="604" type="curve" smooth="yes"/>
      <point x="352.5" y="604"/>
      <point x="380.5" y="633"/>
      <point x="380.5" y="673" type="curve" smooth="yes"/>
      <point x="380.5" y="713"/>
      <point x="352.5" y="744"/>
      <point x="312.5" y="744" type="curve" smooth="yes"/>
      <point x="272.5" y="744"/>
      <point x="244.5" y="713"/>
    </contour>
  </outline>
</glyph>
<glyph name="wcircumflex" format="2">
  <advance width="783"/>
  <unicode hex="0175"/>
  <outline>
    <contour>
      <point x="10" y="442" type="line"/>
      <point x="10" y="481" type="line"/>
      <point x="229" y="481" type="line"/>
      <point x="229" y="442" type="line"/>
      <point x="182" y="439" type="line"/>
      <point x="173.45" y="438.145"/>
      <point x="166.361" y="431.441"/>
      <point x="166.361" y="422.639" type="curve"/>
      <point x="166.361" y="421.147"/>
      <point x="166.565" y="419.595"/>
      <point x="167" y="418" type="curve"/>
      <point x="250" y="107" type="line"/>
      <point x="379" y="482" type="line"/>
      <point x="450" y="482" type="line"/>
      <point x="566" y="107" type="line"/>
      <point x="658" y="418" type="line"/>
      <point x="658.476" y="419.906"/>
      <point x="658.701" y="421.736"/>
      <point x="658.701" y="423.471" type="curve"/>
      <point x="658.701" y="432.657"/>
      <point x="652.412" y="439.159"/>
      <point x="644" y="440" type="curve"/>
      <point x="598" y="443" type="line"/>
      <point x="598" y="482" type="line"/>
      <point x="773" y="482" type="line"/>
      <point x="773" y="443" type="line"/>
      <point x="722" y="437" type="line"/>
      <point x="585" y="-1" type="line"/>
      <point x="514" y="-1" type="line"/>
      <point x="396" y="373" type="line"/>
      <point x="264" y="-1" type="line"/>
      <point x="193" y="-1" type="line"/>
      <point x="65" y="436" type="line"/>
    </contour>
    <contour>
      <point x="412" y="555" type="line"/>
      <point x="538" y="724" type="line"/>
      <point x="614" y="724" type="line"/>
      <point x="740" y="555" type="line"/>
      <point x="680" y="555" type="line"/>
      <point x="577" y="654" type="line"/>
      <point x="473" y="555" type="line"/>
    </contour>
  </outline>
</glyph>
<glyph name="longs" format="2">
  <advance width="326"/>
  <unicode hex="017F"/>
  <outline>
    <contour>
      <point x="30" y="-1" type="line"/>
      <point x="30" y="38" type="line"/>
      <point x="79" y="41" type="line"/>
      <point x="90" y="42"/>
      <point x="100" y="50"/>
      <point x="100" y="62" type="curve" smooth="yes"/>
      <point x="100" y="474" type="line" smooth="yes"/>
      <point x="100" y="563"/>
      <point x="126" y="626"/>
      <point x="168" y="673" type="curve" smooth="yes"/>
      <point x="199" y="707"/>
      <point x="243" y="735"/>
      <point x="304" y="735" type="curve" smooth="yes"/>
      <point x="355.922" y="735"/>
      <point x="391" y="711.211"/>
      <point x="391" y="676" type="curve" smooth="yes"/>
      <point x="391" y="649.607"/>
      <point x="375.971" y="632.291"/>
      <point x="345" y="623" type="curve"/>
      <point x="252" y="688" type="line"/>
      <point x="208" y="664"/>
      <point x="193" y="608"/>
      <point x="193" y="538" type="curve" smooth="yes"/>
      <point x="193" y="63" type="line" smooth="yes"/>
      <point x="193" y="51"/>
      <point x="202" y="41"/>
      <point x="214" y="41" type="curve"/>
      <point x="273" y="38" type="line"/>
      <point x="273" y="-1" type="line"/>
    </contour>
    <contour>
      <point x="30" y="432" type="line"/>
      <point x="30" y="482" type="line"/>
      <point x="171" y="482" type="line"/>
      <point x="171" y="432" type="line"/>
    </contour>
  </outline>
</glyph>
<glyph name="uni0185" format="2">
  <advance width="555"/>
  <unicode hex="0185"/>
  <outline>
    <contour>
      <point x="14" y="586" type="line"/>
      <point x="182" y="756" type="line"/>
      <point x="182" y="457" type="line"/>
      <point x="220" y="474"/>
      <point x="265" y="494"/>
      <point x="320" y="494" type="curve" smooth="yes"/>
      <point x="452.003" y="494"/>
      <point x="520" y="395.741"/>
      <point x="520" y="264" type="curve" smooth="yes"/>
      <point x="520" y="87.9242"/>
      <point x="411.702" y="0"/>
      <point x="234" y="0" type="curve" smooth="yes"/>
      <point x="90" y="0" type="line"/>
      <point x="90" y="519" type="line"/>
    </contour>
    <contour>
      <point x="182" y="48" type="line"/>
      <point x="196.698" y="47"/>
      <point x="214.754" y="47"/>
      <point x="231" y="47" type="curve" smooth="yes"/>
      <point x="362" y="47"/>
      <point x="418" y="112"/>
      <point x="418" y="244" type="curve" smooth="yes"/>
      <point x="418" y="357"/>
      <point x="371" y="435"/>
      <point x="265" y="435" type="curve" smooth="yes"/>
      <point x="235" y="435"/>
      <point x="206" y="427"/>
      <point x="182" y="419" type="curve"/>
    </contour>
  </outline>
</glyph>
<glyph name="uni0187" format="2">
  <advance width="626"/>
  <unicode hex="0187"/>
  <outline>
    <contour>
      <point x="39" y="336" type="curve" smooth="yes"/>
      <point x="39" y="548.239"/>
      <point x="176.701" y="687"/>
      <point x="389" y="687" type="curve" smooth="yes"/>
      <point x="436.596" y="687"/>
      <point x="469.755" y="680.061"/>
      <point x="510" y="670" type="curve"/>
      <point x="518" y="771"/>
      <point x="566" y="843"/>
      <point x="675" y="843" type="curve" smooth="yes"/>
      <point x="721.722" y="843"/>
      <point x="770" y="826.837"/>
      <point x="770" y="781" type="curve" smooth="yes"/>
      <point x="770" y="749"/>
      <point x="751" y="732"/>
      <point x="727" y="725" type="curve"/>
      <point x="636" y="794" type="line"/>
      <point x="601" y="782"/>
      <point x="593" y="757"/>
      <point x="592" y="710" type="curve"/>
      <point x="592" y="490" type="line"/>
      <point x="532" y="490" type="line"/>
      <point x="517" y="581" type="line" smooth="yes"/>
      <point x="514.353" y="597.058"/>
      <point x="498" y="605"/>
      <point x="484" y="611" type="curve" smooth="yes"/>
      <point x="460.566" y="621.043"/>
      <point x="432" y="631"/>
      <point x="397" y="631" type="curve" smooth="yes"/>
      <point x="233.14" y="631"/>
      <point x="156" y="503.321"/>
      <point x="156" y="337" type="curve" smooth="yes"/>
      <point x="156" y="163.129"/>
      <point x="236.9" y="38"/>
      <point x="408" y="38" type="curve" smooth="yes"/>
      <point x="436" y="38"/>
      <point x="462.468" y="44.1531"/>
      <point x="481" y="52" type="curve" smooth="yes"/>
      <point x="494.06" y="57.5298"/>
      <point x="502.622" y="61.8669"/>
      <point x="507" y="75" type="curve"/>
      <point x="530" y="184" type="line"/>
      <point x="588" y="184" type="line"/>
      <point x="588" y="22" type="line"/>
      <point x="542" y="-2"/>
      <point x="458.358" y="-17"/>
      <point x="388" y="-17" type="curve" smooth="yes"/>
      <point x="175.983" y="-17"/>
      <point x="39" y="126.57"/>
    </contour>
  </outline>
</glyph>
<glyph name="uni0188" format="2">
  <advance width="476"/>
  <unicode hex="0188"/>
  <outline>
    <contour>
      <point x="34" y="237" type="curve" smooth="yes"/>
      <point x="34" y="389.619"/>
      <point x="125.718" y="494"/>
      <point x="275" y="494" type="curve" smooth="yes"/>
      <point x="300.629" y="494"/>
      <point x="325.271" y="490"/>
      <point x="344" y="484" type="curve"/>
      <point x="360" y="543"/>
      <point x="405" y="586"/>
      <point x="480" y="586" type="curve" smooth="yes"/>
      <point x="516.684" y="586"/>
      <point x="559" y="571.821"/>
      <point x="559" y="537" type="curve" smooth="yes"/>
      <point x="559" y="513"/>
      <point x="543" y="498"/>
      <point x="524" y="492" type="curve"/>
      <point x="452" y="546" type="line"/>
      <point x="421" y="534"/>
      <point x="416" y="498"/>
      <point x="416" y="445" type="curve"/>
      <point x="427" y="431"/>
      <point x="430" y="416"/>
      <point x="430" y="392" type="curve" smooth="yes"/>
      <point x="430" y="356"/>
      <point x="406" y="334"/>
      <point x="371" y="334" type="curve" smooth="yes"/>
      <point x="349" y="334"/>
      <point x="334" y="342"/>
      <point x="321" y="350" type="curve"/>
      <point x="321" y="438" type="line"/>
      <point x="310" y="445"/>
      <point x="295" y="451"/>
      <point x="279" y="451" type="curve" smooth="yes"/>
      <point x="177.122" y="451"/>
      <point x="136" y="352.206"/>
      <point x="136" y="249" type="curve" smooth="yes"/>
      <point x="136" y="136.307"/>
      <point x="189.587" y="50"/>
      <point x="302" y="50" type="curve" smooth="yes"/>
      <point x="357" y="50"/>
      <point x="395" y="73"/>
      <point x="432" y="97" type="curve"/>
      <point x="432" y="40" type="line"/>
      <point x="385" y="13"/>
      <point x="334" y="-13"/>
      <point x="263" y="-13" type="curve" smooth="yes"/>
      <point x="117.049" y="-13"/>
      <point x="34" y="91.1333"/>
    </contour>
  </outline>
</glyph>
<glyph name="uni0190" format="2">
  <advance width="559"/>
  <unicode hex="0190"/>
  <outline>
    <contour>
      <point x="39" y="189" type="curve" smooth="yes"/>
      <point x="39" y="295.821"/>
      <point x="124.667" y="346.907"/>
      <point x="227" y="351" type="curve"/>
      <point x="150.092" y="372.974"/>
      <point x="79" y="417.404"/>
      <point x="79" y="512" type="curve" smooth="yes"/>
      <point x="79" y="629.38"/>
      <point x="176.611" y="685"/>
      <point x="295" y="685" type="curve" smooth="yes"/>
      <point x="405.279" y="685"/>
      <point x="513" y="656.853"/>
      <point x="513" y="551" type="curve" smooth="yes"/>
      <point x="513" y="516"/>
      <point x="486" y="491"/>
      <point x="452" y="491" type="curve" smooth="yes"/>
      <point x="436.5" y="491"/>
      <point x="416.857" y="498.143"/>
      <point x="408" y="507" type="curve"/>
      <point x="408" y="602" type="line"/>
      <point x="382.149" y="619.925"/>
      <point x="359.412" y="634"/>
      <point x="317" y="634" type="curve" smooth="yes"/>
      <point x="238.681" y="634"/>
      <point x="189" y="580.997"/>
      <point x="189" y="502" type="curve" smooth="yes"/>
      <point x="189" y="416"/>
      <point x="243" y="373"/>
      <point x="332" y="373" type="curve" smooth="yes"/>
      <point x="345.581" y="373"/>
      <point x="351.336" y="373.213"/>
      <point x="359" y="374" type="curve"/>
      <point x="359" y="315" type="line"/>
      <point x="345.824" y="316.882"/>
      <point x="325.333" y="318"/>
      <point x="304" y="318" type="curve" smooth="yes"/>
      <point x="215" y="318"/>
      <point x="149" y="280"/>
      <point x="149" y="190" type="curve" smooth="yes"/>
      <point x="149" y="91.6724"/>
      <point x="218.732" y="34"/>
      <point x="318" y="34" type="curve" smooth="yes"/>
      <point x="355" y="34"/>
      <point x="376" y="47"/>
      <point x="400" y="62" type="curve"/>
      <point x="434" y="154" type="line"/>
      <point x="442" y="158"/>
      <point x="455" y="160"/>
      <point x="467" y="160" type="curve" smooth="yes"/>
      <point x="501" y="160"/>
      <point x="525" y="136.8"/>
      <point x="525" y="102" type="curve" smooth="yes"/>
      <point x="525" y="16.646"/>
      <point x="397.039" y="-19"/>
      <point x="305" y="-19" type="curve" smooth="yes"/>
      <point x="150" y="-19"/>
      <point x="39" y="37"/>
    </contour>
  </outline>
</glyph>
<glyph name="uni0196" format="2">
  <advance width="410"/>
  <unicode hex="0196"/>
  <outline>
    <contour>
      <point x="28" y="628" type="line"/>
      <point x="28" y="671" type="line"/>
      <point x="218" y="671" type="line"/>
      <point x="218" y="136" type="line" smooth="yes"/>
      <point x="218" y="86.652"/>
      <point x="237.82" y="64"/>
      <point x="281" y="64" type="curve" smooth="yes"/>
      <point x="316.837" y="64"/>
      <point x="336.791" y="82.3568"/>
      <point x="356" y="133" type="curve"/>
      <point x="410" y="133" type="line"/>
      <point x="384.617" y="44.159"/>
      <point x="316.787" y="-16"/>
      <point x="242" y="-16" type="curve" smooth="yes"/>
      <point x="151.792" y="-16"/>
      <point x="112" y="31.1385"/>
      <point x="112" y="138" type="curve" smooth="yes"/>
      <point x="112" y="602" type="line" smooth="yes"/>
      <point x="112" y="614"/>
      <point x="103.004" y="622.047"/>
      <point x="91" y="623" type="curve" smooth="yes"/>
    </contour>
  </outline>
</glyph>
<glyph name="uni0198" format="2">
  <advance width="638"/>
  <unicode hex="0198"/>
  <outline>
    <contour>
      <point x="31" y="0" type="line"/>
      <point x="31" y="43" type="line"/>
      <point x="84" y="47" type="line" smooth="yes"/>
      <point x="96.0071" y="47.9062"/>
      <point x="105" y="57"/>
      <point x="105" y="69" type="curve" smooth="yes"/>
      <point x="105" y="602" type="line" smooth="yes"/>
      <point x="105" y="614"/>
      <point x="96.0071" y="623.094"/>
      <point x="84" y="624" type="curve" smooth="yes"/>
      <point x="31" y="628" type="line"/>
      <point x="31" y="671" type="line"/>
      <point x="284" y="671" type="line"/>
      <point x="284" y="628" type="line"/>
      <point x="227" y="624" type="line" smooth="yes"/>
      <point x="214.989" y="623.157"/>
      <point x="206" y="614"/>
      <point x="206" y="602" type="curve" smooth="yes"/>
      <point x="206" y="340" type="line"/>
      <point x="242" y="340" type="line"/>
      <point x="446" y="588" type="line" smooth="yes"/>
      <point x="505.68" y="660.552"/>
      <point x="549.493" y="687"/>
      <point x="610" y="687" type="curve" smooth="yes"/>
      <point x="659.566" y="687"/>
      <point x="697" y="657.311"/>
      <point x="697" y="618" type="curve" smooth="yes"/>
      <point x="697" y="592.543"/>
      <point x="680.614" y="573.767"/>
      <point x="649" y="563" type="curve"/>
      <point x="558" y="629" type="line"/>
      <point x="545.465" y="622.732"/>
      <point x="530.558" y="608.434"/>
      <point x="509" y="582" type="curve" smooth="yes"/>
      <point x="341" y="376" type="line"/>
      <point x="564" y="48" type="line"/>
      <point x="637" y="43" type="line"/>
      <point x="637" y="0" type="line"/>
      <point x="461" y="0" type="line"/>
      <point x="461" y="31" type="line"/>
      <point x="276" y="298" type="line"/>
      <point x="206" y="298" type="line"/>
      <point x="206" y="69" type="line" smooth="yes"/>
      <point x="206" y="57"/>
      <point x="214.989" y="47.8429"/>
      <point x="227" y="47" type="curve" smooth="yes"/>
      <point x="284" y="43" type="line"/>
      <point x="284" y="0" type="line"/>
    </contour>
  </outline>
</glyph>
<glyph name="uni019F" format="2">
  <advance width="722"/>
  <unicode hex="019F"/>
  <outline>
    <contour>
      <point x="37" y="332" type="curve" smooth="yes"/>
      <point x="37" y="532.14"/>
      <point x="169.65" y="676"/>
      <point x="368" y="676" type="curve" smooth="yes"/>
      <point x="558.49" y="676"/>
      <point x="684" y="525.437"/>
      <point x="684" y="334" type="curve" smooth="yes"/>
      <point x="684" y="131.931"/>
      <point x="560.994" y="-17"/>
      <point x="360" y="-17" type="curve" smooth="yes"/>
      <point x="162.808" y="-17"/>
      <point x="37" y="132.711"/>
    </contour>
    <contour>
      <point x="100" y="292" type="line"/>
      <point x="100" y="370" type="line"/>
      <point x="626" y="370" type="line"/>
      <point x="626" y="292" type="line"/>
    </contour>
    <contour>
      <point x="148" y="336" type="curve" smooth="yes"/>
      <point x="148" y="174.574"/>
      <point x="200.731" y="19"/>
      <point x="358" y="19" type="curve" smooth="yes"/>
      <point x="514.688" y="19"/>
      <point x="574" y="158.828"/>
      <point x="574" y="321" type="curve" smooth="yes"/>
      <point x="574" y="492.634"/>
      <point x="525.886" y="642"/>
      <point x="357" y="642" type="curve" smooth="yes"/>
      <point x="200.886" y="642"/>
      <point x="148" y="495.754"/>
    </contour>
  </outline>
</glyph>
<glyph name="uni01A5" format="2">
  <advance width="559"/>
  <unicode hex="01A5"/>
  <outline>
    <contour>
      <point x="21" y="-178" type="line"/>
      <point x="69" y="-172" type="line" smooth="yes"/>
      <point x="79.9538" y="-170.631"/>
      <point x="90" y="-164"/>
      <point x="90" y="-152" type="curve" smooth="yes"/>
      <point x="90" y="521" type="line" smooth="yes"/>
      <point x="90" y="646.183"/>
      <point x="178.715" y="737"/>
      <point x="301" y="737" type="curve" smooth="yes"/>
      <point x="422.577" y="737"/>
      <point x="476" y="707.389"/>
      <point x="476" y="640" type="curve" smooth="yes"/>
      <point x="476" y="607.714"/>
      <point x="453.887" y="583"/>
      <point x="425" y="583" type="curve" smooth="yes"/>
      <point x="410.391" y="583"/>
      <point x="402.069" y="584.387"/>
      <point x="395" y="588" type="curve"/>
      <point x="361" y="672" type="line"/>
      <point x="350.974" y="681.191"/>
      <point x="331.393" y="686"/>
      <point x="304" y="686" type="curve" smooth="yes"/>
      <point x="230.466" y="686"/>
      <point x="183" y="621.274"/>
      <point x="183" y="521" type="curve" smooth="yes"/>
      <point x="183" y="432" type="line"/>
      <point x="232.688" y="472.487"/>
      <point x="283.131" y="493"/>
      <point x="333" y="493" type="curve" smooth="yes"/>
      <point x="444.904" y="493"/>
      <point x="523" y="391.887"/>
      <point x="523" y="247" type="curve" smooth="yes"/>
      <point x="523" y="85.2157"/>
      <point x="428.412" y="-12"/>
      <point x="271" y="-12" type="curve" smooth="yes"/>
      <point x="239.167" y="-12"/>
      <point x="208.337" y="-8.8469"/>
      <point x="183" y="-3" type="curve"/>
      <point x="183" y="-152" type="line" smooth="yes"/>
      <point x="183" y="-164"/>
      <point x="194.012" y="-170.883"/>
      <point x="205" y="-172" type="curve" smooth="yes"/>
      <point x="264" y="-178" type="line"/>
      <point x="264" y="-217" type="line"/>
      <point x="21" y="-217" type="line"/>
    </contour>
    <contour>
      <point x="183" y="50" type="line"/>
      <point x="215.93" y="38.6857"/>
      <point x="239.944" y="34"/>
      <point x="265" y="34" type="curve" smooth="yes"/>
      <point x="363.979" y="34"/>
      <point x="424" y="109.499"/>
      <point x="424" y="234" type="curve" smooth="yes"/>
      <point x="424" y="351.424"/>
      <point x="370.905" y="424"/>
      <point x="285" y="424" type="curve" smooth="yes"/>
      <point x="251.485" y="424"/>
      <point x="215.226" y="413.335"/>
      <point x="183" y="394" type="curve"/>
    </contour>
  </outline>
</glyph>
<glyph name="uni01A6" format="2">
  <advance width="617"/>
  <unicode hex="01A6"/>
  <outline>
    <contour>
      <point x="30" y="-1" type="line"/>
      <point x="30" y="42" type="line"/>
      <point x="90" y="46" type="line" smooth="yes"/>
      <point x="102" y="47"/>
      <point x="111" y="56"/>
      <point x="111" y="68" type="curve" smooth="yes"/>
      <point x="111" y="601" type="line" smooth="yes"/>
      <point x="111" y="613"/>
      <point x="102" y="621"/>
      <point x="90" y="622" type="curve" smooth="yes"/>
      <point x="30" y="626" type="line"/>
      <point x="30" y="670" type="line"/>
      <point x="294" y="670" type="line"/>
      <point x="294" y="626" type="line"/>
      <point x="233" y="622" type="line" smooth="yes"/>
      <point x="221" y="621"/>
      <point x="213" y="614"/>
      <point x="212" y="601" type="curve"/>
      <point x="212" y="579" type="line"/>
      <point x="275" y="579" type="line" smooth="yes"/>
      <point x="402" y="579"/>
      <point x="516" y="566"/>
      <point x="516" y="442" type="curve" smooth="yes"/>
      <point x="516" y="349.126"/>
      <point x="449.304" y="293"/>
      <point x="358" y="293" type="curve"/>
      <point x="424" y="278"/>
      <point x="456" y="222"/>
      <point x="482" y="166" type="curve" smooth="yes"/>
      <point x="488.492" y="151.458"/>
      <point x="494.512" y="136.107"/>
      <point x="500.568" y="120.664" type="curve" smooth="yes"/>
      <point x="517.832" y="76.6394"/>
      <point x="535.387" y="31.8726"/>
      <point x="565" y="3" type="curve" smooth="yes"/>
      <point x="576" y="-8"/>
      <point x="589" y="-13"/>
      <point x="604" y="-13" type="curve" smooth="yes"/>
      <point x="615.529" y="-13"/>
      <point x="628.251" y="-12.7499"/>
      <point x="637" y="-11" type="curve"/>
      <point x="637" y="-55" type="line"/>
      <point x="614.891" y="-64.5273"/>
      <point x="594.745" y="-71"/>
      <point x="563" y="-71" type="curve" smooth="yes"/>
      <point x="511" y="-71"/>
      <point x="481" y="-46"/>
      <point x="457" y="-14" type="curve" smooth="yes"/>
      <point x="433.292" y="17.4264"/>
      <point x="414.313" y="57.832"/>
      <point x="397.338" y="99.3311" type="curve" smooth="yes"/>
      <point x="383.672" y="132.74"/>
      <point x="367.946" y="166.286"/>
      <point x="350" y="195" type="curve" smooth="yes"/>
      <point x="324.583" y="234.941"/>
      <point x="287.862" y="286"/>
      <point x="228" y="286" type="curve" smooth="yes"/>
      <point x="212" y="286" type="line"/>
      <point x="212" y="68" type="line" smooth="yes"/>
      <point x="212" y="57"/>
      <point x="222" y="47"/>
      <point x="233" y="46" type="curve" smooth="yes"/>
      <point x="294" y="42" type="line"/>
      <point x="294" y="-1" type="line"/>
    </contour>
    <contour>
      <point x="212" y="338" type="line"/>
      <point x="227.094" y="336"/>
      <point x="243.132" y="336"/>
      <point x="262" y="336" type="curve" smooth="yes"/>
      <point x="341" y="336"/>
      <point x="401" y="365"/>
      <point x="401" y="442" type="curve" smooth="yes"/>
      <point x="401" y="511"/>
      <point x="336" y="531"/>
      <point x="257" y="531" type="curve" smooth="yes"/>
      <point x="212" y="531" type="line"/>
    </contour>
  </outline>
</glyph>
<glyph name="uni01AA" format="2">
  <advance width="511"/>
  <unicode hex="01AA"/>
  <outline>
    <contour>
      <point x="35" y="502" type="curve" smooth="yes"/>
      <point x="35" y="614.412"/>
      <point x="110.598" y="688"/>
      <point x="223" y="688" type="curve" smooth="yes"/>
      <point x="336.507" y="688"/>
      <point x="412" y="614.098"/>
      <point x="412" y="502" type="curve" smooth="yes"/>
      <point x="412" y="-21" type="line" smooth="yes"/>
      <point x="412" y="-93"/>
      <point x="428" y="-163"/>
      <point x="461" y="-182" type="curve"/>
      <point x="542" y="-102" type="line"/>
      <point x="577" y="-102"/>
      <point x="597" y="-131"/>
      <point x="597" y="-166" type="curve" smooth="yes"/>
      <point x="597" y="-209"/>
      <point x="553" y="-229"/>
      <point x="509" y="-229" type="curve" smooth="yes"/>
      <point x="384.368" y="-229"/>
      <point x="319" y="-144.897"/>
      <point x="319" y="-21" type="curve" smooth="yes"/>
      <point x="319" y="341" type="line"/>
      <point x="292" y="327"/>
      <point x="261" y="317"/>
      <point x="222" y="317" type="curve" smooth="yes"/>
      <point x="107.991" y="317"/>
      <point x="35" y="389.1"/>
    </contour>
    <contour>
      <point x="127" y="502" type="curve" smooth="yes"/>
      <point x="127" y="430.413"/>
      <point x="151.852" y="358"/>
      <point x="222" y="358" type="curve" smooth="yes"/>
      <point x="295" y="358"/>
      <point x="319" y="428"/>
      <point x="319" y="502" type="curve" smooth="yes"/>
      <point x="319" y="575.341"/>
      <point x="295.077" y="647"/>
      <point x="223" y="647" type="curve" smooth="yes"/>
      <point x="149" y="647"/>
      <point x="127" y="576"/>
    </contour>
  </outline>
</glyph>
<glyph name="uni01B1" format="2">
  <advance width="683"/>
  <unicode hex="01B1"/>
  <outline>
    <contour>
      <point x="39" y="310" type="curve" smooth="yes"/>
      <point x="39" y="406.994"/>
      <point x="77.0178" y="514.648"/>
      <point x="140" y="596" type="curve"/>
      <point x="142.341" y="599.512"/>
      <point x="143.647" y="603.45"/>
      <point x="143.647" y="607" type="curve" smooth="yes"/>
      <point x="143.647" y="613.359"/>
      <point x="140.06" y="617.449"/>
      <point x="134" y="618" type="curve" smooth="yes"/>
      <point x="64" y="624" type="line"/>
      <point x="64" y="669" type="line"/>
      <point x="239" y="669" type="line"/>
      <point x="174.211" y="530.713"/>
      <point x="153" y="449.57"/>
      <point x="153" y="340" type="curve" smooth="yes"/>
      <point x="153" y="152.875"/>
      <point x="222.55" y="43"/>
      <point x="341" y="43" type="curve" smooth="yes"/>
      <point x="459.295" y="43"/>
      <point x="529" y="153.86"/>
      <point x="529" y="342" type="curve" smooth="yes"/>
      <point x="529" y="457.618"/>
      <point x="508.481" y="536.114"/>
      <point x="443" y="671" type="curve"/>
      <point x="619" y="671" type="line"/>
      <point x="619" y="626" type="line"/>
      <point x="548" y="620" type="line" smooth="yes"/>
      <point x="542.307" y="619.431"/>
      <point x="538.629" y="615.113"/>
      <point x="538.629" y="609" type="curve" smooth="yes"/>
      <point x="538.629" y="605.163"/>
      <point x="539.824" y="601.264"/>
      <point x="542" y="598" type="curve"/>
      <point x="605.232" y="517.38"/>
      <point x="644" y="408.676"/>
      <point x="644" y="312" type="curve" smooth="yes"/>
      <point x="644" y="114.116"/>
      <point x="522.694" y="-18"/>
      <point x="341" y="-18" type="curve" smooth="yes"/>
      <point x="159.861" y="-18"/>
      <point x="39" y="113.266"/>
    </contour>
  </outline>
</glyph>
<glyph name="uni01B3" format="2">
  <advance width="666"/>
  <unicode hex="01B3"/>
  <outline>
    <contour>
      <point x="-10" y="562" type="curve" smooth="yes"/>
      <point x="-10" y="643"/>
      <point x="43" y="686"/>
      <point x="123" y="686" type="curve" smooth="yes"/>
      <point x="201.948" y="686"/>
      <point x="235.473" y="657.611"/>
      <point x="261" y="603" type="curve" smooth="yes"/>
      <point x="383" y="342" type="line"/>
      <point x="518" y="600" type="line" smooth="yes"/>
      <point x="519.288" y="602.462"/>
      <point x="519.75" y="604.816"/>
      <point x="519.75" y="607" type="curve" smooth="yes"/>
      <point x="519.75" y="614.66"/>
      <point x="512.225" y="620.222"/>
      <point x="506" y="621" type="curve" smooth="yes"/>
      <point x="450" y="628" type="line"/>
      <point x="450" y="671" type="line"/>
      <point x="653" y="671" type="line"/>
      <point x="653" y="628" type="line"/>
      <point x="599" y="618" type="line"/>
      <point x="417" y="285" type="line"/>
      <point x="417" y="69" type="line" smooth="yes"/>
      <point x="417" y="58"/>
      <point x="426.981" y="47.6887"/>
      <point x="438" y="47" type="curve" smooth="yes"/>
      <point x="502" y="43" type="line"/>
      <point x="502" y="0" type="line"/>
      <point x="232" y="0" type="line"/>
      <point x="232" y="43" type="line"/>
      <point x="294" y="47" type="line" smooth="yes"/>
      <point x="306.015" y="47.7751"/>
      <point x="316" y="57"/>
      <point x="316" y="69" type="curve" smooth="yes"/>
      <point x="316" y="270" type="line"/>
      <point x="152" y="598" type="line" smooth="yes"/>
      <point x="145.115" y="611.77"/>
      <point x="133.355" y="624"/>
      <point x="118" y="624" type="curve" smooth="yes"/>
      <point x="92" y="624"/>
      <point x="80" y="616"/>
      <point x="69" y="600" type="curve"/>
      <point x="111" y="529" type="line"/>
      <point x="95" y="511"/>
      <point x="76" y="499"/>
      <point x="47" y="499" type="curve" smooth="yes"/>
      <point x="13.8364" y="499"/>
      <point x="-10" y="530.5"/>
    </contour>
  </outline>
</glyph>
<glyph name="uni01B7" format="2">
  <advance width="610"/>
  <unicode hex="01B7"/>
  <outline>
    <contour>
      <point x="22" y="-85" type="curve" smooth="yes"/>
      <point x="22" y="-43"/>
      <point x="47" y="-10"/>
      <point x="90" y="-10" type="curve" smooth="yes"/>
      <point x="102" y="-10"/>
      <point x="120" y="-15"/>
      <point x="128" y="-20" type="curve"/>
      <point x="164" y="-138" type="line"/>
      <point x="191" y="-157"/>
      <point x="221" y="-173"/>
      <point x="261" y="-173" type="curve" smooth="yes"/>
      <point x="373.629" y="-173"/>
      <point x="458" y="-58.7554"/>
      <point x="458" y="55" type="curve" smooth="yes"/>
      <point x="458" y="164.186"/>
      <point x="375.94" y="250"/>
      <point x="270" y="250" type="curve" smooth="yes"/>
      <point x="249" y="250"/>
      <point x="235" y="245"/>
      <point x="226" y="236" type="curve"/>
      <point x="195" y="271" type="line"/>
      <point x="440" y="576" type="line"/>
      <point x="156" y="576" type="line" smooth="yes"/>
      <point x="144" y="576"/>
      <point x="134.281" y="561.412"/>
      <point x="133" y="550" type="curve" smooth="yes"/>
      <point x="122" y="452" type="line"/>
      <point x="65" y="452" type="line"/>
      <point x="65" y="672" type="line"/>
      <point x="541" y="672" type="line"/>
      <point x="541" y="600" type="line"/>
      <point x="304" y="301" type="line"/>
      <point x="447.673" y="301"/>
      <point x="572" y="197.475"/>
      <point x="572" y="54" type="curve" smooth="yes"/>
      <point x="572" y="-114.99"/>
      <point x="426.585" y="-229"/>
      <point x="259" y="-229" type="curve" smooth="yes"/>
      <point x="150.861" y="-229"/>
      <point x="22" y="-185.627"/>
    </contour>
  </outline>
</glyph>
<glyph name="uni01B9" format="2">
  <advance width="528"/>
  <unicode hex="01B9"/>
  <outline>
    <contour>
      <point x="31" y="-17" type="curve" smooth="yes"/>
      <point x="31" y="100.815"/>
      <point x="130.781" y="197"/>
      <point x="253" y="197" type="curve"/>
      <point x="59" y="414" type="line"/>
      <point x="59" y="481" type="line"/>
      <point x="461" y="481" type="line"/>
      <point x="461" y="298" type="line"/>
      <point x="409" y="298" type="line"/>
      <point x="399" y="374" type="line" smooth="yes"/>
      <point x="397.73" y="385.43"/>
      <point x="389.071" y="395"/>
      <point x="380" y="395" type="curve" smooth="yes"/>
      <point x="147" y="395" type="line"/>
      <point x="347" y="175" type="line"/>
      <point x="320" y="147" type="line"/>
      <point x="310.165" y="154.65"/>
      <point x="298.591" y="158"/>
      <point x="282" y="158" type="curve" smooth="yes"/>
      <point x="201.866" y="158"/>
      <point x="135" y="82.9466"/>
      <point x="135" y="-7" type="curve" smooth="yes"/>
      <point x="135" y="-104.568"/>
      <point x="203.628" y="-183"/>
      <point x="289" y="-183" type="curve" smooth="yes"/>
      <point x="316.86" y="-183"/>
      <point x="342.73" y="-175.48"/>
      <point x="375" y="-158" type="curve"/>
      <point x="406" y="-65" type="line"/>
      <point x="411.857" y="-61.0952"/>
      <point x="428.75" y="-57"/>
      <point x="439" y="-57" type="curve" smooth="yes"/>
      <point x="474.297" y="-57"/>
      <point x="499" y="-81.2917"/>
      <point x="499" y="-116" type="curve" smooth="yes"/>
      <point x="499" y="-180.679"/>
      <point x="410.483" y="-229"/>
      <point x="292" y="-229" type="curve" smooth="yes"/>
      <point x="140.56" y="-229"/>
      <point x="31" y="-140.009"/>
    </contour>
  </outline>
</glyph>
<glyph name="uni01BB" format="2">
  <advance width="562"/>
  <unicode hex="01BB"/>
  <outline>
    <contour>
      <point x="45" y="0" type="line"/>
      <point x="45" y="67" type="line"/>
      <point x="277.905" y="210.437"/>
      <point x="395" y="349.278"/>
      <point x="395" y="482" type="curve" smooth="yes"/>
      <point x="395" y="572.757"/>
      <point x="338.348" y="633"/>
      <point x="253" y="633" type="curve" smooth="yes"/>
      <point x="224.846" y="633"/>
      <point x="194.955" y="623.636"/>
      <point x="170" y="607" type="curve"/>
      <point x="170" y="496" type="line"/>
      <point x="158.859" y="484.859"/>
      <point x="137.763" y="477"/>
      <point x="119" y="477" type="curve" smooth="yes"/>
      <point x="82.1865" y="477"/>
      <point x="59" y="499.8"/>
      <point x="59" y="536" type="curve" smooth="yes"/>
      <point x="59" y="620.758"/>
      <point x="153.854" y="685"/>
      <point x="279" y="685" type="curve" smooth="yes"/>
      <point x="413.268" y="685"/>
      <point x="502" y="607.807"/>
      <point x="502" y="491" type="curve" smooth="yes"/>
      <point x="502" y="364.443"/>
      <point x="382.309" y="225.655"/>
      <point x="151" y="84" type="curve"/>
      <point x="447" y="84" type="line"/>
      <point x="465" y="170" type="line"/>
      <point x="514" y="170" type="line"/>
      <point x="514" y="0" type="line"/>
    </contour>
    <contour>
      <point x="69" y="274" type="line"/>
      <point x="69" y="324" type="line"/>
      <point x="546" y="324" type="line"/>
      <point x="546" y="274" type="line"/>
    </contour>
  </outline>
</glyph>
<glyph name="uni01BF" format="2">
  <advance width="529"/>
  <unicode hex="01BF"/>
  <outline>
    <contour>
      <point x="21" y="-178" type="line"/>
      <point x="69" y="-172" type="line"/>
      <point x="80" y="-171"/>
      <point x="90" y="-164"/>
      <point x="90" y="-152" type="curve" smooth="yes"/>
      <point x="90" y="411" type="line"/>
      <point x="21" y="411" type="line"/>
      <point x="21" y="444" type="line"/>
      <point x="144" y="482" type="line"/>
      <point x="183" y="482" type="line"/>
      <point x="183" y="408" type="line"/>
      <point x="219.931" y="444.931"/>
      <point x="274.07" y="494"/>
      <point x="344" y="494" type="curve" smooth="yes"/>
      <point x="450" y="494"/>
      <point x="496" y="423"/>
      <point x="496" y="318" type="curve" smooth="yes"/>
      <point x="496" y="111.668"/>
      <point x="314.792" y="-5.8914"/>
      <point x="183" y="-86" type="curve"/>
      <point x="183" y="-152" type="line" smooth="yes"/>
      <point x="183" y="-164"/>
      <point x="194" y="-171"/>
      <point x="205" y="-172" type="curve" smooth="yes"/>
      <point x="264" y="-178" type="line"/>
      <point x="264" y="-217" type="line"/>
      <point x="21" y="-217" type="line"/>
    </contour>
    <contour>
      <point x="183" y="-33" type="line"/>
      <point x="291.748" y="42.0512"/>
      <point x="397" y="135.409"/>
      <point x="397" y="290" type="curve" smooth="yes"/>
      <point x="397" y="375"/>
      <point x="382" y="424"/>
      <point x="296" y="424" type="curve" smooth="yes"/>
      <point x="246.853" y="424"/>
      <point x="208.479" y="383.977"/>
      <point x="183" y="355" type="curve"/>
    </contour>
  </outline>
</glyph>
<glyph name="uni01C1" format="2">
  <advance width="348"/>
  <unicode hex="01C1"/>
  <outline>
    <contour>
      <point x="85" y="-215" type="line"/>
      <point x="85" y="736" type="line"/>
      <point x="136" y="736" type="line"/>
      <point x="136" y="-215" type="line"/>
    </contour>
    <contour>
      <point x="212" y="-215" type="line"/>
      <point x="212" y="736" type="line"/>
      <point x="263" y="736" type="line"/>
      <point x="263" y="-215" type="line"/>
    </contour>
  </outline>
</glyph>
<glyph name="uni01C3" format="2">
  <advance width="230"/>
  <unicode hex="01C3"/>
  <outline>
    <contour>
      <point x="54" y="50" type="curve" smooth="yes"/>
      <point x="54" y="86"/>
      <point x="79" y="111"/>
      <point x="115" y="111" type="curve" smooth="yes"/>
      <point x="150" y="111"/>
      <point x="177" y="85"/>
      <point x="177" y="50" type="curve" smooth="yes"/>
      <point x="177" y="15"/>
      <point x="150" y="-12"/>
      <point x="115" y="-12" type="curve" smooth="yes"/>
      <point x="80" y="-12"/>
      <point x="54" y="15"/>
    </contour>
    <contour>
      <point x="54" y="622" type="line"/>
      <point x="54.9408" y="664.026"/>
      <point x="76.1478" y="687"/>
      <point x="114" y="687" type="curve" smooth="yes"/>
      <point x="154.238" y="687"/>
      <point x="175" y="664.877"/>
      <point x="175" y="622" type="curve"/>
      <point x="140" y="180" type="line"/>
      <point x="91" y="180" type="line"/>
    </contour>
  </outline>
</glyph>
<glyph name="uni01DC" format="2">
  <advance width="568"/>
  <unicode hex="01DC"/>
  <outline>
    <contour>
      <point x="20" y="409" type="line"/>
      <point x="20" y="443" type="line"/>
      <point x="143" y="482" type="line"/>
      <point x="183" y="482" type="line"/>
      <point x="183" y="169" type="line" smooth="yes"/>
      <point x="183" y="98"/>
      <point x="209" y="56"/>
      <point x="280" y="56" type="curve" smooth="yes"/>
      <point x="324" y="56"/>
      <point x="358" y="69"/>
      <point x="389" y="84" type="curve"/>
      <point x="389" y="409" type="line"/>
      <point x="319" y="409" type="line"/>
      <point x="319" y="443" type="line"/>
      <point x="441" y="482" type="line"/>
      <point x="482" y="482" type="line"/>
      <point x="482" y="64" type="line" smooth="yes"/>
      <point x="482" y="52"/>
      <point x="493" y="44"/>
      <point x="504" y="43" type="curve" smooth="yes"/>
      <point x="548" y="39" type="line"/>
      <point x="548" y="0" type="line"/>
      <point x="389" y="0" type="line"/>
      <point x="389" y="56" type="line"/>
      <point x="351" y="27"/>
      <point x="294" y="-12"/>
      <point x="228" y="-12" type="curve" smooth="yes"/>
      <point x="130" y="-12"/>
      <point x="90" y="50"/>
      <point x="90" y="150" type="curve" smooth="yes"/>
      <point x="90" y="409" type="line"/>
    </contour>
    <contour>
      <point x="125.5" y="610" type="curve" smooth="yes"/>
      <point x="125.5" y="641"/>
      <point x="149.5" y="666"/>
      <point x="180.5" y="666" type="curve" smooth="yes"/>
      <point x="211.5" y="666"/>
      <point x="234.5" y="641"/>
      <point x="234.5" y="611" type="curve" smooth="yes"/>
      <point x="234.5" y="580"/>
      <point x="211.5" y="555"/>
      <point x="180.5" y="555" type="curve" smooth="yes"/>
      <point x="149.5" y="555"/>
      <point x="125.5" y="579"/>
    </contour>
    <contour>
      <point x="332.5" y="611" type="curve" smooth="yes"/>
      <point x="332.5" y="641"/>
      <point x="358.5" y="666"/>
      <point x="388.5" y="666" type="curve" smooth="yes"/>
      <point x="418.5" y="666"/>
      <point x="441.5" y="642"/>
      <point x="441.5" y="611" type="curve" smooth="yes"/>
      <point x="441.5" y="580"/>
      <point x="419.5" y="555"/>
      <point x="388.5" y="555" type="curve" smooth="yes"/>
      <point x="356.5" y="555"/>
      <point x="332.5" y="579"/>
    </contour>
    <contour>
      <point x="80" y="863" type="curve" smooth="yes"/>
      <point x="80" y="891"/>
      <point x="98" y="908"/>
      <point x="126" y="908" type="curve" smooth="yes"/>
      <point x="156" y="908"/>
      <point x="166" y="897"/>
      <point x="180" y="881" type="curve" smooth="yes"/>
      <point x="313" y="726" type="line"/>
      <point x="256" y="726" type="line"/>
      <point x="104" y="823" type="line"/>
      <point x="91" y="832"/>
      <point x="80" y="842"/>
    </contour>
  </outline>
</glyph>
<glyph name="uni01EC" format="2">
  <advance width="730"/>
  <unicode hex="01EC"/>
  <outline>
    <contour>
      <point x="39" y="337" type="curve" smooth="yes"/>
      <point x="39" y="526"/>
      <point x="176" y="686"/>
      <point x="366" y="686" type="curve" smooth="yes"/>
      <point x="556" y="686"/>
      <point x="693" y="526"/>
      <point x="693" y="337" type="curve" smooth="yes"/>
      <point x="693" y="147"/>
      <point x="556" y="-15"/>
      <point x="366" y="-15" type="curve" smooth="yes"/>
      <point x="176" y="-15"/>
      <point x="39" y="147"/>
    </contour>
    <contour>
      <point x="155" y="337" type="curve" smooth="yes"/>
      <point x="155" y="207"/>
      <point x="214" y="39"/>
      <point x="364" y="39" type="curve" smooth="yes"/>
      <point x="514" y="39"/>
      <point x="576" y="207"/>
      <point x="576" y="337" type="curve" smooth="yes"/>
      <point x="576" y="467"/>
      <point x="518" y="628"/>
      <point x="368" y="628" type="curve" smooth="yes"/>
      <point x="218" y="628"/>
      <point x="155" y="467"/>
    </contour>
    <contour>
      <point x="272.5" y="-119.566" type="curve" smooth="yes"/>
      <point x="272.5" y="-67.5664"/>
      <point x="308.5" y="-28.5664"/>
      <point x="342.5" y="-8.5664" type="curve"/>
      <point x="389.5" y="-8.5664" type="line"/>
      <point x="363.5" y="-25.5664"/>
      <point x="335.5" y="-56.5664"/>
      <point x="335.5" y="-98.5664" type="curve" smooth="yes"/>
      <point x="335.5" y="-135.566"/>
      <point x="353.5" y="-151.566"/>
      <point x="385.5" y="-151.566" type="curve" smooth="yes"/>
      <point x="406.5" y="-151.566"/>
      <point x="422.5" y="-142.566"/>
      <point x="435.5" y="-134.566" type="curve"/>
      <point x="458.5" y="-173.566" type="line"/>
      <point x="432.5" y="-192.566"/>
      <point x="402.5" y="-201.566"/>
      <point x="367.5" y="-201.566" type="curve" smooth="yes"/>
      <point x="314.5" y="-201.566"/>
      <point x="272.5" y="-176.566"/>
    </contour>
    <contour>
      <point x="198.5" y="746" type="line"/>
      <point x="198.5" y="809" type="line"/>
      <point x="533.5" y="809" type="line"/>
      <point x="533.5" y="746" type="line"/>
    </contour>
  </outline>
</glyph>
<glyph name="uni01ED" format="2">
  <advance width="543"/>
  <unicode hex="01ED"/>
  <outline>
    <contour>
      <point x="180.5" y="-117.566" type="curve" smooth="yes"/>
      <point x="180.5" y="-65.5664"/>
      <point x="216.5" y="-26.5664"/>
      <point x="250.5" y="-6.5664" type="curve"/>
      <point x="297.5" y="-6.5664" type="line"/>
      <point x="271.5" y="-23.5664"/>
      <point x="243.5" y="-54.5664"/>
      <point x="243.5" y="-96.5664" type="curve" smooth="yes"/>
      <point x="243.5" y="-133.566"/>
      <point x="261.5" y="-149.566"/>
      <point x="293.5" y="-149.566" type="curve" smooth="yes"/>
      <point x="314.5" y="-149.566"/>
      <point x="330.5" y="-140.566"/>
      <point x="343.5" y="-132.566" type="curve"/>
      <point x="366.5" y="-171.566" type="line"/>
      <point x="340.5" y="-190.566"/>
      <point x="310.5" y="-199.566"/>
      <point x="275.5" y="-199.566" type="curve" smooth="yes"/>
      <point x="222.5" y="-199.566"/>
      <point x="180.5" y="-174.566"/>
    </contour>
    <contour>
      <point x="34" y="240" type="curve" smooth="yes"/>
      <point x="34" y="381"/>
      <point x="133" y="495"/>
      <point x="273" y="495" type="curve" smooth="yes"/>
      <point x="413" y="495"/>
      <point x="509" y="381"/>
      <point x="509" y="240" type="curve" smooth="yes"/>
      <point x="509" y="100"/>
      <point x="410" y="-13"/>
      <point x="270" y="-13" type="curve" smooth="yes"/>
      <point x="130" y="-13"/>
      <point x="34" y="100"/>
    </contour>
    <contour>
      <point x="138" y="240" type="curve" smooth="yes"/>
      <point x="138" y="150"/>
      <point x="172" y="34"/>
      <point x="272" y="34" type="curve" smooth="yes"/>
      <point x="372" y="34"/>
      <point x="406" y="150"/>
      <point x="406" y="240" type="curve" smooth="yes"/>
      <point x="406" y="330"/>
      <point x="373" y="450"/>
      <point x="273" y="450" type="curve" smooth="yes"/>
      <point x="173" y="450"/>
      <point x="138" y="330"/>
    </contour>
    <contour>
      <point x="105.5" y="555" type="line"/>
      <point x="105.5" y="618" type="line"/>
      <point x="440.5" y="618" type="line"/>
      <point x="440.5" y="555" type="line"/>
    </contour>
  </outline>
</glyph>
<glyph name="uni0200" format="2">
  <advance width="673"/>
  <unicode hex="0200"/>
  <outline>
    <contour>
      <point x="5" y="0" type="line"/>
      <point x="5" y="43" type="line"/>
      <point x="63" y="56" type="line"/>
      <point x="296" y="688" type="line"/>
      <point x="371" y="688" type="line"/>
      <point x="603" y="71" type="line" smooth="yes"/>
      <point x="608.231" y="57.0869"/>
      <point x="611.054" y="53.3018"/>
      <point x="624" y="51" type="curve" smooth="yes"/>
      <point x="669" y="43" type="line"/>
      <point x="669" y="0" type="line"/>
      <point x="431" y="0" type="line"/>
      <point x="431" y="43" type="line"/>
      <point x="489" y="49" type="line" smooth="yes"/>
      <point x="496.712" y="49.7979"/>
      <point x="500" y="54.1426"/>
      <point x="500" y="61" type="curve"/>
      <point x="500" y="62.667"/>
      <point x="499.396" y="64.9492"/>
      <point x="499" y="66" type="curve"/>
      <point x="430" y="249" type="line"/>
      <point x="199" y="249" type="line"/>
      <point x="133" y="69" type="line"/>
      <point x="132.631" y="67.9922"/>
      <point x="132" y="65"/>
      <point x="132" y="63" type="curve"/>
      <point x="132" y="53.9414"/>
      <point x="138.009" y="49.9141"/>
      <point x="147" y="49" type="curve" smooth="yes"/>
      <point x="206" y="43" type="line"/>
      <point x="206" y="0" type="line"/>
    </contour>
    <contour>
      <point x="33" y="885" type="curve" smooth="yes"/>
      <point x="33" y="913.5"/>
      <point x="49.5" y="930"/>
      <point x="78" y="930" type="curve" smooth="yes"/>
      <point x="102.815" y="930"/>
      <point x="116.16" y="923.449"/>
      <point x="133" y="903" type="curve" smooth="yes"/>
      <point x="266" y="748" type="line"/>
      <point x="208" y="748" type="line"/>
      <point x="57" y="845" type="line" smooth="yes"/>
      <point x="40.9883" y="854.854"/>
      <point x="33" y="868.167"/>
    </contour>
    <contour>
      <point x="217" y="296" type="line"/>
      <point x="412" y="296" type="line"/>
      <point x="314" y="558" type="line"/>
    </contour>
    <contour>
      <point x="227" y="885" type="curve" smooth="yes"/>
      <point x="227" y="913.396"/>
      <point x="245.37" y="931"/>
      <point x="275" y="931" type="curve" smooth="yes"/>
      <point x="297.907" y="931"/>
      <point x="310.284" y="924.574"/>
      <point x="327" y="904" type="curve" smooth="yes"/>
      <point x="459" y="749" type="line"/>
      <point x="404" y="749" type="line"/>
      <point x="252" y="846" type="line" smooth="yes"/>
      <point x="234.914" y="856.515"/>
      <point x="227" y="868.86"/>
    </contour>
  </outline>
</glyph>
<glyph name="uni0202" format="2">
  <advance width="673"/>
  <unicode hex="0202"/>
  <outline>
    <contour>
      <point x="5" y="0" type="line"/>
      <point x="5" y="43" type="line"/>
      <point x="63" y="56" type="line"/>
      <point x="296" y="688" type="line"/>
      <point x="371" y="688" type="line"/>
      <point x="603" y="71" type="line" smooth="yes"/>
      <point x="608.231" y="57.0869"/>
      <point x="611.054" y="53.3018"/>
      <point x="624" y="51" type="curve" smooth="yes"/>
      <point x="669" y="43" type="line"/>
      <point x="669" y="0" type="line"/>
      <point x="431" y="0" type="line"/>
      <point x="431" y="43" type="line"/>
      <point x="489" y="49" type="line" smooth="yes"/>
      <point x="496.712" y="49.7979"/>
      <point x="500" y="54.1426"/>
      <point x="500" y="61" type="curve"/>
      <point x="500" y="62.667"/>
      <point x="499.396" y="64.9492"/>
      <point x="499" y="66" type="curve"/>
      <point x="430" y="249" type="line"/>
      <point x="199" y="249" type="line"/>
      <point x="133" y="69" type="line"/>
      <point x="132.631" y="67.9922"/>
      <point x="132" y="65"/>
      <point x="132" y="63" type="curve"/>
      <point x="132" y="53.9414"/>
      <point x="138.009" y="49.9141"/>
      <point x="147" y="49" type="curve" smooth="yes"/>
      <point x="206" y="43" type="line"/>
      <point x="206" y="0" type="line"/>
    </contour>
    <contour>
      <point x="185" y="748" type="line"/>
      <point x="185" y="833.626"/>
      <point x="247.104" y="897"/>
      <point x="334" y="897" type="curve" smooth="yes"/>
      <point x="422.726" y="897"/>
      <point x="482" y="835.049"/>
      <point x="482" y="748" type="curve"/>
      <point x="443" y="748" type="line"/>
      <point x="431" y="798.617"/>
      <point x="394" y="830"/>
      <point x="333" y="830" type="curve" smooth="yes"/>
      <point x="273.109" y="830"/>
      <point x="236.782" y="798.617"/>
      <point x="225" y="748" type="curve"/>
    </contour>
    <contour>
      <point x="217" y="296" type="line"/>
      <point x="412" y="296" type="line"/>
      <point x="314" y="558" type="line"/>
    </contour>
  </outline>
</glyph>
<glyph name="uni0204" format="2">
  <advance width="583"/>
  <unicode hex="0204"/>
  <outline>
    <contour>
      <point x="-25.5" y="883" type="curve" smooth="yes"/>
      <point x="-25.5" y="911.5"/>
      <point x="-9" y="928"/>
      <point x="19.5" y="928" type="curve" smooth="yes"/>
      <point x="44.3154" y="928"/>
      <point x="57.6602" y="921.449"/>
      <point x="74.5" y="901" type="curve" smooth="yes"/>
      <point x="207.5" y="746" type="line"/>
      <point x="149.5" y="746" type="line"/>
      <point x="-1.5" y="843" type="line" smooth="yes"/>
      <point x="-17.5117" y="852.854"/>
      <point x="-25.5" y="866.167"/>
    </contour>
    <contour>
      <point x="32" y="0" type="line"/>
      <point x="32" y="43" type="line"/>
      <point x="84" y="47" type="line" smooth="yes"/>
      <point x="96" y="48"/>
      <point x="106" y="57"/>
      <point x="106" y="69" type="curve" smooth="yes"/>
      <point x="106" y="602" type="line" smooth="yes"/>
      <point x="106" y="614"/>
      <point x="96" y="623"/>
      <point x="84" y="624" type="curve" smooth="yes"/>
      <point x="32" y="628" type="line"/>
      <point x="32" y="671" type="line"/>
      <point x="518" y="671" type="line"/>
      <point x="518" y="522" type="line"/>
      <point x="458" y="522" type="line"/>
      <point x="443" y="604" type="line"/>
      <point x="441" y="613"/>
      <point x="435" y="623"/>
      <point x="425" y="623" type="curve" smooth="yes"/>
      <point x="208" y="623" type="line"/>
      <point x="208" y="374" type="line"/>
      <point x="358" y="374" type="line" smooth="yes"/>
      <point x="368" y="374"/>
      <point x="374" y="380"/>
      <point x="376" y="391" type="curve"/>
      <point x="386" y="460" type="line"/>
      <point x="437" y="460" type="line"/>
      <point x="437" y="237" type="line"/>
      <point x="386" y="237" type="line"/>
      <point x="377" y="306" type="line"/>
      <point x="376" y="316"/>
      <point x="370" y="324"/>
      <point x="359" y="324" type="curve" smooth="yes"/>
      <point x="209" y="324" type="line"/>
      <point x="209" y="49" type="line"/>
      <point x="462" y="49" type="line" smooth="yes"/>
      <point x="470" y="49"/>
      <point x="478" y="61"/>
      <point x="479" y="68" type="curve"/>
      <point x="497" y="167" type="line"/>
      <point x="551" y="167" type="line"/>
      <point x="551" y="0" type="line"/>
    </contour>
    <contour>
      <point x="168.5" y="883" type="curve" smooth="yes"/>
      <point x="168.5" y="911.396"/>
      <point x="186.87" y="929"/>
      <point x="216.5" y="929" type="curve" smooth="yes"/>
      <point x="239.407" y="929"/>
      <point x="251.784" y="922.574"/>
      <point x="268.5" y="902" type="curve" smooth="yes"/>
      <point x="400.5" y="747" type="line"/>
      <point x="345.5" y="747" type="line"/>
      <point x="193.5" y="844" type="line" smooth="yes"/>
      <point x="176.414" y="854.515"/>
      <point x="168.5" y="866.86"/>
    </contour>
  </outline>
</glyph>
<glyph name="uni0205" format="2">
  <advance width="490"/>
  <unicode hex="0205"/>
  <outline>
    <contour>
      <point x="34" y="235" type="curve" smooth="yes"/>
      <point x="34" y="386"/>
      <point x="120" y="495"/>
      <point x="269" y="495" type="curve" smooth="yes"/>
      <point x="393" y="495"/>
      <point x="456" y="413"/>
      <point x="456" y="289" type="curve" smooth="yes"/>
      <point x="456" y="261" type="line"/>
      <point x="131" y="261" type="line"/>
      <point x="131" y="139"/>
      <point x="178" y="48"/>
      <point x="297" y="48" type="curve" smooth="yes"/>
      <point x="359" y="48"/>
      <point x="406" y="78"/>
      <point x="455" y="110" type="curve"/>
      <point x="455" y="49" type="line"/>
      <point x="404" y="18"/>
      <point x="344" y="-13"/>
      <point x="265" y="-13" type="curve" smooth="yes"/>
      <point x="119" y="-13"/>
      <point x="34" y="88"/>
    </contour>
    <contour>
      <point x="135" y="305" type="curve"/>
      <point x="355" y="305" type="line"/>
      <point x="355" y="327" type="line" smooth="yes"/>
      <point x="355" y="395"/>
      <point x="325" y="445"/>
      <point x="258" y="445" type="curve" smooth="yes"/>
      <point x="179" y="445"/>
      <point x="140" y="381"/>
    </contour>
    <contour>
      <point x="-31.5" y="692" type="curve" smooth="yes"/>
      <point x="-31.5" y="720.5"/>
      <point x="-15" y="737"/>
      <point x="13.5" y="737" type="curve" smooth="yes"/>
      <point x="38.3154" y="737"/>
      <point x="51.6602" y="730.449"/>
      <point x="68.5" y="710" type="curve" smooth="yes"/>
      <point x="201.5" y="555" type="line"/>
      <point x="143.5" y="555" type="line"/>
      <point x="-7.5" y="652" type="line" smooth="yes"/>
      <point x="-23.5117" y="661.854"/>
      <point x="-31.5" y="675.167"/>
    </contour>
    <contour>
      <point x="162.5" y="692" type="curve" smooth="yes"/>
      <point x="162.5" y="720.396"/>
      <point x="180.87" y="738"/>
      <point x="210.5" y="738" type="curve" smooth="yes"/>
      <point x="233.407" y="738"/>
      <point x="245.784" y="731.574"/>
      <point x="262.5" y="711" type="curve" smooth="yes"/>
      <point x="394.5" y="556" type="line"/>
      <point x="339.5" y="556" type="line"/>
      <point x="187.5" y="653" type="line" smooth="yes"/>
      <point x="170.414" y="663.515"/>
      <point x="162.5" y="675.86"/>
    </contour>
  </outline>
</glyph>
<glyph name="uni0207" format="2">
  <advance width="490"/>
  <unicode hex="0207"/>
  <outline>
    <contour>
      <point x="34" y="235" type="curve" smooth="yes"/>
      <point x="34" y="386"/>
      <point x="120" y="495"/>
      <point x="269" y="495" type="curve" smooth="yes"/>
      <point x="393" y="495"/>
      <point x="456" y="413"/>
      <point x="456" y="289" type="curve" smooth="yes"/>
      <point x="456" y="261" type="line"/>
      <point x="131" y="261" type="line"/>
      <point x="131" y="139"/>
      <point x="178" y="48"/>
      <point x="297" y="48" type="curve" smooth="yes"/>
      <point x="359" y="48"/>
      <point x="406" y="78"/>
      <point x="455" y="110" type="curve"/>
      <point x="455" y="49" type="line"/>
      <point x="404" y="18"/>
      <point x="344" y="-13"/>
      <point x="265" y="-13" type="curve" smooth="yes"/>
      <point x="119" y="-13"/>
      <point x="34" y="88"/>
    </contour>
    <contour>
      <point x="120.5" y="555" type="line"/>
      <point x="120.5" y="640.626"/>
      <point x="182.604" y="704"/>
      <point x="269.5" y="704" type="curve" smooth="yes"/>
      <point x="358.226" y="704"/>
      <point x="417.5" y="642.049"/>
      <point x="417.5" y="555" type="curve"/>
      <point x="378.5" y="555" type="line"/>
      <point x="366.5" y="605.617"/>
      <point x="329.5" y="637"/>
      <point x="268.5" y="637" type="curve" smooth="yes"/>
      <point x="208.609" y="637"/>
      <point x="172.282" y="605.617"/>
      <point x="160.5" y="555" type="curve"/>
    </contour>
    <contour>
      <point x="135" y="305" type="curve"/>
      <point x="355" y="305" type="line"/>
      <point x="355" y="327" type="line" smooth="yes"/>
      <point x="355" y="395"/>
      <point x="325" y="445"/>
      <point x="258" y="445" type="curve" smooth="yes"/>
      <point x="179" y="445"/>
      <point x="140" y="381"/>
    </contour>
  </outline>
</glyph>
<glyph name="uni0208" format="2">
  <advance width="330"/>
  <unicode hex="0208"/>
  <outline>
    <contour>
      <point x="-135.5" y="883" type="curve" smooth="yes"/>
      <point x="-135.5" y="911.5"/>
      <point x="-119" y="928"/>
      <point x="-90.5" y="928" type="curve" smooth="yes"/>
      <point x="-65.6846" y="928"/>
      <point x="-52.3398" y="921.449"/>
      <point x="-35.5" y="901" type="curve" smooth="yes"/>
      <point x="97.5" y="746" type="line"/>
      <point x="39.5" y="746" type="line"/>
      <point x="-111.5" y="843" type="line" smooth="yes"/>
      <point x="-127.512" y="852.854"/>
      <point x="-135.5" y="866.167"/>
    </contour>
    <contour>
      <point x="33" y="0" type="line"/>
      <point x="33" y="43" type="line"/>
      <point x="93" y="47" type="line" smooth="yes"/>
      <point x="105" y="48"/>
      <point x="114" y="57"/>
      <point x="114" y="69" type="curve" smooth="yes"/>
      <point x="114" y="602" type="line" smooth="yes"/>
      <point x="114" y="614"/>
      <point x="105" y="622"/>
      <point x="93" y="623" type="curve" smooth="yes"/>
      <point x="33" y="627" type="line"/>
      <point x="33" y="671" type="line"/>
      <point x="297" y="671" type="line"/>
      <point x="297" y="627" type="line"/>
      <point x="236" y="623" type="line" smooth="yes"/>
      <point x="225" y="622"/>
      <point x="215" y="613"/>
      <point x="215" y="602" type="curve" smooth="yes"/>
      <point x="215" y="69" type="line" smooth="yes"/>
      <point x="215" y="58"/>
      <point x="225" y="48"/>
      <point x="236" y="47" type="curve" smooth="yes"/>
      <point x="297" y="43" type="line"/>
      <point x="297" y="0" type="line"/>
    </contour>
    <contour>
      <point x="58.5" y="883" type="curve" smooth="yes"/>
      <point x="58.5" y="911.396"/>
      <point x="76.8701" y="929"/>
      <point x="106.5" y="929" type="curve" smooth="yes"/>
      <point x="129.407" y="929"/>
      <point x="141.784" y="922.574"/>
      <point x="158.5" y="902" type="curve" smooth="yes"/>
      <point x="290.5" y="747" type="line"/>
      <point x="235.5" y="747" type="line"/>
      <point x="83.5" y="844" type="line" smooth="yes"/>
      <point x="66.4141" y="854.515"/>
      <point x="58.5" y="866.86"/>
    </contour>
  </outline>
</glyph>
<glyph name="uni0209" format="2">
  <advance width="303"/>
  <unicode hex="0209"/>
  <outline>
    <contour>
      <point x="-150.5" y="692" type="curve" smooth="yes"/>
      <point x="-150.5" y="720.5"/>
      <point x="-134" y="737"/>
      <point x="-105.5" y="737" type="curve" smooth="yes"/>
      <point x="-80.6846" y="737"/>
      <point x="-67.3398" y="730.449"/>
      <point x="-50.5" y="710" type="curve" smooth="yes"/>
      <point x="82.5" y="555" type="line"/>
      <point x="24.5" y="555" type="line"/>
      <point x="-126.5" y="652" type="line" smooth="yes"/>
      <point x="-142.512" y="661.854"/>
      <point x="-150.5" y="675.167"/>
    </contour>
    <contour>
      <point x="34" y="0" type="line"/>
      <point x="34" y="39" type="line"/>
      <point x="83" y="42" type="line"/>
      <point x="94" y="43"/>
      <point x="104" y="51"/>
      <point x="104" y="63" type="curve" smooth="yes"/>
      <point x="104" y="411" type="line"/>
      <point x="35" y="411" type="line"/>
      <point x="35" y="444" type="line"/>
      <point x="157" y="482" type="line"/>
      <point x="197" y="482" type="line"/>
      <point x="197" y="63" type="line" smooth="yes"/>
      <point x="197" y="51"/>
      <point x="207" y="43"/>
      <point x="218" y="42" type="curve"/>
      <point x="269" y="39" type="line"/>
      <point x="269" y="0" type="line"/>
    </contour>
    <contour>
      <point x="43.5" y="692" type="curve" smooth="yes"/>
      <point x="43.5" y="720.396"/>
      <point x="61.8701" y="738"/>
      <point x="91.5" y="738" type="curve" smooth="yes"/>
      <point x="114.407" y="738"/>
      <point x="126.784" y="731.574"/>
      <point x="143.5" y="711" type="curve" smooth="yes"/>
      <point x="275.5" y="556" type="line"/>
      <point x="220.5" y="556" type="line"/>
      <point x="68.5" y="653" type="line" smooth="yes"/>
      <point x="51.4141" y="663.515"/>
      <point x="43.5" y="675.86"/>
    </contour>
  </outline>
</glyph>
<glyph name="uni020D" format="2">
  <advance width="543"/>
  <unicode hex="020D"/>
  <outline>
    <contour>
      <point x="12.5" y="692" type="curve" smooth="yes"/>
      <point x="12.5" y="720.5"/>
      <point x="29" y="737"/>
      <point x="57.5" y="737" type="curve" smooth="yes"/>
      <point x="82.3154" y="737"/>
      <point x="95.6602" y="730.449"/>
      <point x="112.5" y="710" type="curve" smooth="yes"/>
      <point x="245.5" y="555" type="line"/>
      <point x="187.5" y="555" type="line"/>
      <point x="36.5" y="652" type="line" smooth="yes"/>
      <point x="20.4883" y="661.854"/>
      <point x="12.5" y="675.167"/>
    </contour>
    <contour>
      <point x="34" y="240" type="curve" smooth="yes"/>
      <point x="34" y="381"/>
      <point x="133" y="495"/>
      <point x="273" y="495" type="curve" smooth="yes"/>
      <point x="413" y="495"/>
      <point x="509" y="381"/>
      <point x="509" y="240" type="curve" smooth="yes"/>
      <point x="509" y="100"/>
      <point x="410" y="-13"/>
      <point x="270" y="-13" type="curve" smooth="yes"/>
      <point x="130" y="-13"/>
      <point x="34" y="100"/>
    </contour>
    <contour>
      <point x="138" y="240" type="curve" smooth="yes"/>
      <point x="138" y="150"/>
      <point x="172" y="34"/>
      <point x="272" y="34" type="curve" smooth="yes"/>
      <point x="372" y="34"/>
      <point x="406" y="150"/>
      <point x="406" y="240" type="curve" smooth="yes"/>
      <point x="406" y="330"/>
      <point x="373" y="450"/>
      <point x="273" y="450" type="curve" smooth="yes"/>
      <point x="173" y="450"/>
      <point x="138" y="330"/>
    </contour>
    <contour>
      <point x="206.5" y="692" type="curve" smooth="yes"/>
      <point x="206.5" y="720.396"/>
      <point x="224.87" y="738"/>
      <point x="254.5" y="738" type="curve" smooth="yes"/>
      <point x="277.407" y="738"/>
      <point x="289.784" y="731.574"/>
      <point x="306.5" y="711" type="curve" smooth="yes"/>
      <point x="438.5" y="556" type="line"/>
      <point x="383.5" y="556" type="line"/>
      <point x="231.5" y="653" type="line" smooth="yes"/>
      <point x="214.414" y="663.515"/>
      <point x="206.5" y="675.86"/>
    </contour>
  </outline>
</glyph>
<glyph name="uni020F" format="2">
  <advance width="543"/>
  <unicode hex="020F"/>
  <outline>
    <contour>
      <point x="34" y="240" type="curve" smooth="yes"/>
      <point x="34" y="381"/>
      <point x="133" y="495"/>
      <point x="273" y="495" type="curve" smooth="yes"/>
      <point x="413" y="495"/>
      <point x="509" y="381"/>
      <point x="509" y="240" type="curve" smooth="yes"/>
      <point x="509" y="100"/>
      <point x="410" y="-13"/>
      <point x="270" y="-13" type="curve" smooth="yes"/>
      <point x="130" y="-13"/>
      <point x="34" y="100"/>
    </contour>
    <contour>
      <point x="124.5" y="555" type="line"/>
      <point x="124.5" y="640.626"/>
      <point x="186.604" y="704"/>
      <point x="273.5" y="704" type="curve" smooth="yes"/>
      <point x="362.226" y="704"/>
      <point x="421.5" y="642.049"/>
      <point x="421.5" y="555" type="curve"/>
      <point x="382.5" y="555" type="line"/>
      <point x="370.5" y="605.617"/>
      <point x="333.5" y="637"/>
      <point x="272.5" y="637" type="curve" smooth="yes"/>
      <point x="212.609" y="637"/>
      <point x="176.282" y="605.617"/>
      <point x="164.5" y="555" type="curve"/>
    </contour>
    <contour>
      <point x="138" y="240" type="curve" smooth="yes"/>
      <point x="138" y="150"/>
      <point x="172" y="34"/>
      <point x="272" y="34" type="curve" smooth="yes"/>
      <point x="372" y="34"/>
      <point x="406" y="150"/>
      <point x="406" y="240" type="curve" smooth="yes"/>
      <point x="406" y="330"/>
      <point x="373" y="450"/>
      <point x="273" y="450" type="curve" smooth="yes"/>
      <point x="173" y="450"/>
      <point x="138" y="330"/>
    </contour>
  </outline>
</glyph>
<glyph name="uni0211" format="2">
  <advance width="391"/>
  <unicode hex="0211"/>
  <outline>
    <contour>
      <point x="-98.5" y="692" type="curve" smooth="yes"/>
      <point x="-98.5" y="720.5"/>
      <point x="-82" y="737"/>
      <point x="-53.5" y="737" type="curve" smooth="yes"/>
      <point x="-28.6846" y="737"/>
      <point x="-15.3398" y="730.449"/>
      <point x="1.5" y="710" type="curve" smooth="yes"/>
      <point x="134.5" y="555" type="line"/>
      <point x="76.5" y="555" type="line"/>
      <point x="-74.5" y="652" type="line" smooth="yes"/>
      <point x="-90.5117" y="661.854"/>
      <point x="-98.5" y="675.167"/>
    </contour>
    <contour>
      <point x="23" y="411" type="line"/>
      <point x="23" y="444" type="line"/>
      <point x="147" y="482" type="line"/>
      <point x="188" y="482" type="line"/>
      <point x="188" y="395" type="line"/>
      <point x="211.521" y="425.985"/>
      <point x="263.505" y="494"/>
      <point x="320" y="494" type="curve" smooth="yes"/>
      <point x="344" y="494"/>
      <point x="364" y="486"/>
      <point x="381" y="479" type="curve"/>
      <point x="381" y="380" type="line"/>
      <point x="342" y="380" type="line"/>
      <point x="329" y="394"/>
      <point x="314" y="407"/>
      <point x="288" y="407" type="curve" smooth="yes"/>
      <point x="244.826" y="407"/>
      <point x="212.382" y="373.685"/>
      <point x="188" y="345" type="curve"/>
      <point x="188" y="63" type="line" smooth="yes"/>
      <point x="188" y="51"/>
      <point x="197.977" y="42.501"/>
      <point x="209" y="42" type="curve" smooth="yes"/>
      <point x="275" y="39" type="line"/>
      <point x="275" y="0" type="line"/>
      <point x="25" y="0" type="line"/>
      <point x="25" y="38" type="line"/>
      <point x="74" y="42" type="line" smooth="yes"/>
      <point x="85.0078" y="42.8984"/>
      <point x="95" y="51"/>
      <point x="95" y="63" type="curve" smooth="yes"/>
      <point x="95" y="411" type="line"/>
    </contour>
    <contour>
      <point x="95.5" y="692" type="curve" smooth="yes"/>
      <point x="95.5" y="720.396"/>
      <point x="113.87" y="738"/>
      <point x="143.5" y="738" type="curve" smooth="yes"/>
      <point x="166.407" y="738"/>
      <point x="178.784" y="731.574"/>
      <point x="195.5" y="711" type="curve" smooth="yes"/>
      <point x="327.5" y="556" type="line"/>
      <point x="272.5" y="556" type="line"/>
      <point x="120.5" y="653" type="line" smooth="yes"/>
      <point x="103.414" y="663.515"/>
      <point x="95.5" y="675.86"/>
    </contour>
  </outline>
</glyph>
<glyph name="uni0213" format="2">
  <advance width="391"/>
  <unicode hex="0213"/>
  <outline>
    <contour>
      <point x="23" y="411" type="line"/>
      <point x="23" y="444" type="line"/>
      <point x="147" y="482" type="line"/>
      <point x="188" y="482" type="line"/>
      <point x="188" y="395" type="line"/>
      <point x="211.521" y="425.985"/>
      <point x="263.505" y="494"/>
      <point x="320" y="494" type="curve" smooth="yes"/>
      <point x="344" y="494"/>
      <point x="364" y="486"/>
      <point x="381" y="479" type="curve"/>
      <point x="381" y="380" type="line"/>
      <point x="342" y="380" type="line"/>
      <point x="329" y="394"/>
      <point x="314" y="407"/>
      <point x="288" y="407" type="curve" smooth="yes"/>
      <point x="244.826" y="407"/>
      <point x="212.382" y="373.685"/>
      <point x="188" y="345" type="curve"/>
      <point x="188" y="63" type="line" smooth="yes"/>
      <point x="188" y="51"/>
      <point x="197.977" y="42.501"/>
      <point x="209" y="42" type="curve" smooth="yes"/>
      <point x="275" y="39" type="line"/>
      <point x="275" y="0" type="line"/>
      <point x="25" y="0" type="line"/>
      <point x="25" y="38" type="line"/>
      <point x="74" y="42" type="line" smooth="yes"/>
      <point x="85.0078" y="42.8984"/>
      <point x="95" y="51"/>
      <point x="95" y="63" type="curve" smooth="yes"/>
      <point x="95" y="411" type="line"/>
    </contour>
    <contour>
      <point x="53.5" y="555" type="line"/>
      <point x="53.5" y="640.626"/>
      <point x="115.604" y="704"/>
      <point x="202.5" y="704" type="curve" smooth="yes"/>
      <point x="291.226" y="704"/>
      <point x="350.5" y="642.049"/>
      <point x="350.5" y="555" type="curve"/>
      <point x="311.5" y="555" type="line"/>
      <point x="299.5" y="605.617"/>
      <point x="262.5" y="637"/>
      <point x="201.5" y="637" type="curve" smooth="yes"/>
      <point x="141.609" y="637"/>
      <point x="105.282" y="605.617"/>
      <point x="93.5" y="555" type="curve"/>
    </contour>
  </outline>
</glyph>
<glyph name="uni0214" format="2">
  <advance width="711"/>
  <unicode hex="0214"/>
  <outline>
    <contour>
      <point x="31" y="628" type="line"/>
      <point x="31" y="671" type="line"/>
      <point x="285" y="671" type="line"/>
      <point x="285" y="628" type="line"/>
      <point x="228" y="624" type="line" smooth="yes"/>
      <point x="216" y="623"/>
      <point x="207" y="614"/>
      <point x="207" y="602" type="curve" smooth="yes"/>
      <point x="207" y="249" type="line" smooth="yes"/>
      <point x="207" y="122"/>
      <point x="248" y="52"/>
      <point x="376" y="52" type="curve" smooth="yes"/>
      <point x="502" y="52"/>
      <point x="547" y="124"/>
      <point x="547" y="249" type="curve" smooth="yes"/>
      <point x="547" y="602" type="line" smooth="yes"/>
      <point x="547" y="614"/>
      <point x="537" y="623"/>
      <point x="525" y="624" type="curve" smooth="yes"/>
      <point x="468" y="628" type="line"/>
      <point x="468" y="671" type="line"/>
      <point x="685" y="671" type="line"/>
      <point x="685" y="628" type="line"/>
      <point x="627" y="624" type="line" smooth="yes"/>
      <point x="615" y="623"/>
      <point x="606" y="614"/>
      <point x="606" y="602" type="curve" smooth="yes"/>
      <point x="606" y="223" type="line" smooth="yes"/>
      <point x="606" y="57"/>
      <point x="515" y="-15"/>
      <point x="349" y="-15" type="curve" smooth="yes"/>
      <point x="187" y="-15"/>
      <point x="105" y="63"/>
      <point x="105" y="223" type="curve" smooth="yes"/>
      <point x="105" y="602" type="line" smooth="yes"/>
      <point x="105" y="614"/>
      <point x="96" y="623"/>
      <point x="84" y="624" type="curve" smooth="yes"/>
    </contour>
    <contour>
      <point x="57.5" y="883" type="curve" smooth="yes"/>
      <point x="57.5" y="911.5"/>
      <point x="74" y="928"/>
      <point x="102.5" y="928" type="curve" smooth="yes"/>
      <point x="127.315" y="928"/>
      <point x="140.66" y="921.449"/>
      <point x="157.5" y="901" type="curve" smooth="yes"/>
      <point x="290.5" y="746" type="line"/>
      <point x="232.5" y="746" type="line"/>
      <point x="81.5" y="843" type="line" smooth="yes"/>
      <point x="65.4883" y="852.854"/>
      <point x="57.5" y="866.167"/>
    </contour>
    <contour>
      <point x="251.5" y="883" type="curve" smooth="yes"/>
      <point x="251.5" y="911.396"/>
      <point x="269.87" y="929"/>
      <point x="299.5" y="929" type="curve" smooth="yes"/>
      <point x="322.407" y="929"/>
      <point x="334.784" y="922.574"/>
      <point x="351.5" y="902" type="curve" smooth="yes"/>
      <point x="483.5" y="747" type="line"/>
      <point x="428.5" y="747" type="line"/>
      <point x="276.5" y="844" type="line" smooth="yes"/>
      <point x="259.414" y="854.515"/>
      <point x="251.5" y="866.86"/>
    </contour>
  </outline>
</glyph>
<glyph name="uni0215" format="2">
  <advance width="568"/>
  <unicode hex="0215"/>
  <outline>
    <contour>
      <point x="20" y="409" type="line"/>
      <point x="20" y="443" type="line"/>
      <point x="143" y="482" type="line"/>
      <point x="183" y="482" type="line"/>
      <point x="183" y="169" type="line" smooth="yes"/>
      <point x="183" y="98"/>
      <point x="209" y="56"/>
      <point x="280" y="56" type="curve" smooth="yes"/>
      <point x="324" y="56"/>
      <point x="358" y="69"/>
      <point x="389" y="84" type="curve"/>
      <point x="389" y="409" type="line"/>
      <point x="319" y="409" type="line"/>
      <point x="319" y="443" type="line"/>
      <point x="441" y="482" type="line"/>
      <point x="482" y="482" type="line"/>
      <point x="482" y="64" type="line" smooth="yes"/>
      <point x="482" y="52"/>
      <point x="493" y="44"/>
      <point x="504" y="43" type="curve" smooth="yes"/>
      <point x="548" y="39" type="line"/>
      <point x="548" y="0" type="line"/>
      <point x="389" y="0" type="line"/>
      <point x="389" y="56" type="line"/>
      <point x="351" y="27"/>
      <point x="294" y="-12"/>
      <point x="228" y="-12" type="curve" smooth="yes"/>
      <point x="130" y="-12"/>
      <point x="90" y="50"/>
      <point x="90" y="150" type="curve" smooth="yes"/>
      <point x="90" y="409" type="line"/>
    </contour>
    <contour>
      <point x="33" y="692" type="curve" smooth="yes"/>
      <point x="33" y="720.5"/>
      <point x="49.5" y="737"/>
      <point x="78" y="737" type="curve" smooth="yes"/>
      <point x="102.815" y="737"/>
      <point x="116.16" y="730.449"/>
      <point x="133" y="710" type="curve" smooth="yes"/>
      <point x="266" y="555" type="line"/>
      <point x="208" y="555" type="line"/>
      <point x="57" y="652" type="line" smooth="yes"/>
      <point x="40.9883" y="661.854"/>
      <point x="33" y="675.167"/>
    </contour>
    <contour>
      <point x="227" y="692" type="curve" smooth="yes"/>
      <point x="227" y="720.396"/>
      <point x="245.37" y="738"/>
      <point x="275" y="738" type="curve" smooth="yes"/>
      <point x="297.907" y="738"/>
      <point x="310.284" y="731.574"/>
      <point x="327" y="711" type="curve" smooth="yes"/>
      <point x="459" y="556" type="line"/>
      <point x="404" y="556" type="line"/>
      <point x="252" y="653" type="line" smooth="yes"/>
      <point x="234.914" y="663.515"/>
      <point x="227" y="675.86"/>
    </contour>
  </outline>
</glyph>
<glyph name="uni0217" format="2">
  <advance width="568"/>
  <unicode hex="0217"/>
  <outline>
    <contour>
      <point x="20" y="409" type="line"/>
      <point x="20" y="443" type="line"/>
      <point x="143" y="482" type="line"/>
      <point x="183" y="482" type="line"/>
      <point x="183" y="169" type="line" smooth="yes"/>
      <point x="183" y="98"/>
      <point x="209" y="56"/>
      <point x="280" y="56" type="curve" smooth="yes"/>
      <point x="324" y="56"/>
      <point x="358" y="69"/>
      <point x="389" y="84" type="curve"/>
      <point x="389" y="409" type="line"/>
      <point x="319" y="409" type="line"/>
      <point x="319" y="443" type="line"/>
      <point x="441" y="482" type="line"/>
      <point x="482" y="482" type="line"/>
      <point x="482" y="64" type="line" smooth="yes"/>
      <point x="482" y="52"/>
      <point x="493" y="44"/>
      <point x="504" y="43" type="curve" smooth="yes"/>
      <point x="548" y="39" type="line"/>
      <point x="548" y="0" type="line"/>
      <point x="389" y="0" type="line"/>
      <point x="389" y="56" type="line"/>
      <point x="351" y="27"/>
      <point x="294" y="-12"/>
      <point x="228" y="-12" type="curve" smooth="yes"/>
      <point x="130" y="-12"/>
      <point x="90" y="50"/>
      <point x="90" y="150" type="curve" smooth="yes"/>
      <point x="90" y="409" type="line"/>
    </contour>
    <contour>
      <point x="114.5" y="555" type="line"/>
      <point x="114.5" y="640.626"/>
      <point x="176.604" y="704"/>
      <point x="263.5" y="704" type="curve" smooth="yes"/>
      <point x="352.226" y="704"/>
      <point x="411.5" y="642.049"/>
      <point x="411.5" y="555" type="curve"/>
      <point x="372.5" y="555" type="line"/>
      <point x="360.5" y="605.617"/>
      <point x="323.5" y="637"/>
      <point x="262.5" y="637" type="curve" smooth="yes"/>
      <point x="202.609" y="637"/>
      <point x="166.282" y="605.617"/>
      <point x="154.5" y="555" type="curve"/>
    </contour>
  </outline>
</glyph>
<glyph name="uni021D" format="2">
  <advance width="424"/>
  <unicode hex="021D"/>
  <outline>
    <contour>
      <point x="34" y="349" type="line"/>
      <point x="34" y="459" type="line"/>
      <point x="90.6514" y="483.927"/>
      <point x="143.25" y="495"/>
      <point x="205" y="495" type="curve" smooth="yes"/>
      <point x="309.39" y="495"/>
      <point x="380" y="445.774"/>
      <point x="380" y="373" type="curve" smooth="yes"/>
      <point x="380" y="303.803"/>
      <point x="344.439" y="248.487"/>
      <point x="263" y="191" type="curve"/>
      <point x="341.781" y="175.85"/>
      <point x="390" y="130.289"/>
      <point x="390" y="71" type="curve" smooth="yes"/>
      <point x="390" y="-39.8591"/>
      <point x="281.086" y="-138.276"/>
      <point x="58" y="-229" type="curve"/>
      <point x="58" y="-177" type="line"/>
      <point x="219.088" y="-98.825"/>
      <point x="293" y="-23.9693"/>
      <point x="293" y="61" type="curve" smooth="yes"/>
      <point x="293" y="117.907"/>
      <point x="257.333" y="151"/>
      <point x="196" y="151" type="curve"/>
      <point x="167.889" y="135.491"/>
      <point x="136.045" y="120.425"/>
      <point x="103" y="107" type="curve"/>
      <point x="103" y="159" type="line"/>
      <point x="228.807" y="220.8"/>
      <point x="283" y="282.218"/>
      <point x="283" y="363" type="curve" smooth="yes"/>
      <point x="283" y="419.633"/>
      <point x="248.793" y="450"/>
      <point x="185" y="450" type="curve" smooth="yes"/>
      <point x="153.37" y="450"/>
      <point x="111.546" y="435.742"/>
      <point x="97" y="420" type="curve"/>
      <point x="82" y="349" type="line"/>
    </contour>
  </outline>
</glyph>
<glyph name="uni0222" format="2">
  <advance width="584"/>
  <unicode hex="0222"/>
  <outline>
    <contour>
      <point x="31" y="184" type="curve" smooth="yes"/>
      <point x="31" y="296"/>
      <point x="107" y="350"/>
      <point x="207" y="361" type="curve"/>
      <point x="128.737" y="369.836"/>
      <point x="58" y="428.137"/>
      <point x="58" y="516" type="curve" smooth="yes"/>
      <point x="58" y="639.04"/>
      <point x="166.193" y="690"/>
      <point x="289" y="690" type="curve" smooth="yes"/>
      <point x="412.24" y="690"/>
      <point x="519" y="639.214"/>
      <point x="519" y="516" type="curve" smooth="yes"/>
      <point x="519" y="422"/>
      <point x="447" y="375"/>
      <point x="369" y="360" type="curve"/>
      <point x="463.364" y="341.215"/>
      <point x="542" y="298.701"/>
      <point x="542" y="185" type="curve" smooth="yes"/>
      <point x="542" y="56.1195"/>
      <point x="417.616" y="-11"/>
      <point x="287" y="-11" type="curve" smooth="yes"/>
      <point x="152.149" y="-11"/>
      <point x="31" y="51.4147"/>
    </contour>
    <contour>
      <point x="150" y="189" type="curve" smooth="yes"/>
      <point x="150" y="97.8712"/>
      <point x="198.704" y="40"/>
      <point x="290" y="40" type="curve" smooth="yes"/>
      <point x="375.302" y="40"/>
      <point x="431" y="104.702"/>
      <point x="431" y="190" type="curve" smooth="yes"/>
      <point x="431" y="277.278"/>
      <point x="376.659" y="333"/>
      <point x="291" y="333" type="curve" smooth="yes"/>
      <point x="207.339" y="333"/>
      <point x="150" y="272.156"/>
    </contour>
    <contour>
      <point x="165" y="517" type="curve" smooth="yes"/>
      <point x="165" y="442.207"/>
      <point x="214.082" y="387"/>
      <point x="289" y="387" type="curve" smooth="yes"/>
      <point x="364.82" y="387"/>
      <point x="413" y="442.75"/>
      <point x="413" y="517" type="curve" smooth="yes"/>
      <point x="413" y="592.62"/>
      <point x="364" y="639"/>
      <point x="290" y="639" type="curve" smooth="yes"/>
      <point x="213.989" y="639"/>
      <point x="165" y="594.346"/>
    </contour>
  </outline>
</glyph>
<glyph name="uni0225" format="2">
  <advance width="461"/>
  <unicode hex="0225"/>
  <outline>
    <contour>
      <point x="34" y="0" type="line"/>
      <point x="34" y="53" type="line"/>
      <point x="299" y="435" type="line"/>
      <point x="125" y="435" type="line" smooth="yes"/>
      <point x="116.214" y="435"/>
      <point x="106.16" y="424.443"/>
      <point x="105" y="414" type="curve" smooth="yes"/>
      <point x="95" y="340" type="line"/>
      <point x="44" y="340" type="line"/>
      <point x="44" y="482" type="line"/>
      <point x="414" y="482" type="line"/>
      <point x="414" y="441" type="line"/>
      <point x="140" y="48" type="line"/>
      <point x="429" y="48" type="line"/>
      <point x="436.372" y="34.3101"/>
      <point x="440" y="19.1364"/>
      <point x="440" y="2" type="curve" smooth="yes"/>
      <point x="440" y="-48.4675"/>
      <point x="412.286" y="-100.297"/>
      <point x="363" y="-142" type="curve"/>
      <point x="331" y="-142" type="line"/>
      <point x="352.329" y="-123.58"/>
      <point x="366" y="-85.3"/>
      <point x="366" y="-44" type="curve" smooth="yes"/>
      <point x="366" y="-23.9866"/>
      <point x="362.624" y="-10.4832"/>
      <point x="355" y="0" type="curve"/>
    </contour>
  </outline>
</glyph>
<glyph name="uni022C" format="2">
  <advance width="730"/>
  <unicode hex="022C"/>
  <outline>
    <contour>
      <point x="155" y="337" type="curve" smooth="yes"/>
      <point x="155" y="207"/>
      <point x="214" y="39"/>
      <point x="364" y="39" type="curve" smooth="yes"/>
      <point x="514" y="39"/>
      <point x="576" y="207"/>
      <point x="576" y="337" type="curve" smooth="yes"/>
      <point x="576" y="467"/>
      <point x="518" y="628"/>
      <point x="368" y="628" type="curve" smooth="yes"/>
      <point x="218" y="628"/>
      <point x="155" y="467"/>
    </contour>
    <contour>
      <point x="39" y="337" type="curve" smooth="yes"/>
      <point x="39" y="526"/>
      <point x="176" y="686"/>
      <point x="366" y="686" type="curve" smooth="yes"/>
      <point x="556" y="686"/>
      <point x="693" y="526"/>
      <point x="693" y="337" type="curve" smooth="yes"/>
      <point x="693" y="147"/>
      <point x="556" y="-15"/>
      <point x="366" y="-15" type="curve" smooth="yes"/>
      <point x="176" y="-15"/>
      <point x="39" y="147"/>
    </contour>
    <contour>
      <point x="175" y="916" type="line"/>
      <point x="175" y="979" type="line"/>
      <point x="510" y="979" type="line"/>
      <point x="510" y="916" type="line"/>
    </contour>
    <contour>
      <point x="173" y="746" type="line"/>
      <point x="188" y="801"/>
      <point x="218" y="856"/>
      <point x="288" y="856" type="curve" smooth="yes"/>
      <point x="315" y="856"/>
      <point x="333" y="845"/>
      <point x="351" y="834" type="curve" smooth="yes"/>
      <point x="372" y="821"/>
      <point x="393" y="808"/>
      <point x="426" y="808" type="curve" smooth="yes"/>
      <point x="454" y="808"/>
      <point x="476" y="830"/>
      <point x="479" y="856" type="curve"/>
      <point x="519" y="856" type="line"/>
      <point x="504" y="801"/>
      <point x="474" y="746"/>
      <point x="404" y="746" type="curve" smooth="yes"/>
      <point x="377" y="746"/>
      <point x="358" y="757"/>
      <point x="339" y="769" type="curve" smooth="yes"/>
      <point x="319" y="781"/>
      <point x="296" y="794"/>
      <point x="265" y="794" type="curve" smooth="yes"/>
      <point x="237" y="794"/>
      <point x="216" y="771"/>
      <point x="213" y="746" type="curve"/>
    </contour>
  </outline>
</glyph>
<glyph name="uni0231" format="2">
  <advance width="543"/>
  <unicode hex="0231"/>
  <outline>
    <contour>
      <point x="34" y="240" type="curve" smooth="yes"/>
      <point x="34" y="381"/>
      <point x="133" y="495"/>
      <point x="273" y="495" type="curve" smooth="yes"/>
      <point x="413" y="495"/>
      <point x="509" y="381"/>
      <point x="509" y="240" type="curve" smooth="yes"/>
      <point x="509" y="100"/>
      <point x="410" y="-13"/>
      <point x="270" y="-13" type="curve" smooth="yes"/>
      <point x="130" y="-13"/>
      <point x="34" y="100"/>
    </contour>
    <contour>
      <point x="105.5" y="728" type="line"/>
      <point x="105.5" y="791" type="line"/>
      <point x="440.5" y="791" type="line"/>
      <point x="440.5" y="728" type="line"/>
    </contour>
    <contour>
      <point x="138" y="240" type="curve" smooth="yes"/>
      <point x="138" y="150"/>
      <point x="172" y="34"/>
      <point x="272" y="34" type="curve" smooth="yes"/>
      <point x="372" y="34"/>
      <point x="406" y="150"/>
      <point x="406" y="240" type="curve" smooth="yes"/>
      <point x="406" y="330"/>
      <point x="373" y="450"/>
      <point x="273" y="450" type="curve" smooth="yes"/>
      <point x="173" y="450"/>
      <point x="138" y="330"/>
    </contour>
    <contour>
      <point x="217" y="611" type="curve" smooth="yes"/>
      <point x="217" y="644"/>
      <point x="241" y="668"/>
      <point x="273" y="668" type="curve" smooth="yes"/>
      <point x="305" y="668"/>
      <point x="329" y="644"/>
      <point x="329" y="611" type="curve" smooth="yes"/>
      <point x="329" y="579"/>
      <point x="305" y="555"/>
      <point x="273" y="555" type="curve" smooth="yes"/>
      <point x="241" y="555"/>
      <point x="217" y="579"/>
    </contour>
  </outline>
</glyph>
<glyph name="uni0241" format="2">
  <advance width="471"/>
  <unicode hex="0241"/>
  <outline>
    <contour>
      <point x="39" y="572" type="curve" smooth="yes"/>
      <point x="39" y="646.654"/>
      <point x="140.195" y="686"/>
      <point x="220" y="686" type="curve" smooth="yes"/>
      <point x="337.071" y="686"/>
      <point x="433" y="614.606"/>
      <point x="433" y="499" type="curve" smooth="yes"/>
      <point x="433" y="385"/>
      <point x="353" y="345"/>
      <point x="273" y="311" type="curve"/>
      <point x="273" y="67" type="line" smooth="yes"/>
      <point x="273" y="57"/>
      <point x="285.976" y="47.6811"/>
      <point x="295" y="47" type="curve" smooth="yes"/>
      <point x="348" y="43" type="line"/>
      <point x="348" y="0" type="line"/>
      <point x="99" y="0" type="line"/>
      <point x="99" y="43" type="line"/>
      <point x="150" y="47" type="line" smooth="yes"/>
      <point x="159.023" y="47.7077"/>
      <point x="172" y="57"/>
      <point x="172" y="67" type="curve" smooth="yes"/>
      <point x="172" y="327" type="line"/>
      <point x="244.797" y="352.102"/>
      <point x="327" y="401.303"/>
      <point x="327" y="500" type="curve" smooth="yes"/>
      <point x="327" y="568.714"/>
      <point x="290" y="638"/>
      <point x="221" y="638" type="curve" smooth="yes"/>
      <point x="197" y="638"/>
      <point x="179" y="631"/>
      <point x="163" y="620" type="curve"/>
      <point x="136" y="533" type="line"/>
      <point x="125" y="523.4"/>
      <point x="112" y="515"/>
      <point x="92" y="515" type="curve" smooth="yes"/>
      <point x="57" y="515"/>
      <point x="39" y="537"/>
    </contour>
  </outline>
</glyph>
<glyph name="uni0243" format="2">
  <advance width="604"/>
  <unicode hex="0243"/>
  <outline>
    <contour>
      <point x="17" y="178" type="line"/>
      <point x="17" y="229" type="line"/>
      <point x="353" y="229" type="line"/>
      <point x="353" y="178" type="line"/>
    </contour>
    <contour>
      <point x="32" y="0" type="line"/>
      <point x="32" y="43" type="line"/>
      <point x="85" y="47" type="line" smooth="yes"/>
      <point x="97" y="48"/>
      <point x="106" y="57"/>
      <point x="106" y="69" type="curve" smooth="yes"/>
      <point x="106" y="602" type="line" smooth="yes"/>
      <point x="106" y="614"/>
      <point x="97" y="623"/>
      <point x="85" y="624" type="curve" smooth="yes"/>
      <point x="32" y="628" type="line"/>
      <point x="32" y="671" type="line"/>
      <point x="300" y="671" type="line" smooth="yes"/>
      <point x="427" y="671"/>
      <point x="524" y="634"/>
      <point x="524" y="510" type="curve" smooth="yes"/>
      <point x="524" y="415"/>
      <point x="454" y="376"/>
      <point x="380" y="356" type="curve"/>
      <point x="486" y="356"/>
      <point x="566" y="305"/>
      <point x="566" y="198" type="curve" smooth="yes"/>
      <point x="566" y="55"/>
      <point x="453" y="0"/>
      <point x="312" y="0" type="curve" smooth="yes"/>
    </contour>
    <contour>
      <point x="204" y="53" type="line"/>
      <point x="220" y="51"/>
      <point x="252" y="49"/>
      <point x="266" y="49" type="curve" smooth="yes"/>
      <point x="358" y="49"/>
      <point x="455" y="77"/>
      <point x="455" y="190" type="curve" smooth="yes"/>
      <point x="455" y="286"/>
      <point x="394" y="322"/>
      <point x="294" y="322" type="curve" smooth="yes"/>
      <point x="264" y="322"/>
      <point x="231" y="320"/>
      <point x="204" y="316" type="curve"/>
    </contour>
    <contour>
      <point x="204" y="368" type="line"/>
      <point x="206.96" y="368"/>
      <point x="231.385" y="368"/>
      <point x="240" y="368" type="curve" smooth="yes"/>
      <point x="347" y="368"/>
      <point x="415" y="399"/>
      <point x="415" y="503" type="curve" smooth="yes"/>
      <point x="415" y="590"/>
      <point x="354" y="625"/>
      <point x="261" y="625" type="curve" smooth="yes"/>
      <point x="242" y="625"/>
      <point x="222" y="624"/>
      <point x="204" y="621" type="curve"/>
    </contour>
  </outline>
</glyph>
<glyph name="uni0254" format="2">
  <advance width="465"/>
  <unicode hex="0254"/>
  <outline>
    <contour>
      <point x="34" y="388" type="curve"/>
      <point x="34" y="444" type="line"/>
      <point x="97.5396" y="478.532"/>
      <point x="147.143" y="493"/>
      <point x="202" y="493" type="curve" smooth="yes"/>
      <point x="341.056" y="493"/>
      <point x="431" y="394.808"/>
      <point x="431" y="243" type="curve" smooth="yes"/>
      <point x="431" y="86.7223"/>
      <point x="337.121" y="-13"/>
      <point x="190" y="-13" type="curve" smooth="yes"/>
      <point x="93.6256" y="-13"/>
      <point x="35" y="25.2012"/>
      <point x="35" y="88" type="curve" smooth="yes"/>
      <point x="35" y="123.695"/>
      <point x="57.6897" y="146"/>
      <point x="94" y="146" type="curve" smooth="yes"/>
      <point x="111" y="146"/>
      <point x="125.583" y="141.333"/>
      <point x="144" y="130" type="curve"/>
      <point x="144" y="42" type="line"/>
      <point x="159" y="34"/>
      <point x="173" y="30"/>
      <point x="186" y="30" type="curve" smooth="yes"/>
      <point x="273.927" y="30"/>
      <point x="329" y="107.411"/>
      <point x="329" y="231" type="curve" smooth="yes"/>
      <point x="329" y="355.977"/>
      <point x="267.106" y="431"/>
      <point x="164" y="431" type="curve" smooth="yes"/>
      <point x="118.721" y="431"/>
      <point x="81.1151" y="418.561"/>
    </contour>
  </outline>
</glyph>
